ISO-10303-21;
HEADER;
/* Generated by software containing ST-Developer
 * from STEP Tools, Inc. (www.steptools.com) 
 */
/* OPTION: using custom renumber hook */

FILE_DESCRIPTION(
/* description */ ('STEP AP242 Edition 2',
'CAx-IF Rec.Pracs.---Representation and Presentation of Product Manufa
cturing Information (PMI)---4.0---2014-10-13',
'CAx-IF Rec.Pracs.---3D Tessellated Geometry---0.4---2014-09-14','2;1',
'CAx-IF Rec.Pracs.---User Defined Attributes---1.5---2016-08-15'),
/* implementation_level */ '2;1');

FILE_NAME(
/* name */ 'Part Studio 2 - Part 1',
/* time_stamp */ '2026-10-04T05:36:06Z',
/* author */ (''),
/* organization */ (''),
/* preprocessor_version */ 'ST-DEVELOPER v20',
/* originating_system */ 'ONSHAPE BY PTC INC, 1.221',
/* authorisation */ '  ');

FILE_SCHEMA (('AP242_MANAGED_MODEL_BASED_3D_ENGINEERING_MIM_LF { 1 0 10303 442 3 1 4 }'));
ENDSEC;

DATA;
#10=SHAPE_REPRESENTATION_RELATIONSHIP('','',#924,#11);
#11=ADVANCED_BREP_SHAPE_REPRESENTATION('',(#922),#1532);
#12=CYLINDRICAL_SURFACE('',#935,0.0025);
#13=CYLINDRICAL_SURFACE('',#939,0.0025);
#14=CYLINDRICAL_SURFACE('',#943,0.0025);
#15=CYLINDRICAL_SURFACE('',#947,0.0025);
#16=CYLINDRICAL_SURFACE('',#954,0.0011);
#17=CYLINDRICAL_SURFACE('',#959,0.0011);
#18=CYLINDRICAL_SURFACE('',#962,0.0011);
#19=CYLINDRICAL_SURFACE('',#966,0.0011);
#20=CYLINDRICAL_SURFACE('',#993,0.0016);
#21=CYLINDRICAL_SURFACE('',#996,0.0016);
#22=CYLINDRICAL_SURFACE('',#999,0.0016);
#23=CYLINDRICAL_SURFACE('',#1002,0.0016);
#24=CYLINDRICAL_SURFACE('',#1005,0.0016);
#25=CYLINDRICAL_SURFACE('',#1008,0.0016);
#26=CYLINDRICAL_SURFACE('',#1011,0.0016);
#27=CYLINDRICAL_SURFACE('',#1014,0.0016);
#28=LINE('',#1280,#109);
#29=LINE('',#1283,#110);
#30=LINE('',#1285,#111);
#31=LINE('',#1287,#112);
#32=LINE('',#1291,#113);
#33=LINE('',#1294,#114);
#34=LINE('',#1296,#115);
#35=LINE('',#1298,#116);
#36=LINE('',#1302,#117);
#37=LINE('',#1305,#118);
#38=LINE('',#1307,#119);
#39=LINE('',#1309,#120);
#40=LINE('',#1311,#121);
#41=LINE('',#1314,#122);
#42=LINE('',#1315,#123);
#43=LINE('',#1317,#124);
#44=LINE('',#1319,#125);
#45=LINE('',#1320,#126);
#46=LINE('',#1322,#127);
#47=LINE('',#1324,#128);
#48=LINE('',#1326,#129);
#49=LINE('',#1327,#130);
#50=LINE('',#1329,#131);
#51=LINE('',#1331,#132);
#52=LINE('',#1334,#133);
#53=LINE('',#1336,#134);
#54=LINE('',#1337,#135);
#55=LINE('',#1339,#136);
#56=LINE('',#1341,#137);
#57=LINE('',#1343,#138);
#58=LINE('',#1348,#139);
#59=LINE('',#1352,#140);
#60=LINE('',#1355,#141);
#61=LINE('',#1356,#142);
#62=LINE('',#1358,#143);
#63=LINE('',#1364,#144);
#64=LINE('',#1367,#145);
#65=LINE('',#1368,#146);
#66=LINE('',#1370,#147);
#67=LINE('',#1376,#148);
#68=LINE('',#1379,#149);
#69=LINE('',#1380,#150);
#70=LINE('',#1382,#151);
#71=LINE('',#1388,#152);
#72=LINE('',#1389,#153);
#73=LINE('',#1390,#154);
#74=LINE('',#1393,#155);
#75=LINE('',#1395,#156);
#76=LINE('',#1397,#157);
#77=LINE('',#1399,#158);
#78=LINE('',#1401,#159);
#79=LINE('',#1403,#160);
#80=LINE('',#1407,#161);
#81=LINE('',#1409,#162);
#82=LINE('',#1414,#163);
#83=LINE('',#1416,#164);
#84=LINE('',#1418,#165);
#85=LINE('',#1420,#166);
#86=LINE('',#1422,#167);
#87=LINE('',#1427,#168);
#88=LINE('',#1429,#169);
#89=LINE('',#1434,#170);
#90=LINE('',#1436,#171);
#91=LINE('',#1438,#172);
#92=LINE('',#1440,#173);
#93=LINE('',#1445,#174);
#94=LINE('',#1447,#175);
#95=LINE('',#1450,#176);
#96=LINE('',#1452,#177);
#97=LINE('',#1454,#178);
#98=LINE('',#1455,#179);
#99=LINE('',#1456,#180);
#100=LINE('',#1458,#181);
#101=LINE('',#1460,#182);
#102=LINE('',#1462,#183);
#103=LINE('',#1464,#184);
#104=LINE('',#1466,#185);
#105=LINE('',#1468,#186);
#106=LINE('',#1470,#187);
#107=LINE('',#1472,#188);
#108=LINE('',#1481,#189);
#109=VECTOR('',#1021,1.);
#110=VECTOR('',#1022,1.);
#111=VECTOR('',#1023,1.);
#112=VECTOR('',#1024,1.);
#113=VECTOR('',#1029,1.);
#114=VECTOR('',#1030,1.);
#115=VECTOR('',#1031,1.);
#116=VECTOR('',#1032,1.);
#117=VECTOR('',#1037,1.);
#118=VECTOR('',#1038,1.);
#119=VECTOR('',#1039,1.);
#120=VECTOR('',#1040,1.);
#121=VECTOR('',#1043,1.);
#122=VECTOR('',#1044,1.);
#123=VECTOR('',#1045,1.);
#124=VECTOR('',#1046,1.);
#125=VECTOR('',#1047,1.);
#126=VECTOR('',#1048,1.);
#127=VECTOR('',#1051,1.);
#128=VECTOR('',#1052,1.);
#129=VECTOR('',#1053,1.);
#130=VECTOR('',#1054,1.);
#131=VECTOR('',#1055,1.);
#132=VECTOR('',#1058,1.);
#133=VECTOR('',#1059,1.);
#134=VECTOR('',#1060,1.);
#135=VECTOR('',#1061,1.);
#136=VECTOR('',#1062,1.);
#137=VECTOR('',#1063,1.);
#138=VECTOR('',#1066,1.);
#139=VECTOR('',#1069,1.);
#140=VECTOR('',#1074,1.);
#141=VECTOR('',#1075,1.);
#142=VECTOR('',#1076,1.);
#143=VECTOR('',#1079,1.);
#144=VECTOR('',#1086,1.);
#145=VECTOR('',#1087,1.);
#146=VECTOR('',#1088,1.);
#147=VECTOR('',#1091,1.);
#148=VECTOR('',#1098,1.);
#149=VECTOR('',#1099,1.);
#150=VECTOR('',#1100,1.);
#151=VECTOR('',#1103,1.);
#152=VECTOR('',#1110,1.);
#153=VECTOR('',#1111,1.);
#154=VECTOR('',#1112,1.);
#155=VECTOR('',#1113,1.);
#156=VECTOR('',#1114,1.);
#157=VECTOR('',#1115,1.);
#158=VECTOR('',#1118,1.);
#159=VECTOR('',#1119,1.);
#160=VECTOR('',#1120,1.);
#161=VECTOR('',#1125,1.);
#162=VECTOR('',#1126,1.);
#163=VECTOR('',#1133,1.);
#164=VECTOR('',#1136,1.);
#165=VECTOR('',#1137,1.);
#166=VECTOR('',#1138,1.);
#167=VECTOR('',#1141,1.);
#168=VECTOR('',#1148,1.);
#169=VECTOR('',#1149,1.);
#170=VECTOR('',#1156,1.);
#171=VECTOR('',#1157,1.);
#172=VECTOR('',#1160,1.);
#173=VECTOR('',#1161,1.);
#174=VECTOR('',#1168,1.);
#175=VECTOR('',#1171,1.);
#176=VECTOR('',#1172,1.);
#177=VECTOR('',#1173,1.);
#178=VECTOR('',#1174,1.);
#179=VECTOR('',#1175,1.);
#180=VECTOR('',#1176,1.);
#181=VECTOR('',#1179,1.);
#182=VECTOR('',#1180,1.);
#183=VECTOR('',#1181,1.);
#184=VECTOR('',#1184,1.);
#185=VECTOR('',#1185,1.);
#186=VECTOR('',#1188,1.);
#187=VECTOR('',#1189,1.);
#188=VECTOR('',#1192,1.);
#189=VECTOR('',#1209,1.);
#190=ORIENTED_EDGE('',*,*,#416,.F.);
#191=ORIENTED_EDGE('',*,*,#417,.F.);
#192=ORIENTED_EDGE('',*,*,#418,.T.);
#193=ORIENTED_EDGE('',*,*,#419,.F.);
#194=ORIENTED_EDGE('',*,*,#420,.T.);
#195=ORIENTED_EDGE('',*,*,#421,.F.);
#196=ORIENTED_EDGE('',*,*,#422,.F.);
#197=ORIENTED_EDGE('',*,*,#423,.F.);
#198=ORIENTED_EDGE('',*,*,#424,.T.);
#199=ORIENTED_EDGE('',*,*,#425,.T.);
#200=ORIENTED_EDGE('',*,*,#426,.F.);
#201=ORIENTED_EDGE('',*,*,#427,.T.);
#202=ORIENTED_EDGE('',*,*,#428,.T.);
#203=ORIENTED_EDGE('',*,*,#429,.T.);
#204=ORIENTED_EDGE('',*,*,#430,.F.);
#205=ORIENTED_EDGE('',*,*,#431,.F.);
#206=ORIENTED_EDGE('',*,*,#432,.T.);
#207=ORIENTED_EDGE('',*,*,#428,.F.);
#208=ORIENTED_EDGE('',*,*,#433,.F.);
#209=ORIENTED_EDGE('',*,*,#434,.T.);
#210=ORIENTED_EDGE('',*,*,#435,.T.);
#211=ORIENTED_EDGE('',*,*,#418,.F.);
#212=ORIENTED_EDGE('',*,*,#436,.F.);
#213=ORIENTED_EDGE('',*,*,#437,.F.);
#214=ORIENTED_EDGE('',*,*,#438,.F.);
#215=ORIENTED_EDGE('',*,*,#439,.T.);
#216=ORIENTED_EDGE('',*,*,#424,.F.);
#217=ORIENTED_EDGE('',*,*,#440,.F.);
#218=ORIENTED_EDGE('',*,*,#441,.T.);
#219=ORIENTED_EDGE('',*,*,#433,.T.);
#220=ORIENTED_EDGE('',*,*,#427,.F.);
#221=ORIENTED_EDGE('',*,*,#442,.F.);
#222=ORIENTED_EDGE('',*,*,#443,.F.);
#223=ORIENTED_EDGE('',*,*,#444,.T.);
#224=ORIENTED_EDGE('',*,*,#419,.T.);
#225=ORIENTED_EDGE('',*,*,#435,.F.);
#226=ORIENTED_EDGE('',*,*,#445,.F.);
#227=ORIENTED_EDGE('',*,*,#446,.T.);
#228=ORIENTED_EDGE('',*,*,#447,.T.);
#229=ORIENTED_EDGE('',*,*,#448,.T.);
#230=ORIENTED_EDGE('',*,*,#449,.F.);
#231=ORIENTED_EDGE('',*,*,#450,.F.);
#232=ORIENTED_EDGE('',*,*,#451,.T.);
#233=ORIENTED_EDGE('',*,*,#452,.T.);
#234=ORIENTED_EDGE('',*,*,#453,.T.);
#235=ORIENTED_EDGE('',*,*,#448,.F.);
#236=ORIENTED_EDGE('',*,*,#454,.F.);
#237=ORIENTED_EDGE('',*,*,#455,.T.);
#238=ORIENTED_EDGE('',*,*,#456,.F.);
#239=ORIENTED_EDGE('',*,*,#452,.F.);
#240=ORIENTED_EDGE('',*,*,#457,.T.);
#241=ORIENTED_EDGE('',*,*,#458,.T.);
#242=ORIENTED_EDGE('',*,*,#459,.F.);
#243=ORIENTED_EDGE('',*,*,#455,.F.);
#244=ORIENTED_EDGE('',*,*,#460,.T.);
#245=ORIENTED_EDGE('',*,*,#461,.T.);
#246=ORIENTED_EDGE('',*,*,#462,.F.);
#247=ORIENTED_EDGE('',*,*,#458,.F.);
#248=ORIENTED_EDGE('',*,*,#463,.T.);
#249=ORIENTED_EDGE('',*,*,#464,.T.);
#250=ORIENTED_EDGE('',*,*,#465,.F.);
#251=ORIENTED_EDGE('',*,*,#461,.F.);
#252=ORIENTED_EDGE('',*,*,#466,.T.);
#253=ORIENTED_EDGE('',*,*,#467,.T.);
#254=ORIENTED_EDGE('',*,*,#468,.F.);
#255=ORIENTED_EDGE('',*,*,#464,.F.);
#256=ORIENTED_EDGE('',*,*,#469,.T.);
#257=ORIENTED_EDGE('',*,*,#470,.T.);
#258=ORIENTED_EDGE('',*,*,#467,.F.);
#259=ORIENTED_EDGE('',*,*,#471,.F.);
#260=ORIENTED_EDGE('',*,*,#450,.T.);
#261=ORIENTED_EDGE('',*,*,#472,.T.);
#262=ORIENTED_EDGE('',*,*,#473,.F.);
#263=ORIENTED_EDGE('',*,*,#474,.F.);
#264=ORIENTED_EDGE('',*,*,#475,.T.);
#265=ORIENTED_EDGE('',*,*,#447,.F.);
#266=ORIENTED_EDGE('',*,*,#476,.F.);
#267=ORIENTED_EDGE('',*,*,#477,.T.);
#268=ORIENTED_EDGE('',*,*,#478,.F.);
#269=ORIENTED_EDGE('',*,*,#479,.F.);
#270=ORIENTED_EDGE('',*,*,#417,.T.);
#271=ORIENTED_EDGE('',*,*,#480,.F.);
#272=ORIENTED_EDGE('',*,*,#481,.F.);
#273=ORIENTED_EDGE('',*,*,#436,.T.);
#274=ORIENTED_EDGE('',*,*,#482,.F.);
#275=ORIENTED_EDGE('',*,*,#416,.T.);
#276=ORIENTED_EDGE('',*,*,#420,.F.);
#277=ORIENTED_EDGE('',*,*,#444,.F.);
#278=ORIENTED_EDGE('',*,*,#483,.T.);
#279=ORIENTED_EDGE('',*,*,#480,.T.);
#280=ORIENTED_EDGE('',*,*,#477,.F.);
#281=ORIENTED_EDGE('',*,*,#484,.F.);
#282=ORIENTED_EDGE('',*,*,#485,.T.);
#283=ORIENTED_EDGE('',*,*,#486,.T.);
#284=ORIENTED_EDGE('',*,*,#478,.T.);
#285=ORIENTED_EDGE('',*,*,#486,.F.);
#286=ORIENTED_EDGE('',*,*,#487,.F.);
#287=ORIENTED_EDGE('',*,*,#442,.T.);
#288=ORIENTED_EDGE('',*,*,#488,.F.);
#289=ORIENTED_EDGE('',*,*,#479,.T.);
#290=ORIENTED_EDGE('',*,*,#425,.F.);
#291=ORIENTED_EDGE('',*,*,#439,.F.);
#292=ORIENTED_EDGE('',*,*,#489,.T.);
#293=ORIENTED_EDGE('',*,*,#490,.T.);
#294=ORIENTED_EDGE('',*,*,#491,.F.);
#295=ORIENTED_EDGE('',*,*,#421,.T.);
#296=ORIENTED_EDGE('',*,*,#422,.T.);
#297=ORIENTED_EDGE('',*,*,#490,.F.);
#298=ORIENTED_EDGE('',*,*,#492,.F.);
#299=ORIENTED_EDGE('',*,*,#493,.T.);
#300=ORIENTED_EDGE('',*,*,#429,.F.);
#301=ORIENTED_EDGE('',*,*,#432,.F.);
#302=ORIENTED_EDGE('',*,*,#494,.T.);
#303=ORIENTED_EDGE('',*,*,#495,.T.);
#304=ORIENTED_EDGE('',*,*,#496,.F.);
#305=ORIENTED_EDGE('',*,*,#426,.T.);
#306=ORIENTED_EDGE('',*,*,#430,.T.);
#307=ORIENTED_EDGE('',*,*,#495,.F.);
#308=ORIENTED_EDGE('',*,*,#497,.F.);
#309=ORIENTED_EDGE('',*,*,#437,.T.);
#310=ORIENTED_EDGE('',*,*,#498,.T.);
#311=ORIENTED_EDGE('',*,*,#499,.F.);
#312=ORIENTED_EDGE('',*,*,#500,.F.);
#313=ORIENTED_EDGE('',*,*,#501,.T.);
#314=ORIENTED_EDGE('',*,*,#502,.T.);
#315=ORIENTED_EDGE('',*,*,#484,.T.);
#316=ORIENTED_EDGE('',*,*,#503,.F.);
#317=ORIENTED_EDGE('',*,*,#493,.F.);
#318=ORIENTED_EDGE('',*,*,#498,.F.);
#319=ORIENTED_EDGE('',*,*,#504,.F.);
#320=ORIENTED_EDGE('',*,*,#505,.T.);
#321=ORIENTED_EDGE('',*,*,#506,.T.);
#322=ORIENTED_EDGE('',*,*,#499,.T.);
#323=ORIENTED_EDGE('',*,*,#506,.F.);
#324=ORIENTED_EDGE('',*,*,#507,.F.);
#325=ORIENTED_EDGE('',*,*,#508,.T.);
#326=ORIENTED_EDGE('',*,*,#500,.T.);
#327=ORIENTED_EDGE('',*,*,#508,.F.);
#328=ORIENTED_EDGE('',*,*,#509,.F.);
#329=ORIENTED_EDGE('',*,*,#510,.T.);
#330=ORIENTED_EDGE('',*,*,#501,.F.);
#331=ORIENTED_EDGE('',*,*,#510,.F.);
#332=ORIENTED_EDGE('',*,*,#511,.T.);
#333=ORIENTED_EDGE('',*,*,#504,.T.);
#334=ORIENTED_EDGE('',*,*,#505,.F.);
#335=ORIENTED_EDGE('',*,*,#511,.F.);
#336=ORIENTED_EDGE('',*,*,#509,.T.);
#337=ORIENTED_EDGE('',*,*,#507,.T.);
#338=ORIENTED_EDGE('',*,*,#473,.T.);
#339=ORIENTED_EDGE('',*,*,#472,.F.);
#340=ORIENTED_EDGE('',*,*,#475,.F.);
#341=ORIENTED_EDGE('',*,*,#474,.T.);
#342=ORIENTED_EDGE('',*,*,#494,.F.);
#343=ORIENTED_EDGE('',*,*,#431,.T.);
#344=ORIENTED_EDGE('',*,*,#481,.T.);
#345=ORIENTED_EDGE('',*,*,#483,.F.);
#346=ORIENTED_EDGE('',*,*,#443,.T.);
#347=ORIENTED_EDGE('',*,*,#487,.T.);
#348=ORIENTED_EDGE('',*,*,#485,.F.);
#349=ORIENTED_EDGE('',*,*,#502,.F.);
#350=ORIENTED_EDGE('',*,*,#492,.T.);
#351=ORIENTED_EDGE('',*,*,#489,.F.);
#352=ORIENTED_EDGE('',*,*,#438,.T.);
#353=ORIENTED_EDGE('',*,*,#497,.T.);
#354=ORIENTED_EDGE('',*,*,#496,.T.);
#355=ORIENTED_EDGE('',*,*,#491,.T.);
#356=ORIENTED_EDGE('',*,*,#488,.T.);
#357=ORIENTED_EDGE('',*,*,#482,.T.);
#358=ORIENTED_EDGE('',*,*,#469,.F.);
#359=ORIENTED_EDGE('',*,*,#466,.F.);
#360=ORIENTED_EDGE('',*,*,#463,.F.);
#361=ORIENTED_EDGE('',*,*,#460,.F.);
#362=ORIENTED_EDGE('',*,*,#457,.F.);
#363=ORIENTED_EDGE('',*,*,#454,.T.);
#364=ORIENTED_EDGE('',*,*,#451,.F.);
#365=ORIENTED_EDGE('',*,*,#471,.T.);
#366=ORIENTED_EDGE('',*,*,#423,.T.);
#367=ORIENTED_EDGE('',*,*,#503,.T.);
#368=ORIENTED_EDGE('',*,*,#476,.T.);
#369=ORIENTED_EDGE('',*,*,#446,.F.);
#370=ORIENTED_EDGE('',*,*,#512,.F.);
#371=ORIENTED_EDGE('',*,*,#440,.T.);
#372=ORIENTED_EDGE('',*,*,#468,.T.);
#373=ORIENTED_EDGE('',*,*,#470,.F.);
#374=ORIENTED_EDGE('',*,*,#449,.T.);
#375=ORIENTED_EDGE('',*,*,#453,.F.);
#376=ORIENTED_EDGE('',*,*,#456,.T.);
#377=ORIENTED_EDGE('',*,*,#459,.T.);
#378=ORIENTED_EDGE('',*,*,#462,.T.);
#379=ORIENTED_EDGE('',*,*,#465,.T.);
#380=ORIENTED_EDGE('',*,*,#434,.F.);
#381=ORIENTED_EDGE('',*,*,#441,.F.);
#382=ORIENTED_EDGE('',*,*,#512,.T.);
#383=ORIENTED_EDGE('',*,*,#445,.T.);
#384=ORIENTED_EDGE('',*,*,#513,.F.);
#385=ORIENTED_EDGE('',*,*,#514,.F.);
#386=ORIENTED_EDGE('',*,*,#515,.F.);
#387=ORIENTED_EDGE('',*,*,#516,.F.);
#388=ORIENTED_EDGE('',*,*,#517,.F.);
#389=ORIENTED_EDGE('',*,*,#518,.F.);
#390=ORIENTED_EDGE('',*,*,#519,.F.);
#391=ORIENTED_EDGE('',*,*,#520,.F.);
#392=ORIENTED_EDGE('',*,*,#521,.T.);
#393=ORIENTED_EDGE('',*,*,#521,.F.);
#394=ORIENTED_EDGE('',*,*,#513,.T.);
#395=ORIENTED_EDGE('',*,*,#522,.T.);
#396=ORIENTED_EDGE('',*,*,#522,.F.);
#397=ORIENTED_EDGE('',*,*,#514,.T.);
#398=ORIENTED_EDGE('',*,*,#523,.T.);
#399=ORIENTED_EDGE('',*,*,#523,.F.);
#400=ORIENTED_EDGE('',*,*,#515,.T.);
#401=ORIENTED_EDGE('',*,*,#524,.T.);
#402=ORIENTED_EDGE('',*,*,#524,.F.);
#403=ORIENTED_EDGE('',*,*,#516,.T.);
#404=ORIENTED_EDGE('',*,*,#525,.T.);
#405=ORIENTED_EDGE('',*,*,#525,.F.);
#406=ORIENTED_EDGE('',*,*,#517,.T.);
#407=ORIENTED_EDGE('',*,*,#526,.T.);
#408=ORIENTED_EDGE('',*,*,#526,.F.);
#409=ORIENTED_EDGE('',*,*,#518,.T.);
#410=ORIENTED_EDGE('',*,*,#527,.T.);
#411=ORIENTED_EDGE('',*,*,#527,.F.);
#412=ORIENTED_EDGE('',*,*,#519,.T.);
#413=ORIENTED_EDGE('',*,*,#528,.T.);
#414=ORIENTED_EDGE('',*,*,#528,.F.);
#415=ORIENTED_EDGE('',*,*,#520,.T.);
#416=EDGE_CURVE('',#529,#529,#613,.T.);
#417=EDGE_CURVE('',#530,#531,#28,.T.);
#418=EDGE_CURVE('',#530,#532,#29,.T.);
#419=EDGE_CURVE('',#533,#532,#30,.T.);
#420=EDGE_CURVE('',#533,#531,#31,.T.);
#421=EDGE_CURVE('',#534,#534,#614,.T.);
#422=EDGE_CURVE('',#535,#536,#32,.T.);
#423=EDGE_CURVE('',#537,#535,#33,.T.);
#424=EDGE_CURVE('',#537,#538,#34,.T.);
#425=EDGE_CURVE('',#538,#536,#35,.T.);
#426=EDGE_CURVE('',#539,#539,#615,.T.);
#427=EDGE_CURVE('',#540,#541,#36,.T.);
#428=EDGE_CURVE('',#541,#542,#37,.T.);
#429=EDGE_CURVE('',#542,#543,#38,.T.);
#430=EDGE_CURVE('',#540,#543,#39,.T.);
#431=EDGE_CURVE('',#544,#545,#40,.T.);
#432=EDGE_CURVE('',#544,#542,#41,.T.);
#433=EDGE_CURVE('',#546,#541,#42,.T.);
#434=EDGE_CURVE('',#546,#547,#43,.T.);
#435=EDGE_CURVE('',#547,#532,#44,.T.);
#436=EDGE_CURVE('',#545,#530,#45,.T.);
#437=EDGE_CURVE('',#548,#540,#46,.T.);
#438=EDGE_CURVE('',#549,#548,#47,.T.);
#439=EDGE_CURVE('',#549,#538,#48,.T.);
#440=EDGE_CURVE('',#550,#537,#49,.T.);
#441=EDGE_CURVE('',#550,#546,#50,.T.);
#442=EDGE_CURVE('',#551,#552,#51,.T.);
#443=EDGE_CURVE('',#553,#551,#52,.T.);
#444=EDGE_CURVE('',#553,#533,#53,.T.);
#445=EDGE_CURVE('',#554,#547,#54,.T.);
#446=EDGE_CURVE('',#554,#555,#55,.T.);
#447=EDGE_CURVE('',#555,#552,#56,.T.);
#448=EDGE_CURVE('',#556,#557,#57,.T.);
#449=EDGE_CURVE('',#558,#557,#616,.T.);
#450=EDGE_CURVE('',#559,#558,#58,.T.);
#451=EDGE_CURVE('',#559,#556,#617,.T.);
#452=EDGE_CURVE('',#560,#561,#59,.T.);
#453=EDGE_CURVE('',#561,#557,#60,.T.);
#454=EDGE_CURVE('',#560,#556,#61,.T.);
#455=EDGE_CURVE('',#562,#563,#62,.T.);
#456=EDGE_CURVE('',#561,#563,#618,.T.);
#457=EDGE_CURVE('',#560,#562,#619,.T.);
#458=EDGE_CURVE('',#564,#565,#63,.T.);
#459=EDGE_CURVE('',#563,#565,#64,.T.);
#460=EDGE_CURVE('',#562,#564,#65,.T.);
#461=EDGE_CURVE('',#566,#567,#66,.T.);
#462=EDGE_CURVE('',#565,#567,#620,.T.);
#463=EDGE_CURVE('',#564,#566,#621,.T.);
#464=EDGE_CURVE('',#568,#569,#67,.T.);
#465=EDGE_CURVE('',#567,#569,#68,.T.);
#466=EDGE_CURVE('',#566,#568,#69,.T.);
#467=EDGE_CURVE('',#570,#571,#70,.T.);
#468=EDGE_CURVE('',#569,#571,#622,.T.);
#469=EDGE_CURVE('',#568,#570,#623,.T.);
#470=EDGE_CURVE('',#558,#571,#71,.T.);
#471=EDGE_CURVE('',#559,#570,#72,.T.);
#472=EDGE_CURVE('',#572,#573,#73,.T.);
#473=EDGE_CURVE('',#574,#573,#74,.T.);
#474=EDGE_CURVE('',#575,#574,#75,.T.);
#475=EDGE_CURVE('',#575,#572,#76,.T.);
#476=EDGE_CURVE('',#576,#555,#77,.T.);
#477=EDGE_CURVE('',#576,#577,#78,.T.);
#478=EDGE_CURVE('',#552,#577,#79,.T.);
#479=EDGE_CURVE('',#578,#578,#624,.T.);
#480=EDGE_CURVE('',#579,#531,#80,.T.);
#481=EDGE_CURVE('',#545,#579,#81,.T.);
#482=EDGE_CURVE('',#580,#580,#625,.T.);
#483=EDGE_CURVE('',#553,#579,#82,.T.);
#484=EDGE_CURVE('',#581,#576,#83,.T.);
#485=EDGE_CURVE('',#581,#582,#84,.T.);
#486=EDGE_CURVE('',#582,#577,#85,.T.);
#487=EDGE_CURVE('',#551,#582,#86,.T.);
#488=EDGE_CURVE('',#583,#583,#626,.T.);
#489=EDGE_CURVE('',#549,#584,#87,.T.);
#490=EDGE_CURVE('',#584,#536,#88,.T.);
#491=EDGE_CURVE('',#585,#585,#627,.T.);
#492=EDGE_CURVE('',#586,#584,#89,.T.);
#493=EDGE_CURVE('',#586,#535,#90,.T.);
#494=EDGE_CURVE('',#544,#587,#91,.T.);
#495=EDGE_CURVE('',#587,#543,#92,.T.);
#496=EDGE_CURVE('',#588,#588,#628,.T.);
#497=EDGE_CURVE('',#548,#587,#93,.T.);
#498=EDGE_CURVE('',#589,#590,#94,.T.);
#499=EDGE_CURVE('',#591,#590,#95,.T.);
#500=EDGE_CURVE('',#592,#591,#96,.T.);
#501=EDGE_CURVE('',#592,#589,#97,.T.);
#502=EDGE_CURVE('',#586,#581,#98,.T.);
#503=EDGE_CURVE('',#535,#576,#99,.T.);
#504=EDGE_CURVE('',#593,#589,#100,.T.);
#505=EDGE_CURVE('',#593,#594,#101,.T.);
#506=EDGE_CURVE('',#594,#590,#102,.T.);
#507=EDGE_CURVE('',#595,#594,#103,.T.);
#508=EDGE_CURVE('',#595,#591,#104,.T.);
#509=EDGE_CURVE('',#596,#595,#105,.T.);
#510=EDGE_CURVE('',#596,#592,#106,.T.);
#511=EDGE_CURVE('',#596,#593,#107,.T.);
#512=EDGE_CURVE('',#550,#554,#108,.T.);
#513=EDGE_CURVE('',#597,#597,#629,.T.);
#514=EDGE_CURVE('',#598,#598,#630,.T.);
#515=EDGE_CURVE('',#599,#599,#631,.T.);
#516=EDGE_CURVE('',#600,#600,#632,.T.);
#517=EDGE_CURVE('',#601,#601,#633,.T.);
#518=EDGE_CURVE('',#602,#602,#634,.T.);
#519=EDGE_CURVE('',#603,#603,#635,.T.);
#520=EDGE_CURVE('',#604,#604,#636,.T.);
#521=EDGE_CURVE('',#605,#605,#637,.T.);
#522=EDGE_CURVE('',#606,#606,#638,.T.);
#523=EDGE_CURVE('',#607,#607,#639,.T.);
#524=EDGE_CURVE('',#608,#608,#640,.T.);
#525=EDGE_CURVE('',#609,#609,#641,.T.);
#526=EDGE_CURVE('',#610,#610,#642,.T.);
#527=EDGE_CURVE('',#611,#611,#643,.T.);
#528=EDGE_CURVE('',#612,#612,#644,.T.);
#529=VERTEX_POINT('',#1279);
#530=VERTEX_POINT('',#1281);
#531=VERTEX_POINT('',#1282);
#532=VERTEX_POINT('',#1284);
#533=VERTEX_POINT('',#1286);
#534=VERTEX_POINT('',#1290);
#535=VERTEX_POINT('',#1292);
#536=VERTEX_POINT('',#1293);
#537=VERTEX_POINT('',#1295);
#538=VERTEX_POINT('',#1297);
#539=VERTEX_POINT('',#1301);
#540=VERTEX_POINT('',#1303);
#541=VERTEX_POINT('',#1304);
#542=VERTEX_POINT('',#1306);
#543=VERTEX_POINT('',#1308);
#544=VERTEX_POINT('',#1312);
#545=VERTEX_POINT('',#1313);
#546=VERTEX_POINT('',#1316);
#547=VERTEX_POINT('',#1318);
#548=VERTEX_POINT('',#1323);
#549=VERTEX_POINT('',#1325);
#550=VERTEX_POINT('',#1328);
#551=VERTEX_POINT('',#1332);
#552=VERTEX_POINT('',#1333);
#553=VERTEX_POINT('',#1335);
#554=VERTEX_POINT('',#1338);
#555=VERTEX_POINT('',#1340);
#556=VERTEX_POINT('',#1344);
#557=VERTEX_POINT('',#1345);
#558=VERTEX_POINT('',#1347);
#559=VERTEX_POINT('',#1349);
#560=VERTEX_POINT('',#1353);
#561=VERTEX_POINT('',#1354);
#562=VERTEX_POINT('',#1359);
#563=VERTEX_POINT('',#1360);
#564=VERTEX_POINT('',#1365);
#565=VERTEX_POINT('',#1366);
#566=VERTEX_POINT('',#1371);
#567=VERTEX_POINT('',#1372);
#568=VERTEX_POINT('',#1377);
#569=VERTEX_POINT('',#1378);
#570=VERTEX_POINT('',#1383);
#571=VERTEX_POINT('',#1384);
#572=VERTEX_POINT('',#1391);
#573=VERTEX_POINT('',#1392);
#574=VERTEX_POINT('',#1394);
#575=VERTEX_POINT('',#1396);
#576=VERTEX_POINT('',#1400);
#577=VERTEX_POINT('',#1402);
#578=VERTEX_POINT('',#1405);
#579=VERTEX_POINT('',#1408);
#580=VERTEX_POINT('',#1412);
#581=VERTEX_POINT('',#1417);
#582=VERTEX_POINT('',#1419);
#583=VERTEX_POINT('',#1425);
#584=VERTEX_POINT('',#1428);
#585=VERTEX_POINT('',#1432);
#586=VERTEX_POINT('',#1435);
#587=VERTEX_POINT('',#1439);
#588=VERTEX_POINT('',#1443);
#589=VERTEX_POINT('',#1448);
#590=VERTEX_POINT('',#1449);
#591=VERTEX_POINT('',#1451);
#592=VERTEX_POINT('',#1453);
#593=VERTEX_POINT('',#1459);
#594=VERTEX_POINT('',#1461);
#595=VERTEX_POINT('',#1465);
#596=VERTEX_POINT('',#1469);
#597=VERTEX_POINT('',#1484);
#598=VERTEX_POINT('',#1486);
#599=VERTEX_POINT('',#1488);
#600=VERTEX_POINT('',#1490);
#601=VERTEX_POINT('',#1492);
#602=VERTEX_POINT('',#1494);
#603=VERTEX_POINT('',#1496);
#604=VERTEX_POINT('',#1498);
#605=VERTEX_POINT('',#1501);
#606=VERTEX_POINT('',#1505);
#607=VERTEX_POINT('',#1509);
#608=VERTEX_POINT('',#1513);
#609=VERTEX_POINT('',#1517);
#610=VERTEX_POINT('',#1521);
#611=VERTEX_POINT('',#1525);
#612=VERTEX_POINT('',#1529);
#613=CIRCLE('',#927,0.0011);
#614=CIRCLE('',#929,0.0011);
#615=CIRCLE('',#931,0.0011);
#616=CIRCLE('',#936,0.0025);
#617=CIRCLE('',#937,0.0025);
#618=CIRCLE('',#940,0.0025);
#619=CIRCLE('',#941,0.0025);
#620=CIRCLE('',#944,0.0025);
#621=CIRCLE('',#945,0.0025);
#622=CIRCLE('',#948,0.0025);
#623=CIRCLE('',#949,0.0025);
#624=CIRCLE('',#952,0.0011);
#625=CIRCLE('',#955,0.0011);
#626=CIRCLE('',#960,0.0011);
#627=CIRCLE('',#963,0.0011);
#628=CIRCLE('',#967,0.0011);
#629=CIRCLE('',#983,0.0016);
#630=CIRCLE('',#984,0.0016);
#631=CIRCLE('',#985,0.0016);
#632=CIRCLE('',#986,0.0016);
#633=CIRCLE('',#987,0.0016);
#634=CIRCLE('',#988,0.0016);
#635=CIRCLE('',#989,0.0016);
#636=CIRCLE('',#990,0.0016);
#637=CIRCLE('',#992,0.0016);
#638=CIRCLE('',#995,0.0016);
#639=CIRCLE('',#998,0.0016);
#640=CIRCLE('',#1001,0.0016);
#641=CIRCLE('',#1004,0.0016);
#642=CIRCLE('',#1007,0.0016);
#643=CIRCLE('',#1010,0.0016);
#644=CIRCLE('',#1013,0.0016);
#645=EDGE_LOOP('',(#190));
#646=EDGE_LOOP('',(#191,#192,#193,#194));
#647=EDGE_LOOP('',(#195));
#648=EDGE_LOOP('',(#196,#197,#198,#199));
#649=EDGE_LOOP('',(#200));
#650=EDGE_LOOP('',(#201,#202,#203,#204));
#651=EDGE_LOOP('',(#205,#206,#207,#208,#209,#210,#211,#212));
#652=EDGE_LOOP('',(#213,#214,#215,#216,#217,#218,#219,#220));
#653=EDGE_LOOP('',(#221,#222,#223,#224,#225,#226,#227,#228));
#654=EDGE_LOOP('',(#229,#230,#231,#232));
#655=EDGE_LOOP('',(#233,#234,#235,#236));
#656=EDGE_LOOP('',(#237,#238,#239,#240));
#657=EDGE_LOOP('',(#241,#242,#243,#244));
#658=EDGE_LOOP('',(#245,#246,#247,#248));
#659=EDGE_LOOP('',(#249,#250,#251,#252));
#660=EDGE_LOOP('',(#253,#254,#255,#256));
#661=EDGE_LOOP('',(#257,#258,#259,#260));
#662=EDGE_LOOP('',(#261,#262,#263,#264));
#663=EDGE_LOOP('',(#265,#266,#267,#268));
#664=EDGE_LOOP('',(#269));
#665=EDGE_LOOP('',(#270,#271,#272,#273));
#666=EDGE_LOOP('',(#274));
#667=EDGE_LOOP('',(#275));
#668=EDGE_LOOP('',(#276,#277,#278,#279));
#669=EDGE_LOOP('',(#280,#281,#282,#283));
#670=EDGE_LOOP('',(#284,#285,#286,#287));
#671=EDGE_LOOP('',(#288));
#672=EDGE_LOOP('',(#289));
#673=EDGE_LOOP('',(#290,#291,#292,#293));
#674=EDGE_LOOP('',(#294));
#675=EDGE_LOOP('',(#295));
#676=EDGE_LOOP('',(#296,#297,#298,#299));
#677=EDGE_LOOP('',(#300,#301,#302,#303));
#678=EDGE_LOOP('',(#304));
#679=EDGE_LOOP('',(#305));
#680=EDGE_LOOP('',(#306,#307,#308,#309));
#681=EDGE_LOOP('',(#310,#311,#312,#313));
#682=EDGE_LOOP('',(#314,#315,#316,#317));
#683=EDGE_LOOP('',(#318,#319,#320,#321));
#684=EDGE_LOOP('',(#322,#323,#324,#325));
#685=EDGE_LOOP('',(#326,#327,#328,#329));
#686=EDGE_LOOP('',(#330,#331,#332,#333));
#687=EDGE_LOOP('',(#334,#335,#336,#337));
#688=EDGE_LOOP('',(#338,#339,#340,#341));
#689=EDGE_LOOP('',(#342,#343,#344,#345,#346,#347,#348,#349,#350,#351,#352,
#353));
#690=EDGE_LOOP('',(#354));
#691=EDGE_LOOP('',(#355));
#692=EDGE_LOOP('',(#356));
#693=EDGE_LOOP('',(#357));
#694=EDGE_LOOP('',(#358,#359,#360,#361,#362,#363,#364,#365));
#695=EDGE_LOOP('',(#366,#367,#368,#369,#370,#371));
#696=EDGE_LOOP('',(#372,#373,#374,#375,#376,#377,#378,#379));
#697=EDGE_LOOP('',(#380,#381,#382,#383));
#698=EDGE_LOOP('',(#384));
#699=EDGE_LOOP('',(#385));
#700=EDGE_LOOP('',(#386));
#701=EDGE_LOOP('',(#387));
#702=EDGE_LOOP('',(#388));
#703=EDGE_LOOP('',(#389));
#704=EDGE_LOOP('',(#390));
#705=EDGE_LOOP('',(#391));
#706=EDGE_LOOP('',(#392));
#707=EDGE_LOOP('',(#393));
#708=EDGE_LOOP('',(#394));
#709=EDGE_LOOP('',(#395));
#710=EDGE_LOOP('',(#396));
#711=EDGE_LOOP('',(#397));
#712=EDGE_LOOP('',(#398));
#713=EDGE_LOOP('',(#399));
#714=EDGE_LOOP('',(#400));
#715=EDGE_LOOP('',(#401));
#716=EDGE_LOOP('',(#402));
#717=EDGE_LOOP('',(#403));
#718=EDGE_LOOP('',(#404));
#719=EDGE_LOOP('',(#405));
#720=EDGE_LOOP('',(#406));
#721=EDGE_LOOP('',(#407));
#722=EDGE_LOOP('',(#408));
#723=EDGE_LOOP('',(#409));
#724=EDGE_LOOP('',(#410));
#725=EDGE_LOOP('',(#411));
#726=EDGE_LOOP('',(#412));
#727=EDGE_LOOP('',(#413));
#728=EDGE_LOOP('',(#414));
#729=EDGE_LOOP('',(#415));
#730=FACE_BOUND('',#645,.T.);
#731=FACE_BOUND('',#646,.T.);
#732=FACE_BOUND('',#647,.T.);
#733=FACE_BOUND('',#648,.T.);
#734=FACE_BOUND('',#649,.T.);
#735=FACE_BOUND('',#650,.T.);
#736=FACE_BOUND('',#651,.T.);
#737=FACE_BOUND('',#652,.T.);
#738=FACE_BOUND('',#653,.T.);
#739=FACE_BOUND('',#654,.T.);
#740=FACE_BOUND('',#655,.T.);
#741=FACE_BOUND('',#656,.T.);
#742=FACE_BOUND('',#657,.T.);
#743=FACE_BOUND('',#658,.T.);
#744=FACE_BOUND('',#659,.T.);
#745=FACE_BOUND('',#660,.T.);
#746=FACE_BOUND('',#661,.T.);
#747=FACE_BOUND('',#662,.T.);
#748=FACE_BOUND('',#663,.T.);
#749=FACE_BOUND('',#664,.T.);
#750=FACE_BOUND('',#665,.T.);
#751=FACE_BOUND('',#666,.T.);
#752=FACE_BOUND('',#667,.T.);
#753=FACE_BOUND('',#668,.T.);
#754=FACE_BOUND('',#669,.T.);
#755=FACE_BOUND('',#670,.T.);
#756=FACE_BOUND('',#671,.T.);
#757=FACE_BOUND('',#672,.T.);
#758=FACE_BOUND('',#673,.T.);
#759=FACE_BOUND('',#674,.T.);
#760=FACE_BOUND('',#675,.T.);
#761=FACE_BOUND('',#676,.T.);
#762=FACE_BOUND('',#677,.T.);
#763=FACE_BOUND('',#678,.T.);
#764=FACE_BOUND('',#679,.T.);
#765=FACE_BOUND('',#680,.T.);
#766=FACE_BOUND('',#681,.T.);
#767=FACE_BOUND('',#682,.T.);
#768=FACE_BOUND('',#683,.T.);
#769=FACE_BOUND('',#684,.T.);
#770=FACE_BOUND('',#685,.T.);
#771=FACE_BOUND('',#686,.T.);
#772=FACE_BOUND('',#687,.T.);
#773=FACE_BOUND('',#688,.T.);
#774=FACE_BOUND('',#689,.T.);
#775=FACE_BOUND('',#690,.T.);
#776=FACE_BOUND('',#691,.T.);
#777=FACE_BOUND('',#692,.T.);
#778=FACE_BOUND('',#693,.T.);
#779=FACE_BOUND('',#694,.T.);
#780=FACE_BOUND('',#695,.T.);
#781=FACE_BOUND('',#696,.T.);
#782=FACE_BOUND('',#697,.T.);
#783=FACE_BOUND('',#698,.T.);
#784=FACE_BOUND('',#699,.T.);
#785=FACE_BOUND('',#700,.T.);
#786=FACE_BOUND('',#701,.T.);
#787=FACE_BOUND('',#702,.T.);
#788=FACE_BOUND('',#703,.T.);
#789=FACE_BOUND('',#704,.T.);
#790=FACE_BOUND('',#705,.T.);
#791=FACE_BOUND('',#706,.T.);
#792=FACE_BOUND('',#707,.T.);
#793=FACE_BOUND('',#708,.T.);
#794=FACE_BOUND('',#709,.T.);
#795=FACE_BOUND('',#710,.T.);
#796=FACE_BOUND('',#711,.T.);
#797=FACE_BOUND('',#712,.T.);
#798=FACE_BOUND('',#713,.T.);
#799=FACE_BOUND('',#714,.T.);
#800=FACE_BOUND('',#715,.T.);
#801=FACE_BOUND('',#716,.T.);
#802=FACE_BOUND('',#717,.T.);
#803=FACE_BOUND('',#718,.T.);
#804=FACE_BOUND('',#719,.T.);
#805=FACE_BOUND('',#720,.T.);
#806=FACE_BOUND('',#721,.T.);
#807=FACE_BOUND('',#722,.T.);
#808=FACE_BOUND('',#723,.T.);
#809=FACE_BOUND('',#724,.T.);
#810=FACE_BOUND('',#725,.T.);
#811=FACE_BOUND('',#726,.T.);
#812=FACE_BOUND('',#727,.T.);
#813=FACE_BOUND('',#728,.T.);
#814=FACE_BOUND('',#729,.T.);
#815=PLANE('',#926);
#816=PLANE('',#928);
#817=PLANE('',#930);
#818=PLANE('',#932);
#819=PLANE('',#933);
#820=PLANE('',#934);
#821=PLANE('',#938);
#822=PLANE('',#942);
#823=PLANE('',#946);
#824=PLANE('',#950);
#825=PLANE('',#951);
#826=PLANE('',#953);
#827=PLANE('',#956);
#828=PLANE('',#957);
#829=PLANE('',#958);
#830=PLANE('',#961);
#831=PLANE('',#964);
#832=PLANE('',#965);
#833=PLANE('',#968);
#834=PLANE('',#969);
#835=PLANE('',#970);
#836=PLANE('',#971);
#837=PLANE('',#972);
#838=PLANE('',#973);
#839=PLANE('',#974);
#840=PLANE('',#975);
#841=PLANE('',#976);
#842=PLANE('',#977);
#843=PLANE('',#978);
#844=PLANE('',#979);
#845=PLANE('',#980);
#846=PLANE('',#981);
#847=PLANE('',#982);
#848=PLANE('',#991);
#849=PLANE('',#994);
#850=PLANE('',#997);
#851=PLANE('',#1000);
#852=PLANE('',#1003);
#853=PLANE('',#1006);
#854=PLANE('',#1009);
#855=PLANE('',#1012);
#856=ADVANCED_FACE('',(#730,#731),#815,.T.);
#857=ADVANCED_FACE('',(#732,#733),#816,.T.);
#858=ADVANCED_FACE('',(#734,#735),#817,.T.);
#859=ADVANCED_FACE('',(#736),#818,.F.);
#860=ADVANCED_FACE('',(#737),#819,.F.);
#861=ADVANCED_FACE('',(#738),#820,.F.);
#862=ADVANCED_FACE('',(#739),#12,.T.);
#863=ADVANCED_FACE('',(#740),#821,.F.);
#864=ADVANCED_FACE('',(#741),#13,.T.);
#865=ADVANCED_FACE('',(#742),#822,.T.);
#866=ADVANCED_FACE('',(#743),#14,.T.);
#867=ADVANCED_FACE('',(#744),#823,.T.);
#868=ADVANCED_FACE('',(#745),#15,.T.);
#869=ADVANCED_FACE('',(#746,#747),#824,.F.);
#870=ADVANCED_FACE('',(#748,#749),#825,.T.);
#871=ADVANCED_FACE('',(#750),#826,.F.);
#872=ADVANCED_FACE('',(#751,#752),#16,.F.);
#873=ADVANCED_FACE('',(#753),#827,.T.);
#874=ADVANCED_FACE('',(#754),#828,.T.);
#875=ADVANCED_FACE('',(#755),#829,.F.);
#876=ADVANCED_FACE('',(#756,#757),#17,.F.);
#877=ADVANCED_FACE('',(#758),#830,.T.);
#878=ADVANCED_FACE('',(#759,#760),#18,.F.);
#879=ADVANCED_FACE('',(#761),#831,.F.);
#880=ADVANCED_FACE('',(#762),#832,.T.);
#881=ADVANCED_FACE('',(#763,#764),#19,.F.);
#882=ADVANCED_FACE('',(#765),#833,.F.);
#883=ADVANCED_FACE('',(#766,#767),#834,.T.);
#884=ADVANCED_FACE('',(#768),#835,.T.);
#885=ADVANCED_FACE('',(#769),#836,.F.);
#886=ADVANCED_FACE('',(#770),#837,.F.);
#887=ADVANCED_FACE('',(#771),#838,.T.);
#888=ADVANCED_FACE('',(#772,#773),#839,.F.);
#889=ADVANCED_FACE('',(#774),#840,.T.);
#890=ADVANCED_FACE('',(#775),#841,.T.);
#891=ADVANCED_FACE('',(#776),#842,.T.);
#892=ADVANCED_FACE('',(#777),#843,.T.);
#893=ADVANCED_FACE('',(#778),#844,.T.);
#894=ADVANCED_FACE('',(#779),#845,.F.);
#895=ADVANCED_FACE('',(#780),#846,.F.);
#896=ADVANCED_FACE('',(#781,#782,#783,#784,#785,#786,#787,#788,#789,#790),
#847,.T.);
#897=ADVANCED_FACE('',(#791),#848,.T.);
#898=ADVANCED_FACE('',(#792,#793),#20,.F.);
#899=ADVANCED_FACE('',(#794),#849,.T.);
#900=ADVANCED_FACE('',(#795,#796),#21,.F.);
#901=ADVANCED_FACE('',(#797),#850,.T.);
#902=ADVANCED_FACE('',(#798,#799),#22,.F.);
#903=ADVANCED_FACE('',(#800),#851,.T.);
#904=ADVANCED_FACE('',(#801,#802),#23,.F.);
#905=ADVANCED_FACE('',(#803),#852,.T.);
#906=ADVANCED_FACE('',(#804,#805),#24,.F.);
#907=ADVANCED_FACE('',(#806),#853,.T.);
#908=ADVANCED_FACE('',(#807,#808),#25,.F.);
#909=ADVANCED_FACE('',(#809),#854,.T.);
#910=ADVANCED_FACE('',(#810,#811),#26,.F.);
#911=ADVANCED_FACE('',(#812),#855,.T.);
#912=ADVANCED_FACE('',(#813,#814),#27,.F.);
#913=CLOSED_SHELL('',(#856,#857,#858,#859,#860,#861,#862,#863,#864,#865,
#866,#867,#868,#869,#870,#871,#872,#873,#874,#875,#876,#877,#878,#879,#880,
#881,#882,#883,#884,#885,#886,#887,#888,#889,#890,#891,#892,#893,#894,#895,
#896,#897,#898,#899,#900,#901,#902,#903,#904,#905,#906,#907,#908,#909,#910,
#911,#912));
#914=STYLED_ITEM('',(#915),#922);
#915=PRESENTATION_STYLE_ASSIGNMENT((#916));
#916=SURFACE_STYLE_USAGE(.BOTH.,#917);
#917=SURFACE_SIDE_STYLE('',(#918));
#918=SURFACE_STYLE_FILL_AREA(#919);
#919=FILL_AREA_STYLE('',(#920));
#920=FILL_AREA_STYLE_COLOUR('',#921);
#921=COLOUR_RGB('',0.615686274509804,0.811764705882353,0.929411764705882);
#922=MANIFOLD_SOLID_BREP('Part 1',#913);
#923=SHAPE_DEFINITION_REPRESENTATION(#1537,#924);
#924=SHAPE_REPRESENTATION('Part 1',(#925),#1532);
#925=AXIS2_PLACEMENT_3D('',#1276,#1015,#1016);
#926=AXIS2_PLACEMENT_3D('',#1277,#1017,#1018);
#927=AXIS2_PLACEMENT_3D('',#1278,#1019,#1020);
#928=AXIS2_PLACEMENT_3D('',#1288,#1025,#1026);
#929=AXIS2_PLACEMENT_3D('',#1289,#1027,#1028);
#930=AXIS2_PLACEMENT_3D('',#1299,#1033,#1034);
#931=AXIS2_PLACEMENT_3D('',#1300,#1035,#1036);
#932=AXIS2_PLACEMENT_3D('',#1310,#1041,#1042);
#933=AXIS2_PLACEMENT_3D('',#1321,#1049,#1050);
#934=AXIS2_PLACEMENT_3D('',#1330,#1056,#1057);
#935=AXIS2_PLACEMENT_3D('',#1342,#1064,#1065);
#936=AXIS2_PLACEMENT_3D('',#1346,#1067,#1068);
#937=AXIS2_PLACEMENT_3D('',#1350,#1070,#1071);
#938=AXIS2_PLACEMENT_3D('',#1351,#1072,#1073);
#939=AXIS2_PLACEMENT_3D('',#1357,#1077,#1078);
#940=AXIS2_PLACEMENT_3D('',#1361,#1080,#1081);
#941=AXIS2_PLACEMENT_3D('',#1362,#1082,#1083);
#942=AXIS2_PLACEMENT_3D('',#1363,#1084,#1085);
#943=AXIS2_PLACEMENT_3D('',#1369,#1089,#1090);
#944=AXIS2_PLACEMENT_3D('',#1373,#1092,#1093);
#945=AXIS2_PLACEMENT_3D('',#1374,#1094,#1095);
#946=AXIS2_PLACEMENT_3D('',#1375,#1096,#1097);
#947=AXIS2_PLACEMENT_3D('',#1381,#1101,#1102);
#948=AXIS2_PLACEMENT_3D('',#1385,#1104,#1105);
#949=AXIS2_PLACEMENT_3D('',#1386,#1106,#1107);
#950=AXIS2_PLACEMENT_3D('',#1387,#1108,#1109);
#951=AXIS2_PLACEMENT_3D('',#1398,#1116,#1117);
#952=AXIS2_PLACEMENT_3D('',#1404,#1121,#1122);
#953=AXIS2_PLACEMENT_3D('',#1406,#1123,#1124);
#954=AXIS2_PLACEMENT_3D('',#1410,#1127,#1128);
#955=AXIS2_PLACEMENT_3D('',#1411,#1129,#1130);
#956=AXIS2_PLACEMENT_3D('',#1413,#1131,#1132);
#957=AXIS2_PLACEMENT_3D('',#1415,#1134,#1135);
#958=AXIS2_PLACEMENT_3D('',#1421,#1139,#1140);
#959=AXIS2_PLACEMENT_3D('',#1423,#1142,#1143);
#960=AXIS2_PLACEMENT_3D('',#1424,#1144,#1145);
#961=AXIS2_PLACEMENT_3D('',#1426,#1146,#1147);
#962=AXIS2_PLACEMENT_3D('',#1430,#1150,#1151);
#963=AXIS2_PLACEMENT_3D('',#1431,#1152,#1153);
#964=AXIS2_PLACEMENT_3D('',#1433,#1154,#1155);
#965=AXIS2_PLACEMENT_3D('',#1437,#1158,#1159);
#966=AXIS2_PLACEMENT_3D('',#1441,#1162,#1163);
#967=AXIS2_PLACEMENT_3D('',#1442,#1164,#1165);
#968=AXIS2_PLACEMENT_3D('',#1444,#1166,#1167);
#969=AXIS2_PLACEMENT_3D('',#1446,#1169,#1170);
#970=AXIS2_PLACEMENT_3D('',#1457,#1177,#1178);
#971=AXIS2_PLACEMENT_3D('',#1463,#1182,#1183);
#972=AXIS2_PLACEMENT_3D('',#1467,#1186,#1187);
#973=AXIS2_PLACEMENT_3D('',#1471,#1190,#1191);
#974=AXIS2_PLACEMENT_3D('',#1473,#1193,#1194);
#975=AXIS2_PLACEMENT_3D('',#1474,#1195,#1196);
#976=AXIS2_PLACEMENT_3D('',#1475,#1197,#1198);
#977=AXIS2_PLACEMENT_3D('',#1476,#1199,#1200);
#978=AXIS2_PLACEMENT_3D('',#1477,#1201,#1202);
#979=AXIS2_PLACEMENT_3D('',#1478,#1203,#1204);
#980=AXIS2_PLACEMENT_3D('',#1479,#1205,#1206);
#981=AXIS2_PLACEMENT_3D('',#1480,#1207,#1208);
#982=AXIS2_PLACEMENT_3D('',#1482,#1210,#1211);
#983=AXIS2_PLACEMENT_3D('',#1483,#1212,#1213);
#984=AXIS2_PLACEMENT_3D('',#1485,#1214,#1215);
#985=AXIS2_PLACEMENT_3D('',#1487,#1216,#1217);
#986=AXIS2_PLACEMENT_3D('',#1489,#1218,#1219);
#987=AXIS2_PLACEMENT_3D('',#1491,#1220,#1221);
#988=AXIS2_PLACEMENT_3D('',#1493,#1222,#1223);
#989=AXIS2_PLACEMENT_3D('',#1495,#1224,#1225);
#990=AXIS2_PLACEMENT_3D('',#1497,#1226,#1227);
#991=AXIS2_PLACEMENT_3D('',#1499,#1228,#1229);
#992=AXIS2_PLACEMENT_3D('',#1500,#1230,#1231);
#993=AXIS2_PLACEMENT_3D('',#1502,#1232,#1233);
#994=AXIS2_PLACEMENT_3D('',#1503,#1234,#1235);
#995=AXIS2_PLACEMENT_3D('',#1504,#1236,#1237);
#996=AXIS2_PLACEMENT_3D('',#1506,#1238,#1239);
#997=AXIS2_PLACEMENT_3D('',#1507,#1240,#1241);
#998=AXIS2_PLACEMENT_3D('',#1508,#1242,#1243);
#999=AXIS2_PLACEMENT_3D('',#1510,#1244,#1245);
#1000=AXIS2_PLACEMENT_3D('',#1511,#1246,#1247);
#1001=AXIS2_PLACEMENT_3D('',#1512,#1248,#1249);
#1002=AXIS2_PLACEMENT_3D('',#1514,#1250,#1251);
#1003=AXIS2_PLACEMENT_3D('',#1515,#1252,#1253);
#1004=AXIS2_PLACEMENT_3D('',#1516,#1254,#1255);
#1005=AXIS2_PLACEMENT_3D('',#1518,#1256,#1257);
#1006=AXIS2_PLACEMENT_3D('',#1519,#1258,#1259);
#1007=AXIS2_PLACEMENT_3D('',#1520,#1260,#1261);
#1008=AXIS2_PLACEMENT_3D('',#1522,#1262,#1263);
#1009=AXIS2_PLACEMENT_3D('',#1523,#1264,#1265);
#1010=AXIS2_PLACEMENT_3D('',#1524,#1266,#1267);
#1011=AXIS2_PLACEMENT_3D('',#1526,#1268,#1269);
#1012=AXIS2_PLACEMENT_3D('',#1527,#1270,#1271);
#1013=AXIS2_PLACEMENT_3D('',#1528,#1272,#1273);
#1014=AXIS2_PLACEMENT_3D('',#1530,#1274,#1275);
#1015=DIRECTION('',(0.,0.,1.));
#1016=DIRECTION('',(1.,0.,0.));
#1017=DIRECTION('',(0.,0.,1.));
#1018=DIRECTION('',(1.,0.,0.));
#1019=DIRECTION('',(0.,0.,1.));
#1020=DIRECTION('',(1.,0.,0.));
#1021=DIRECTION('',(0.,1.,0.));
#1022=DIRECTION('',(1.,0.,0.));
#1023=DIRECTION('',(1.06752213906265E-15,-1.,0.));
#1024=DIRECTION('',(-1.,0.,0.));
#1025=DIRECTION('',(0.,0.,1.));
#1026=DIRECTION('',(1.,0.,0.));
#1027=DIRECTION('',(0.,0.,1.));
#1028=DIRECTION('',(1.,0.,0.));
#1029=DIRECTION('',(6.67201336914157E-17,-1.,0.));
#1030=DIRECTION('',(1.,0.,0.));
#1031=DIRECTION('',(5.55653613398821E-16,-1.,0.));
#1032=DIRECTION('',(1.,0.,0.));
#1033=DIRECTION('',(0.,0.,1.));
#1034=DIRECTION('',(1.,0.,0.));
#1035=DIRECTION('',(0.,0.,1.));
#1036=DIRECTION('',(1.,0.,0.));
#1037=DIRECTION('',(5.55653613398821E-16,-1.,0.));
#1038=DIRECTION('',(1.,0.,0.));
#1039=DIRECTION('',(-2.16840434497101E-16,1.,0.));
#1040=DIRECTION('',(1.,0.,0.));
#1041=DIRECTION('',(0.,-1.,0.));
#1042=DIRECTION('',(0.,0.,-1.));
#1043=DIRECTION('',(1.,0.,0.));
#1044=DIRECTION('',(0.,0.,1.));
#1045=DIRECTION('',(0.,0.,-1.));
#1046=DIRECTION('',(1.,0.,0.));
#1047=DIRECTION('',(0.,0.,-1.));
#1048=DIRECTION('',(0.,0.,1.));
#1049=DIRECTION('',(-1.,-5.55653613398821E-16,0.));
#1050=DIRECTION('',(5.55653613398821E-16,-1.,0.));
#1051=DIRECTION('',(0.,0.,1.));
#1052=DIRECTION('',(5.55653613398821E-16,-1.,0.));
#1053=DIRECTION('',(0.,0.,1.));
#1054=DIRECTION('',(0.,0.,-1.));
#1055=DIRECTION('',(5.55653613398821E-16,-1.,0.));
#1056=DIRECTION('',(1.,0.,0.));
#1057=DIRECTION('',(0.,0.,-1.));
#1058=DIRECTION('',(0.,0.,1.));
#1059=DIRECTION('',(0.,1.,0.));
#1060=DIRECTION('',(0.,0.,1.));
#1061=DIRECTION('',(1.06752213906265E-15,-1.,0.));
#1062=DIRECTION('',(0.,0.,-1.));
#1063=DIRECTION('',(1.06752213906265E-15,-1.,0.));
#1064=DIRECTION('',(0.,0.,1.));
#1065=DIRECTION('',(1.,0.,0.));
#1066=DIRECTION('',(0.,0.,1.));
#1067=DIRECTION('',(0.,0.,1.));
#1068=DIRECTION('',(-2.94902990916057E-15,1.,0.));
#1069=DIRECTION('',(0.,0.,1.));
#1070=DIRECTION('',(0.,0.,1.));
#1071=DIRECTION('',(-2.94902990916057E-15,1.,0.));
#1072=DIRECTION('',(1.,4.33680868994202E-16,0.));
#1073=DIRECTION('',(-4.33680868994202E-16,1.,0.));
#1074=DIRECTION('',(0.,0.,1.));
#1075=DIRECTION('',(-4.33680868994202E-16,1.,0.));
#1076=DIRECTION('',(-4.33680868994202E-16,1.,0.));
#1077=DIRECTION('',(0.,0.,1.));
#1078=DIRECTION('',(1.,0.,0.));
#1079=DIRECTION('',(0.,0.,1.));
#1080=DIRECTION('',(0.,0.,1.));
#1081=DIRECTION('',(-1.,-2.77555756156289E-15,0.));
#1082=DIRECTION('',(0.,0.,1.));
#1083=DIRECTION('',(-1.,-2.77555756156289E-15,0.));
#1084=DIRECTION('',(0.,-1.,0.));
#1085=DIRECTION('',(0.,0.,-1.));
#1086=DIRECTION('',(0.,0.,1.));
#1087=DIRECTION('',(1.,0.,0.));
#1088=DIRECTION('',(1.,0.,0.));
#1089=DIRECTION('',(0.,0.,1.));
#1090=DIRECTION('',(1.,0.,0.));
#1091=DIRECTION('',(0.,0.,1.));
#1092=DIRECTION('',(0.,0.,1.));
#1093=DIRECTION('',(0.,-1.,0.));
#1094=DIRECTION('',(0.,0.,1.));
#1095=DIRECTION('',(0.,-1.,0.));
#1096=DIRECTION('',(1.,0.,0.));
#1097=DIRECTION('',(0.,0.,-1.));
#1098=DIRECTION('',(0.,0.,1.));
#1099=DIRECTION('',(0.,1.,0.));
#1100=DIRECTION('',(0.,1.,0.));
#1101=DIRECTION('',(0.,0.,1.));
#1102=DIRECTION('',(1.,0.,0.));
#1103=DIRECTION('',(0.,0.,1.));
#1104=DIRECTION('',(0.,0.,1.));
#1105=DIRECTION('',(1.,0.,0.));
#1106=DIRECTION('',(0.,0.,1.));
#1107=DIRECTION('',(1.,0.,0.));
#1108=DIRECTION('',(0.,-1.,0.));
#1109=DIRECTION('',(0.,0.,-1.));
#1110=DIRECTION('',(1.,0.,0.));
#1111=DIRECTION('',(1.,0.,0.));
#1112=DIRECTION('',(0.,0.,1.));
#1113=DIRECTION('',(1.,0.,0.));
#1114=DIRECTION('',(0.,0.,1.));
#1115=DIRECTION('',(1.,0.,0.));
#1116=DIRECTION('',(0.,0.,1.));
#1117=DIRECTION('',(1.,0.,0.));
#1118=DIRECTION('',(1.,0.,0.));
#1119=DIRECTION('',(0.,-1.,0.));
#1120=DIRECTION('',(-1.,-4.95635278850516E-16,0.));
#1121=DIRECTION('',(0.,0.,1.));
#1122=DIRECTION('',(1.,0.,0.));
#1123=DIRECTION('',(1.,0.,0.));
#1124=DIRECTION('',(0.,0.,-1.));
#1125=DIRECTION('',(0.,0.,1.));
#1126=DIRECTION('',(0.,1.,0.));
#1127=DIRECTION('',(0.,0.,1.));
#1128=DIRECTION('',(1.,0.,0.));
#1129=DIRECTION('',(0.,0.,1.));
#1130=DIRECTION('',(1.,0.,0.));
#1131=DIRECTION('',(0.,1.,0.));
#1132=DIRECTION('',(0.,0.,1.));
#1133=DIRECTION('',(-1.,0.,0.));
#1134=DIRECTION('',(-1.,0.,0.));
#1135=DIRECTION('',(0.,0.,1.));
#1136=DIRECTION('',(0.,0.,1.));
#1137=DIRECTION('',(0.,-1.,0.));
#1138=DIRECTION('',(0.,0.,1.));
#1139=DIRECTION('',(-4.95635278850516E-16,1.,0.));
#1140=DIRECTION('',(-1.,-4.95635278850516E-16,0.));
#1141=DIRECTION('',(-1.,-4.95635278850516E-16,0.));
#1142=DIRECTION('',(0.,0.,1.));
#1143=DIRECTION('',(1.,0.,0.));
#1144=DIRECTION('',(0.,0.,1.));
#1145=DIRECTION('',(1.,0.,0.));
#1146=DIRECTION('',(0.,-1.,0.));
#1147=DIRECTION('',(0.,0.,-1.));
#1148=DIRECTION('',(1.,0.,0.));
#1149=DIRECTION('',(0.,0.,1.));
#1150=DIRECTION('',(0.,0.,1.));
#1151=DIRECTION('',(1.,0.,0.));
#1152=DIRECTION('',(0.,0.,1.));
#1153=DIRECTION('',(1.,0.,0.));
#1154=DIRECTION('',(-1.,-6.67201336914157E-17,0.));
#1155=DIRECTION('',(6.67201336914157E-17,-1.,0.));
#1156=DIRECTION('',(6.67201336914157E-17,-1.,0.));
#1157=DIRECTION('',(0.,0.,1.));
#1158=DIRECTION('',(1.,2.16840434497101E-16,0.));
#1159=DIRECTION('',(-2.16840434497101E-16,1.,0.));
#1160=DIRECTION('',(-2.16840434497101E-16,1.,0.));
#1161=DIRECTION('',(0.,0.,1.));
#1162=DIRECTION('',(0.,0.,1.));
#1163=DIRECTION('',(1.,0.,0.));
#1164=DIRECTION('',(0.,0.,1.));
#1165=DIRECTION('',(1.,0.,0.));
#1166=DIRECTION('',(0.,-1.,0.));
#1167=DIRECTION('',(0.,0.,-1.));
#1168=DIRECTION('',(1.,0.,0.));
#1169=DIRECTION('',(0.,-1.,0.));
#1170=DIRECTION('',(1.,0.,0.));
#1171=DIRECTION('',(-1.,0.,0.));
#1172=DIRECTION('',(5.78241158658936E-16,0.,-1.));
#1173=DIRECTION('',(-1.,0.,-7.22801448323669E-17));
#1174=DIRECTION('',(0.,0.,-1.));
#1175=DIRECTION('',(1.,0.,0.));
#1176=DIRECTION('',(1.,0.,0.));
#1177=DIRECTION('',(0.,0.,1.));
#1178=DIRECTION('',(1.,0.,0.));
#1179=DIRECTION('',(0.,-1.,0.));
#1180=DIRECTION('',(-1.,0.,0.));
#1181=DIRECTION('',(0.,-1.,0.));
#1182=DIRECTION('',(-1.,0.,-5.78241158658936E-16));
#1183=DIRECTION('',(-5.78241158658936E-16,0.,1.));
#1184=DIRECTION('',(5.78241158658936E-16,0.,-1.));
#1185=DIRECTION('',(0.,-1.,0.));
#1186=DIRECTION('',(-7.22801448323669E-17,0.,1.));
#1187=DIRECTION('',(1.,0.,7.22801448323669E-17));
#1188=DIRECTION('',(-1.,0.,-7.22801448323669E-17));
#1189=DIRECTION('',(0.,-1.,0.));
#1190=DIRECTION('',(-1.,0.,0.));
#1191=DIRECTION('',(0.,0.,1.));
#1192=DIRECTION('',(0.,0.,-1.));
#1193=DIRECTION('',(0.,-1.,0.));
#1194=DIRECTION('',(1.,0.,0.));
#1195=DIRECTION('',(0.,0.,1.));
#1196=DIRECTION('',(1.,0.,0.));
#1197=DIRECTION('',(0.,0.,1.));
#1198=DIRECTION('',(1.,0.,0.));
#1199=DIRECTION('',(0.,0.,1.));
#1200=DIRECTION('',(1.,0.,0.));
#1201=DIRECTION('',(0.,0.,1.));
#1202=DIRECTION('',(1.,0.,0.));
#1203=DIRECTION('',(0.,0.,1.));
#1204=DIRECTION('',(1.,0.,0.));
#1205=DIRECTION('',(0.,0.,1.));
#1206=DIRECTION('',(1.,0.,0.));
#1207=DIRECTION('',(0.,1.,0.));
#1208=DIRECTION('',(0.,0.,1.));
#1209=DIRECTION('',(1.,0.,0.));
#1210=DIRECTION('',(0.,0.,1.));
#1211=DIRECTION('',(1.,0.,0.));
#1212=DIRECTION('',(0.,0.,1.));
#1213=DIRECTION('',(1.,0.,0.));
#1214=DIRECTION('',(0.,0.,1.));
#1215=DIRECTION('',(1.,0.,0.));
#1216=DIRECTION('',(0.,0.,1.));
#1217=DIRECTION('',(1.,0.,0.));
#1218=DIRECTION('',(0.,0.,1.));
#1219=DIRECTION('',(1.,0.,0.));
#1220=DIRECTION('',(0.,0.,1.));
#1221=DIRECTION('',(0.,-1.,0.));
#1222=DIRECTION('',(0.,0.,1.));
#1223=DIRECTION('',(-1.,0.,0.));
#1224=DIRECTION('',(0.,0.,1.));
#1225=DIRECTION('',(2.71050543121376E-16,1.,0.));
#1226=DIRECTION('',(0.,0.,1.));
#1227=DIRECTION('',(1.,0.,0.));
#1228=DIRECTION('',(0.,0.,1.));
#1229=DIRECTION('',(1.,0.,0.));
#1230=DIRECTION('',(0.,0.,1.));
#1231=DIRECTION('',(1.,0.,0.));
#1232=DIRECTION('',(0.,0.,1.));
#1233=DIRECTION('',(1.,0.,0.));
#1234=DIRECTION('',(0.,0.,1.));
#1235=DIRECTION('',(1.,0.,0.));
#1236=DIRECTION('',(0.,0.,1.));
#1237=DIRECTION('',(1.,0.,0.));
#1238=DIRECTION('',(0.,0.,1.));
#1239=DIRECTION('',(1.,0.,0.));
#1240=DIRECTION('',(0.,0.,1.));
#1241=DIRECTION('',(1.,0.,0.));
#1242=DIRECTION('',(0.,0.,1.));
#1243=DIRECTION('',(1.,0.,0.));
#1244=DIRECTION('',(0.,0.,1.));
#1245=DIRECTION('',(1.,0.,0.));
#1246=DIRECTION('',(0.,0.,1.));
#1247=DIRECTION('',(1.,0.,0.));
#1248=DIRECTION('',(0.,0.,1.));
#1249=DIRECTION('',(1.,0.,0.));
#1250=DIRECTION('',(0.,0.,1.));
#1251=DIRECTION('',(1.,0.,0.));
#1252=DIRECTION('',(0.,0.,1.));
#1253=DIRECTION('',(1.,0.,0.));
#1254=DIRECTION('',(0.,0.,1.));
#1255=DIRECTION('',(0.,-1.,0.));
#1256=DIRECTION('',(0.,0.,1.));
#1257=DIRECTION('',(1.,0.,0.));
#1258=DIRECTION('',(0.,0.,1.));
#1259=DIRECTION('',(1.,0.,0.));
#1260=DIRECTION('',(0.,0.,1.));
#1261=DIRECTION('',(-1.,0.,0.));
#1262=DIRECTION('',(0.,0.,1.));
#1263=DIRECTION('',(1.,0.,0.));
#1264=DIRECTION('',(0.,0.,1.));
#1265=DIRECTION('',(1.,0.,0.));
#1266=DIRECTION('',(0.,0.,1.));
#1267=DIRECTION('',(2.71050543121376E-16,1.,0.));
#1268=DIRECTION('',(0.,0.,1.));
#1269=DIRECTION('',(1.,0.,0.));
#1270=DIRECTION('',(0.,0.,1.));
#1271=DIRECTION('',(1.,0.,0.));
#1272=DIRECTION('',(0.,0.,1.));
#1273=DIRECTION('',(1.,0.,0.));
#1274=DIRECTION('',(0.,0.,1.));
#1275=DIRECTION('',(1.,0.,0.));
#1276=CARTESIAN_POINT('',(0.,0.,0.));
#1277=CARTESIAN_POINT('',(0.0537416323113442,-0.0282998242765875,0.));
#1278=CARTESIAN_POINT('',(0.103991632311344,-0.0527998242765875,0.));
#1279=CARTESIAN_POINT('',(0.105091632311344,-0.0527998242765875,0.));
#1280=CARTESIAN_POINT('',(0.0999916323113442,-0.0527998242765875,0.));
#1281=CARTESIAN_POINT('',(0.0999916323113442,-0.0567998242765875,0.));
#1282=CARTESIAN_POINT('',(0.0999916323113442,-0.0487998242765875,0.));
#1283=CARTESIAN_POINT('',(0.00349163231134417,-0.0567998242765875,0.));
#1284=CARTESIAN_POINT('',(0.107991632311344,-0.0567998242765875,0.));
#1285=CARTESIAN_POINT('',(0.107991632311344,-0.00629982427658748,0.));
#1286=CARTESIAN_POINT('',(0.107991632311344,-0.0487998242765875,0.));
#1287=CARTESIAN_POINT('',(0.103991632311344,-0.0487998242765875,0.));
#1288=CARTESIAN_POINT('',(0.0537416323113442,-0.0282998242765875,0.));
#1289=CARTESIAN_POINT('',(0.00349163231134414,-0.00379982427658746,0.));
#1290=CARTESIAN_POINT('',(0.00459163231134414,-0.00379982427658746,0.));
#1291=CARTESIAN_POINT('',(0.00649163231134415,-0.00629982427658748,0.));
#1292=CARTESIAN_POINT('',(0.00649163231134414,0.000200175723412521,0.));
#1293=CARTESIAN_POINT('',(0.00649163231134415,-0.0127998242765875,0.));
#1294=CARTESIAN_POINT('',(0.0537416323113441,0.000200175723412521,0.));
#1295=CARTESIAN_POINT('',(-0.00050836768865585,0.000200175723412521,0.));
#1296=CARTESIAN_POINT('',(-0.000508367688655809,-0.0527998242765875,0.));
#1297=CARTESIAN_POINT('',(-0.000508367688655831,-0.0127998242765875,0.));
#1298=CARTESIAN_POINT('',(0.00299163231134415,-0.0127998242765875,0.));
#1299=CARTESIAN_POINT('',(0.0537416323113442,-0.0282998242765875,0.));
#1300=CARTESIAN_POINT('',(0.00349163231134414,-0.0527998242765875,0.));
#1301=CARTESIAN_POINT('',(0.00459163231134414,-0.0527998242765875,0.));
#1302=CARTESIAN_POINT('',(-0.000508367688655809,-0.0527998242765875,0.));
#1303=CARTESIAN_POINT('',(-0.000508367688655811,-0.0487998242765875,0.));
#1304=CARTESIAN_POINT('',(-0.000508367688655807,-0.0567998242765875,0.));
#1305=CARTESIAN_POINT('',(0.00349163231134417,-0.0567998242765875,0.));
#1306=CARTESIAN_POINT('',(0.00749163231134419,-0.0567998242765875,0.));
#1307=CARTESIAN_POINT('',(0.00749163231134419,-0.0527998242765875,0.));
#1308=CARTESIAN_POINT('',(0.00749163231134419,-0.0487998242765875,0.));
#1309=CARTESIAN_POINT('',(0.00349163231134415,-0.0487998242765875,0.));
#1310=CARTESIAN_POINT('',(0.00349163231134417,-0.0567998242765875,-0.006));
#1311=CARTESIAN_POINT('',(0.00349163231134417,-0.0567998242765875,-0.006));
#1312=CARTESIAN_POINT('',(0.00749163231134419,-0.0567998242765875,-0.006));
#1313=CARTESIAN_POINT('',(0.0999916323113442,-0.0567998242765875,-0.006));
#1314=CARTESIAN_POINT('',(0.00749163231134419,-0.0567998242765875,-0.006));
#1315=CARTESIAN_POINT('',(-0.000508367688655807,-0.0567998242765875,0.007));
#1316=CARTESIAN_POINT('',(-0.000508367688655807,-0.0567998242765875,0.007));
#1317=CARTESIAN_POINT('',(0.00349163231134417,-0.0567998242765875,0.007));
#1318=CARTESIAN_POINT('',(0.107991632311344,-0.0567998242765875,0.007));
#1319=CARTESIAN_POINT('',(0.107991632311344,-0.0567998242765875,0.007));
#1320=CARTESIAN_POINT('',(0.0999916323113442,-0.0567998242765875,-0.006));
#1321=CARTESIAN_POINT('',(-0.000508367688655809,-0.0527998242765875,-0.006));
#1322=CARTESIAN_POINT('',(-0.000508367688655847,-0.0487998242765875,-0.006));
#1323=CARTESIAN_POINT('',(-0.000508367688655811,-0.0487998242765875,-0.006));
#1324=CARTESIAN_POINT('',(-0.000508367688655809,-0.0527998242765875,-0.006));
#1325=CARTESIAN_POINT('',(-0.000508367688655831,-0.0127998242765875,-0.006));
#1326=CARTESIAN_POINT('',(-0.000508367688655831,-0.0127998242765875,-0.006));
#1327=CARTESIAN_POINT('',(-0.00050836768865585,0.000200175723412521,0.007));
#1328=CARTESIAN_POINT('',(-0.00050836768865585,0.000200175723412521,0.007));
#1329=CARTESIAN_POINT('',(-0.000508367688655809,-0.0527998242765875,0.007));
#1330=CARTESIAN_POINT('',(0.107991632311344,0.00270017572341252,-0.006));
#1331=CARTESIAN_POINT('',(0.107991632311344,-0.0127998242765875,-0.006));
#1332=CARTESIAN_POINT('',(0.107991632311344,-0.0127998242765875,-0.006));
#1333=CARTESIAN_POINT('',(0.107991632311344,-0.0127998242765875,0.));
#1334=CARTESIAN_POINT('',(0.107991632311344,0.00270017572341252,-0.006));
#1335=CARTESIAN_POINT('',(0.107991632311344,-0.0487998242765875,-0.006));
#1336=CARTESIAN_POINT('',(0.107991632311344,-0.0487998242765875,-0.006));
#1337=CARTESIAN_POINT('',(0.107991632311344,-0.00629982427658748,0.007));
#1338=CARTESIAN_POINT('',(0.107991632311344,0.000200175723412522,0.007));
#1339=CARTESIAN_POINT('',(0.107991632311344,0.000200175723412522,0.007));
#1340=CARTESIAN_POINT('',(0.107991632311344,0.000200175723412522,0.));
#1341=CARTESIAN_POINT('',(0.107991632311344,-0.00629982427658748,0.));
#1342=CARTESIAN_POINT('',(-0.00300836768865585,0.00270017572341252,-0.006));
#1343=CARTESIAN_POINT('',(-0.00550836768865585,0.00270017572341252,-0.006));
#1344=CARTESIAN_POINT('',(-0.00550836768865585,0.00270017572341252,-0.011));
#1345=CARTESIAN_POINT('',(-0.00550836768865585,0.00270017572341252,0.007));
#1346=CARTESIAN_POINT('',(-0.00300836768865585,0.00270017572341252,0.007));
#1347=CARTESIAN_POINT('',(-0.00300836768865586,0.00520017572341252,0.007));
#1348=CARTESIAN_POINT('',(-0.00300836768865586,0.00520017572341252,-0.006));
#1349=CARTESIAN_POINT('',(-0.00300836768865586,0.00520017572341252,-0.011));
#1350=CARTESIAN_POINT('',(-0.00300836768865585,0.00270017572341252,-0.011));
#1351=CARTESIAN_POINT('',(-0.00550836768865582,-0.0282998242765875,-0.006));
#1352=CARTESIAN_POINT('',(-0.00550836768865581,-0.0592998242765875,-0.006));
#1353=CARTESIAN_POINT('',(-0.00550836768865581,-0.0592998242765875,-0.011));
#1354=CARTESIAN_POINT('',(-0.00550836768865581,-0.0592998242765875,0.007));
#1355=CARTESIAN_POINT('',(-0.00550836768865582,-0.0282998242765875,0.007));
#1356=CARTESIAN_POINT('',(-0.00550836768865582,-0.0282998242765875,-0.011));
#1357=CARTESIAN_POINT('',(-0.00300836768865586,-0.0592998242765875,-0.006));
#1358=CARTESIAN_POINT('',(-0.00300836768865586,-0.0617998242765875,-0.006));
#1359=CARTESIAN_POINT('',(-0.00300836768865586,-0.0617998242765875,-0.011));
#1360=CARTESIAN_POINT('',(-0.00300836768865586,-0.0617998242765875,0.007));
#1361=CARTESIAN_POINT('',(-0.00300836768865586,-0.0592998242765875,0.007));
#1362=CARTESIAN_POINT('',(-0.00300836768865586,-0.0592998242765875,-0.011));
#1363=CARTESIAN_POINT('',(0.0537416323113442,-0.0617998242765875,-0.006));
#1364=CARTESIAN_POINT('',(0.110491632311344,-0.0617998242765875,-0.006));
#1365=CARTESIAN_POINT('',(0.110491632311344,-0.0617998242765875,-0.011));
#1366=CARTESIAN_POINT('',(0.110491632311344,-0.0617998242765875,0.007));
#1367=CARTESIAN_POINT('',(0.0537416323113442,-0.0617998242765875,0.007));
#1368=CARTESIAN_POINT('',(0.0537416323113442,-0.0617998242765875,-0.011));
#1369=CARTESIAN_POINT('',(0.110491632311344,-0.0592998242765874,-0.006));
#1370=CARTESIAN_POINT('',(0.112991632311344,-0.0592998242765875,-0.006));
#1371=CARTESIAN_POINT('',(0.112991632311344,-0.0592998242765875,-0.011));
#1372=CARTESIAN_POINT('',(0.112991632311344,-0.0592998242765875,0.007));
#1373=CARTESIAN_POINT('',(0.110491632311344,-0.0592998242765874,0.007));
#1374=CARTESIAN_POINT('',(0.110491632311344,-0.0592998242765874,-0.011));
#1375=CARTESIAN_POINT('',(0.112991632311344,-0.0282998242765875,-0.006));
#1376=CARTESIAN_POINT('',(0.112991632311344,0.00270017572341252,-0.006));
#1377=CARTESIAN_POINT('',(0.112991632311344,0.00270017572341252,-0.011));
#1378=CARTESIAN_POINT('',(0.112991632311344,0.00270017572341252,0.007));
#1379=CARTESIAN_POINT('',(0.112991632311344,-0.0282998242765875,0.007));
#1380=CARTESIAN_POINT('',(0.112991632311344,-0.0282998242765875,-0.011));
#1381=CARTESIAN_POINT('',(0.110491632311344,0.00270017572341252,-0.006));
#1382=CARTESIAN_POINT('',(0.110491632311344,0.00520017572341252,-0.006));
#1383=CARTESIAN_POINT('',(0.110491632311344,0.00520017572341252,-0.011));
#1384=CARTESIAN_POINT('',(0.110491632311344,0.00520017572341252,0.007));
#1385=CARTESIAN_POINT('',(0.110491632311344,0.00270017572341252,0.007));
#1386=CARTESIAN_POINT('',(0.110491632311344,0.00270017572341252,-0.011));
#1387=CARTESIAN_POINT('',(0.109241632311344,0.00520017572341252,-0.006));
#1388=CARTESIAN_POINT('',(-0.00175836768865585,0.00520017572341252,0.007));
#1389=CARTESIAN_POINT('',(0.0537416323113441,0.00520017572341252,-0.011));
#1390=CARTESIAN_POINT('',(0.107991632311344,0.00520017572341252,-0.006));
#1391=CARTESIAN_POINT('',(0.107991632311344,0.00520013179255939,-0.006));
#1392=CARTESIAN_POINT('',(0.107991632311344,0.00520013179255939,0.));
#1393=CARTESIAN_POINT('',(0.0537416323113442,0.0052,0.));
#1394=CARTESIAN_POINT('',(-0.00050836768865585,0.00520013179255939,0.));
#1395=CARTESIAN_POINT('',(-0.000508367688655853,0.00520017572341252,-0.006));
#1396=CARTESIAN_POINT('',(-0.000508367688655851,0.00520013179255939,-0.006));
#1397=CARTESIAN_POINT('',(0.0537416323113442,0.0052,-0.006));
#1398=CARTESIAN_POINT('',(0.0537416323113442,-0.0282998242765875,0.));
#1399=CARTESIAN_POINT('',(0.0537416323113441,0.000200175723412521,0.));
#1400=CARTESIAN_POINT('',(0.100991632311344,0.000200175723412523,0.));
#1401=CARTESIAN_POINT('',(0.100991632311344,-0.00629982427658748,0.));
#1402=CARTESIAN_POINT('',(0.100991632311344,-0.0127998242765875,0.));
#1403=CARTESIAN_POINT('',(0.104491632311344,-0.0127998242765875,0.));
#1404=CARTESIAN_POINT('',(0.103991632311344,-0.00379982427658746,0.));
#1405=CARTESIAN_POINT('',(0.105091632311344,-0.00379982427658746,0.));
#1406=CARTESIAN_POINT('',(0.0999916323113442,-0.0527998242765875,-0.006));
#1407=CARTESIAN_POINT('',(0.0999916323113442,-0.0487998242765875,-0.006));
#1408=CARTESIAN_POINT('',(0.0999916323113442,-0.0487998242765875,-0.006));
#1409=CARTESIAN_POINT('',(0.0999916323113442,-0.0527998242765875,-0.006));
#1410=CARTESIAN_POINT('',(0.103991632311344,-0.0527998242765875,-0.006));
#1411=CARTESIAN_POINT('',(0.103991632311344,-0.0527998242765875,-0.006));
#1412=CARTESIAN_POINT('',(0.105091632311344,-0.0527998242765875,-0.006));
#1413=CARTESIAN_POINT('',(0.103991632311344,-0.0487998242765875,-0.006));
#1414=CARTESIAN_POINT('',(0.103991632311344,-0.0487998242765875,-0.006));
#1415=CARTESIAN_POINT('',(0.100991632311344,-0.00629982427658748,-0.006));
#1416=CARTESIAN_POINT('',(0.100991632311344,0.0002,-0.003));
#1417=CARTESIAN_POINT('',(0.100991632311344,0.00020004393085313,-0.006));
#1418=CARTESIAN_POINT('',(0.100991632311344,-0.00629982427658748,-0.006));
#1419=CARTESIAN_POINT('',(0.100991632311344,-0.0127998242765875,-0.006));
#1420=CARTESIAN_POINT('',(0.100991632311344,-0.0127998242765875,-0.006));
#1421=CARTESIAN_POINT('',(0.104491632311344,-0.0127998242765875,-0.006));
#1422=CARTESIAN_POINT('',(0.104491632311344,-0.0127998242765875,-0.006));
#1423=CARTESIAN_POINT('',(0.103991632311344,-0.00379982427658746,-0.006));
#1424=CARTESIAN_POINT('',(0.103991632311344,-0.00379982427658746,-0.006));
#1425=CARTESIAN_POINT('',(0.105091632311344,-0.00379982427658746,-0.006));
#1426=CARTESIAN_POINT('',(0.00299163231134415,-0.0127998242765875,-0.006));
#1427=CARTESIAN_POINT('',(0.00299163231134415,-0.0127998242765875,-0.006));
#1428=CARTESIAN_POINT('',(0.00649163231134415,-0.0127998242765875,-0.006));
#1429=CARTESIAN_POINT('',(0.00649163231134415,-0.0127998242765875,-0.006));
#1430=CARTESIAN_POINT('',(0.00349163231134414,-0.00379982427658746,-0.006));
#1431=CARTESIAN_POINT('',(0.00349163231134414,-0.00379982427658746,-0.006));
#1432=CARTESIAN_POINT('',(0.00459163231134414,-0.00379982427658746,-0.006));
#1433=CARTESIAN_POINT('',(0.00649163231134415,-0.00629982427658748,-0.006));
#1434=CARTESIAN_POINT('',(0.00649163231134415,-0.00629982427658748,-0.006));
#1435=CARTESIAN_POINT('',(0.00649163231134415,0.00020004393085313,-0.006));
#1436=CARTESIAN_POINT('',(0.00649163231134415,0.0002,-0.006));
#1437=CARTESIAN_POINT('',(0.00749163231134419,-0.0527998242765875,-0.006));
#1438=CARTESIAN_POINT('',(0.00749163231134419,-0.0527998242765875,-0.006));
#1439=CARTESIAN_POINT('',(0.00749163231134419,-0.0487998242765875,-0.006));
#1440=CARTESIAN_POINT('',(0.00749163231134419,-0.0487998242765875,-0.006));
#1441=CARTESIAN_POINT('',(0.00349163231134414,-0.0527998242765875,-0.006));
#1442=CARTESIAN_POINT('',(0.00349163231134414,-0.0527998242765875,-0.006));
#1443=CARTESIAN_POINT('',(0.00459163231134414,-0.0527998242765875,-0.006));
#1444=CARTESIAN_POINT('',(0.00349163231134415,-0.0487998242765875,-0.006));
#1445=CARTESIAN_POINT('',(0.00349163231134415,-0.0487998242765875,-0.006));
#1446=CARTESIAN_POINT('',(0.0537416323113442,0.0002,-0.003));
#1447=CARTESIAN_POINT('',(0.0258089476924586,0.0002,-0.00479028008048188));
#1448=CARTESIAN_POINT('',(0.0265589476924586,0.0002,-0.00479028008048188));
#1449=CARTESIAN_POINT('',(0.00761894769245864,0.0002,-0.00479028008048188));
#1450=CARTESIAN_POINT('',(0.00761894769245864,0.0002,-0.00404028008048187));
#1451=CARTESIAN_POINT('',(0.00761894769245863,0.0002,-0.000580280080481875));
#1452=CARTESIAN_POINT('',(0.00836894769245863,0.0002,-0.000580280080481875));
#1453=CARTESIAN_POINT('',(0.0265589476924586,0.0002,-0.000580280080481873));
#1454=CARTESIAN_POINT('',(0.0265589476924586,0.0002,-0.00133028008048187));
#1455=CARTESIAN_POINT('',(0.0537416323113442,0.0002,-0.006));
#1456=CARTESIAN_POINT('',(0.0537416323113442,0.0002,0.));
#1457=CARTESIAN_POINT('',(0.0258089476924586,0.0052,-0.00479028008048188));
#1458=CARTESIAN_POINT('',(0.0265589476924586,0.0052,-0.00479028008048188));
#1459=CARTESIAN_POINT('',(0.0265589476924586,0.0052,-0.00479028008048188));
#1460=CARTESIAN_POINT('',(0.0258089476924586,0.0052,-0.00479028008048188));
#1461=CARTESIAN_POINT('',(0.00761894769245864,0.0052,-0.00479028008048188));
#1462=CARTESIAN_POINT('',(0.00761894769245864,0.0052,-0.00479028008048188));
#1463=CARTESIAN_POINT('',(0.00761894769245864,0.0052,-0.00404028008048187));
#1464=CARTESIAN_POINT('',(0.00761894769245864,0.0052,-0.00404028008048187));
#1465=CARTESIAN_POINT('',(0.00761894769245863,0.0052,-0.000580280080481875));
#1466=CARTESIAN_POINT('',(0.00761894769245863,0.0052,-0.000580280080481875));
#1467=CARTESIAN_POINT('',(0.00836894769245863,0.0052,-0.000580280080481875));
#1468=CARTESIAN_POINT('',(0.00836894769245863,0.0052,-0.000580280080481875));
#1469=CARTESIAN_POINT('',(0.0265589476924586,0.0052,-0.000580280080481873));
#1470=CARTESIAN_POINT('',(0.0265589476924586,0.0052,-0.000580280080481873));
#1471=CARTESIAN_POINT('',(0.0265589476924586,0.0052,-0.00133028008048187));
#1472=CARTESIAN_POINT('',(0.0265589476924586,0.0052,-0.00133028008048187));
#1473=CARTESIAN_POINT('',(0.0537416323113442,0.0052,-0.003));
#1474=CARTESIAN_POINT('',(0.0537416323113442,-0.0282998242765875,-0.006));
#1475=CARTESIAN_POINT('',(0.0537416323113442,-0.0282998242765875,-0.006));
#1476=CARTESIAN_POINT('',(0.0537416323113442,-0.0282998242765875,-0.006));
#1477=CARTESIAN_POINT('',(0.0537416323113442,-0.0282998242765875,-0.006));
#1478=CARTESIAN_POINT('',(0.0537416323113442,-0.0282998242765875,-0.006));
#1479=CARTESIAN_POINT('',(0.0537416323113442,-0.0282998242765875,-0.011));
#1480=CARTESIAN_POINT('',(0.0537416323113441,0.000200175723412521,0.007));
#1481=CARTESIAN_POINT('',(0.0537416323113441,0.000200175723412521,0.007));
#1482=CARTESIAN_POINT('',(0.0537416323113442,-0.0282998242765875,0.007));
#1483=CARTESIAN_POINT('',(0.110491632311344,-0.0279349674380731,0.007));
#1484=CARTESIAN_POINT('',(0.112091632311344,-0.0279349674380731,0.007));
#1485=CARTESIAN_POINT('',(-0.00300836768865585,-0.0279349674380731,0.007));
#1486=CARTESIAN_POINT('',(-0.00140836768865585,-0.0279349674380731,0.007));
#1487=CARTESIAN_POINT('',(0.110491632311344,-0.0228349674380731,0.007));
#1488=CARTESIAN_POINT('',(0.112091632311344,-0.0228349674380731,0.007));
#1489=CARTESIAN_POINT('',(-0.00300836768865585,-0.0228349674380731,0.007));
#1490=CARTESIAN_POINT('',(-0.00140836768865585,-0.0228349674380731,0.007));
#1491=CARTESIAN_POINT('',(0.110491632311344,-0.0592998242765875,0.007));
#1492=CARTESIAN_POINT('',(0.110491632311344,-0.0608998242765875,0.007));
#1493=CARTESIAN_POINT('',(-0.00300836768865586,-0.0592998242765875,0.007));
#1494=CARTESIAN_POINT('',(-0.00460836768865585,-0.0592998242765875,0.007));
#1495=CARTESIAN_POINT('',(-0.00300836768865585,0.00270017572341252,0.007));
#1496=CARTESIAN_POINT('',(-0.00300836768865585,0.00430017572341252,0.007));
#1497=CARTESIAN_POINT('',(0.110491632311344,0.00270017572341252,0.007));
#1498=CARTESIAN_POINT('',(0.112091632311344,0.00270017572341252,0.007));
#1499=CARTESIAN_POINT('',(0.0537416323113442,-0.0282998242765875,-0.006));
#1500=CARTESIAN_POINT('',(0.110491632311344,-0.0279349674380731,-0.006));
#1501=CARTESIAN_POINT('',(0.112091632311344,-0.0279349674380731,-0.006));
#1502=CARTESIAN_POINT('',(0.110491632311344,-0.0279349674380731,-0.006));
#1503=CARTESIAN_POINT('',(0.0537416323113442,-0.0282998242765875,-0.006));
#1504=CARTESIAN_POINT('',(-0.00300836768865585,-0.0279349674380731,-0.006));
#1505=CARTESIAN_POINT('',(-0.00140836768865585,-0.0279349674380731,-0.006));
#1506=CARTESIAN_POINT('',(-0.00300836768865585,-0.0279349674380731,-0.006));
#1507=CARTESIAN_POINT('',(0.0537416323113442,-0.0282998242765875,-0.006));
#1508=CARTESIAN_POINT('',(0.110491632311344,-0.0228349674380731,-0.006));
#1509=CARTESIAN_POINT('',(0.112091632311344,-0.0228349674380731,-0.006));
#1510=CARTESIAN_POINT('',(0.110491632311344,-0.0228349674380731,-0.006));
#1511=CARTESIAN_POINT('',(0.0537416323113442,-0.0282998242765875,-0.006));
#1512=CARTESIAN_POINT('',(-0.00300836768865585,-0.0228349674380731,-0.006));
#1513=CARTESIAN_POINT('',(-0.00140836768865585,-0.0228349674380731,-0.006));
#1514=CARTESIAN_POINT('',(-0.00300836768865585,-0.0228349674380731,-0.006));
#1515=CARTESIAN_POINT('',(0.0537416323113442,-0.0282998242765875,-0.006));
#1516=CARTESIAN_POINT('',(0.110491632311344,-0.0592998242765875,-0.006));
#1517=CARTESIAN_POINT('',(0.110491632311344,-0.0608998242765875,-0.006));
#1518=CARTESIAN_POINT('',(0.110491632311344,-0.0592998242765875,-0.006));
#1519=CARTESIAN_POINT('',(0.0537416323113442,-0.0282998242765875,-0.006));
#1520=CARTESIAN_POINT('',(-0.00300836768865586,-0.0592998242765875,-0.006));
#1521=CARTESIAN_POINT('',(-0.00460836768865585,-0.0592998242765875,-0.006));
#1522=CARTESIAN_POINT('',(-0.00300836768865586,-0.0592998242765875,-0.006));
#1523=CARTESIAN_POINT('',(0.0537416323113442,-0.0282998242765875,-0.006));
#1524=CARTESIAN_POINT('',(-0.00300836768865585,0.00270017572341252,-0.006));
#1525=CARTESIAN_POINT('',(-0.00300836768865585,0.00430017572341252,-0.006));
#1526=CARTESIAN_POINT('',(-0.00300836768865585,0.00270017572341252,-0.006));
#1527=CARTESIAN_POINT('',(0.0537416323113442,-0.0282998242765875,-0.006));
#1528=CARTESIAN_POINT('',(0.110491632311344,0.00270017572341252,-0.006));
#1529=CARTESIAN_POINT('',(0.112091632311344,0.00270017572341252,-0.006));
#1530=CARTESIAN_POINT('',(0.110491632311344,0.00270017572341252,-0.006));
#1531=MECHANICAL_DESIGN_GEOMETRIC_PRESENTATION_REPRESENTATION('',(#914),
#1532);
#1532=(
GEOMETRIC_REPRESENTATION_CONTEXT(3)
GLOBAL_UNCERTAINTY_ASSIGNED_CONTEXT((#1533))
GLOBAL_UNIT_ASSIGNED_CONTEXT((#1536,#1535,#1534))
REPRESENTATION_CONTEXT('Part 1','TOP_LEVEL_ASSEMBLY_PART')
);
#1533=UNCERTAINTY_MEASURE_WITH_UNIT(LENGTH_MEASURE(2.1000000000007E-5),
#1536,'DISTANCE_ACCURACY_VALUE','Maximum Tolerance applied to model');
#1534=(
NAMED_UNIT(*)
SI_UNIT($,.STERADIAN.)
SOLID_ANGLE_UNIT()
);
#1535=(
NAMED_UNIT(*)
PLANE_ANGLE_UNIT()
SI_UNIT($,.RADIAN.)
);
#1536=(
LENGTH_UNIT()
NAMED_UNIT(*)
SI_UNIT($,.METRE.)
);
#1537=PRODUCT_DEFINITION_SHAPE('','',#1538);
#1538=PRODUCT_DEFINITION('','',#1540,#1539);
#1539=PRODUCT_DEFINITION_CONTEXT('',#1546,'design');
#1540=PRODUCT_DEFINITION_FORMATION_WITH_SPECIFIED_SOURCE('','',#1542,
 .NOT_KNOWN.);
#1541=PRODUCT_RELATED_PRODUCT_CATEGORY('','',(#1542));
#1542=PRODUCT('Part 1','Part 1','Part 1',(#1544));
#1543=PRODUCT_CATEGORY('','');
#1544=PRODUCT_CONTEXT('',#1546,'mechanical');
#1545=APPLICATION_PROTOCOL_DEFINITION('international standard',
'ap242_managed_model_based_3d_engineering',2020,#1546);
#1546=APPLICATION_CONTEXT('managed model based 3d engineering');
ENDSEC;
END-ISO-10303-21;
