ISO-10303-21;
HEADER;
/* Generated by software containing ST-Developer
 * from STEP Tools, Inc. (www.steptools.com) 
 */
/* OPTION: using custom renumber hook */

FILE_DESCRIPTION(
/* description */ ('STEP AP242 Edition 2',
'CAx-IF Rec.Pracs.---Representation and Presentation of Product Manufa
cturing Information (PMI)---4.0---2014-10-13',
'CAx-IF Rec.Pracs.---3D Tessellated Geometry---0.4---2014-09-14','2;1',
'CAx-IF Rec.Pracs.---User Defined Attributes---1.5---2016-08-15'),
/* implementation_level */ '2;1');

FILE_NAME(
/* name */ 'Part Studio 2 - Part 2',
/* time_stamp */ '2026-10-04T05:36:55Z',
/* author */ (''),
/* organization */ (''),
/* preprocessor_version */ 'ST-DEVELOPER v20',
/* originating_system */ 'ONSHAPE BY PTC INC, 1.221',
/* authorisation */ '  ');

FILE_SCHEMA (('AP242_MANAGED_MODEL_BASED_3D_ENGINEERING_MIM_LF { 1 0 10303 442 3 1 4 }'));
ENDSEC;

DATA;
#10=SHAPE_REPRESENTATION_RELATIONSHIP('','',#1143,#11);
#11=ADVANCED_BREP_SHAPE_REPRESENTATION('',(#1141),#1885);
#12=PLANE('',#1157);
#13=PLANE('',#1158);
#14=PLANE('',#1159);
#15=PLANE('',#1160);
#16=PLANE('',#1161);
#17=PLANE('',#1162);
#18=PLANE('',#1163);
#19=PLANE('',#1164);
#20=PLANE('',#1165);
#21=PLANE('',#1166);
#22=PLANE('',#1167);
#23=PLANE('',#1168);
#24=PLANE('',#1169);
#25=PLANE('',#1170);
#26=PLANE('',#1171);
#27=PLANE('',#1172);
#28=PLANE('',#1173);
#29=PLANE('',#1174);
#30=PLANE('',#1175);
#31=PLANE('',#1176);
#32=PLANE('',#1177);
#33=PLANE('',#1186);
#34=PLANE('',#1199);
#35=PLANE('',#1202);
#36=PLANE('',#1212);
#37=PLANE('',#1214);
#38=PLANE('',#1215);
#39=PLANE('',#1216);
#40=PLANE('',#1217);
#41=PLANE('',#1226);
#42=PLANE('',#1231);
#43=PLANE('',#1236);
#44=PLANE('',#1241);
#45=PLANE('',#1246);
#46=PLANE('',#1251);
#47=CIRCLE('',#1146,0.0025);
#48=CIRCLE('',#1147,0.0025);
#49=CIRCLE('',#1149,0.0025);
#50=CIRCLE('',#1150,0.0025);
#51=CIRCLE('',#1152,0.0025);
#52=CIRCLE('',#1153,0.0025);
#53=CIRCLE('',#1155,0.00249999999999997);
#54=CIRCLE('',#1156,0.00249999999999997);
#55=CIRCLE('',#1178,0.0025);
#56=CIRCLE('',#1179,0.0025);
#57=CIRCLE('',#1180,0.0025);
#58=CIRCLE('',#1181,0.00249999999999997);
#59=CIRCLE('',#1182,0.0016);
#60=CIRCLE('',#1183,0.00160087218777354);
#61=CIRCLE('',#1184,0.001599209713779);
#62=CIRCLE('',#1185,0.0016);
#63=CIRCLE('',#1187,0.0025);
#64=CIRCLE('',#1188,0.0025);
#65=CIRCLE('',#1189,0.0025);
#66=CIRCLE('',#1190,0.0025);
#67=CIRCLE('',#1191,0.0016);
#68=CIRCLE('',#1192,0.0016);
#69=CIRCLE('',#1193,0.0016);
#70=CIRCLE('',#1194,0.0016);
#71=CIRCLE('',#1195,0.0016);
#72=CIRCLE('',#1196,0.0016);
#73=CIRCLE('',#1197,0.00160087218777354);
#74=CIRCLE('',#1198,0.001599209713779);
#75=CIRCLE('',#1201,0.0016);
#76=CIRCLE('',#1203,0.0025);
#77=CIRCLE('',#1204,0.0025);
#78=CIRCLE('',#1205,0.0016);
#79=CIRCLE('',#1206,0.0016);
#80=CIRCLE('',#1207,0.0016);
#81=CIRCLE('',#1208,0.0016);
#82=CIRCLE('',#1209,0.0016);
#83=CIRCLE('',#1223,0.00160087218777354);
#84=CIRCLE('',#1225,0.0025);
#85=CIRCLE('',#1228,0.001599209713779);
#86=CIRCLE('',#1230,0.0025);
#87=CIRCLE('',#1233,0.0016);
#88=CIRCLE('',#1235,0.00249999999999997);
#89=CIRCLE('',#1238,0.00160087218777354);
#90=CIRCLE('',#1240,0.0025);
#91=CIRCLE('',#1243,0.001599209713779);
#92=CIRCLE('',#1245,0.0025);
#93=CIRCLE('',#1248,0.0016);
#94=CIRCLE('',#1250,0.0025);
#95=ORIENTED_EDGE('',*,*,#395,.F.);
#96=ORIENTED_EDGE('',*,*,#396,.T.);
#97=ORIENTED_EDGE('',*,*,#397,.T.);
#98=ORIENTED_EDGE('',*,*,#398,.F.);
#99=ORIENTED_EDGE('',*,*,#399,.F.);
#100=ORIENTED_EDGE('',*,*,#400,.T.);
#101=ORIENTED_EDGE('',*,*,#401,.T.);
#102=ORIENTED_EDGE('',*,*,#402,.F.);
#103=ORIENTED_EDGE('',*,*,#403,.F.);
#104=ORIENTED_EDGE('',*,*,#404,.T.);
#105=ORIENTED_EDGE('',*,*,#405,.T.);
#106=ORIENTED_EDGE('',*,*,#406,.F.);
#107=ORIENTED_EDGE('',*,*,#407,.F.);
#108=ORIENTED_EDGE('',*,*,#408,.T.);
#109=ORIENTED_EDGE('',*,*,#409,.T.);
#110=ORIENTED_EDGE('',*,*,#410,.F.);
#111=ORIENTED_EDGE('',*,*,#411,.F.);
#112=ORIENTED_EDGE('',*,*,#412,.F.);
#113=ORIENTED_EDGE('',*,*,#413,.T.);
#114=ORIENTED_EDGE('',*,*,#414,.T.);
#115=ORIENTED_EDGE('',*,*,#415,.F.);
#116=ORIENTED_EDGE('',*,*,#416,.F.);
#117=ORIENTED_EDGE('',*,*,#417,.T.);
#118=ORIENTED_EDGE('',*,*,#412,.T.);
#119=ORIENTED_EDGE('',*,*,#418,.F.);
#120=ORIENTED_EDGE('',*,*,#419,.F.);
#121=ORIENTED_EDGE('',*,*,#420,.T.);
#122=ORIENTED_EDGE('',*,*,#416,.T.);
#123=ORIENTED_EDGE('',*,*,#421,.F.);
#124=ORIENTED_EDGE('',*,*,#422,.F.);
#125=ORIENTED_EDGE('',*,*,#423,.T.);
#126=ORIENTED_EDGE('',*,*,#419,.T.);
#127=ORIENTED_EDGE('',*,*,#424,.F.);
#128=ORIENTED_EDGE('',*,*,#425,.F.);
#129=ORIENTED_EDGE('',*,*,#426,.T.);
#130=ORIENTED_EDGE('',*,*,#422,.T.);
#131=ORIENTED_EDGE('',*,*,#427,.F.);
#132=ORIENTED_EDGE('',*,*,#428,.F.);
#133=ORIENTED_EDGE('',*,*,#429,.T.);
#134=ORIENTED_EDGE('',*,*,#430,.T.);
#135=ORIENTED_EDGE('',*,*,#431,.T.);
#136=ORIENTED_EDGE('',*,*,#432,.F.);
#137=ORIENTED_EDGE('',*,*,#433,.F.);
#138=ORIENTED_EDGE('',*,*,#428,.T.);
#139=ORIENTED_EDGE('',*,*,#434,.T.);
#140=ORIENTED_EDGE('',*,*,#435,.F.);
#141=ORIENTED_EDGE('',*,*,#436,.F.);
#142=ORIENTED_EDGE('',*,*,#432,.T.);
#143=ORIENTED_EDGE('',*,*,#437,.T.);
#144=ORIENTED_EDGE('',*,*,#430,.F.);
#145=ORIENTED_EDGE('',*,*,#438,.T.);
#146=ORIENTED_EDGE('',*,*,#425,.T.);
#147=ORIENTED_EDGE('',*,*,#439,.F.);
#148=ORIENTED_EDGE('',*,*,#440,.F.);
#149=ORIENTED_EDGE('',*,*,#441,.F.);
#150=ORIENTED_EDGE('',*,*,#435,.T.);
#151=ORIENTED_EDGE('',*,*,#440,.T.);
#152=ORIENTED_EDGE('',*,*,#442,.T.);
#153=ORIENTED_EDGE('',*,*,#443,.F.);
#154=ORIENTED_EDGE('',*,*,#444,.F.);
#155=ORIENTED_EDGE('',*,*,#443,.T.);
#156=ORIENTED_EDGE('',*,*,#445,.T.);
#157=ORIENTED_EDGE('',*,*,#446,.F.);
#158=ORIENTED_EDGE('',*,*,#447,.F.);
#159=ORIENTED_EDGE('',*,*,#448,.F.);
#160=ORIENTED_EDGE('',*,*,#449,.F.);
#161=ORIENTED_EDGE('',*,*,#450,.T.);
#162=ORIENTED_EDGE('',*,*,#446,.T.);
#163=ORIENTED_EDGE('',*,*,#449,.T.);
#164=ORIENTED_EDGE('',*,*,#451,.T.);
#165=ORIENTED_EDGE('',*,*,#452,.F.);
#166=ORIENTED_EDGE('',*,*,#453,.F.);
#167=ORIENTED_EDGE('',*,*,#452,.T.);
#168=ORIENTED_EDGE('',*,*,#454,.T.);
#169=ORIENTED_EDGE('',*,*,#455,.F.);
#170=ORIENTED_EDGE('',*,*,#456,.F.);
#171=ORIENTED_EDGE('',*,*,#457,.T.);
#172=ORIENTED_EDGE('',*,*,#458,.F.);
#173=ORIENTED_EDGE('',*,*,#459,.T.);
#174=ORIENTED_EDGE('',*,*,#455,.T.);
#175=ORIENTED_EDGE('',*,*,#460,.T.);
#176=ORIENTED_EDGE('',*,*,#414,.F.);
#177=ORIENTED_EDGE('',*,*,#461,.T.);
#178=ORIENTED_EDGE('',*,*,#462,.T.);
#179=ORIENTED_EDGE('',*,*,#463,.F.);
#180=ORIENTED_EDGE('',*,*,#397,.F.);
#181=ORIENTED_EDGE('',*,*,#464,.F.);
#182=ORIENTED_EDGE('',*,*,#465,.T.);
#183=ORIENTED_EDGE('',*,*,#458,.T.);
#184=ORIENTED_EDGE('',*,*,#466,.F.);
#185=ORIENTED_EDGE('',*,*,#467,.F.);
#186=ORIENTED_EDGE('',*,*,#401,.F.);
#187=ORIENTED_EDGE('',*,*,#468,.F.);
#188=ORIENTED_EDGE('',*,*,#469,.T.);
#189=ORIENTED_EDGE('',*,*,#470,.T.);
#190=ORIENTED_EDGE('',*,*,#395,.T.);
#191=ORIENTED_EDGE('',*,*,#471,.T.);
#192=ORIENTED_EDGE('',*,*,#472,.T.);
#193=ORIENTED_EDGE('',*,*,#473,.T.);
#194=ORIENTED_EDGE('',*,*,#474,.F.);
#195=ORIENTED_EDGE('',*,*,#405,.F.);
#196=ORIENTED_EDGE('',*,*,#475,.F.);
#197=ORIENTED_EDGE('',*,*,#476,.F.);
#198=ORIENTED_EDGE('',*,*,#477,.T.);
#199=ORIENTED_EDGE('',*,*,#399,.T.);
#200=ORIENTED_EDGE('',*,*,#478,.T.);
#201=ORIENTED_EDGE('',*,*,#479,.T.);
#202=ORIENTED_EDGE('',*,*,#480,.F.);
#203=ORIENTED_EDGE('',*,*,#481,.F.);
#204=ORIENTED_EDGE('',*,*,#409,.F.);
#205=ORIENTED_EDGE('',*,*,#482,.F.);
#206=ORIENTED_EDGE('',*,*,#483,.F.);
#207=ORIENTED_EDGE('',*,*,#484,.T.);
#208=ORIENTED_EDGE('',*,*,#403,.T.);
#209=ORIENTED_EDGE('',*,*,#485,.T.);
#210=ORIENTED_EDGE('',*,*,#486,.T.);
#211=ORIENTED_EDGE('',*,*,#407,.T.);
#212=ORIENTED_EDGE('',*,*,#487,.T.);
#213=ORIENTED_EDGE('',*,*,#462,.F.);
#214=ORIENTED_EDGE('',*,*,#488,.F.);
#215=ORIENTED_EDGE('',*,*,#461,.F.);
#216=ORIENTED_EDGE('',*,*,#413,.F.);
#217=ORIENTED_EDGE('',*,*,#417,.F.);
#218=ORIENTED_EDGE('',*,*,#420,.F.);
#219=ORIENTED_EDGE('',*,*,#423,.F.);
#220=ORIENTED_EDGE('',*,*,#426,.F.);
#221=ORIENTED_EDGE('',*,*,#438,.F.);
#222=ORIENTED_EDGE('',*,*,#429,.F.);
#223=ORIENTED_EDGE('',*,*,#433,.T.);
#224=ORIENTED_EDGE('',*,*,#436,.T.);
#225=ORIENTED_EDGE('',*,*,#441,.T.);
#226=ORIENTED_EDGE('',*,*,#444,.T.);
#227=ORIENTED_EDGE('',*,*,#447,.T.);
#228=ORIENTED_EDGE('',*,*,#450,.F.);
#229=ORIENTED_EDGE('',*,*,#453,.T.);
#230=ORIENTED_EDGE('',*,*,#456,.T.);
#231=ORIENTED_EDGE('',*,*,#459,.F.);
#232=ORIENTED_EDGE('',*,*,#465,.F.);
#233=ORIENTED_EDGE('',*,*,#489,.T.);
#234=ORIENTED_EDGE('',*,*,#469,.F.);
#235=ORIENTED_EDGE('',*,*,#490,.T.);
#236=ORIENTED_EDGE('',*,*,#476,.T.);
#237=ORIENTED_EDGE('',*,*,#491,.T.);
#238=ORIENTED_EDGE('',*,*,#483,.T.);
#239=ORIENTED_EDGE('',*,*,#492,.T.);
#240=ORIENTED_EDGE('',*,*,#488,.T.);
#241=ORIENTED_EDGE('',*,*,#493,.F.);
#242=ORIENTED_EDGE('',*,*,#494,.F.);
#243=ORIENTED_EDGE('',*,*,#495,.F.);
#244=ORIENTED_EDGE('',*,*,#496,.F.);
#245=ORIENTED_EDGE('',*,*,#497,.F.);
#246=ORIENTED_EDGE('',*,*,#479,.F.);
#247=ORIENTED_EDGE('',*,*,#498,.F.);
#248=ORIENTED_EDGE('',*,*,#473,.F.);
#249=ORIENTED_EDGE('',*,*,#499,.F.);
#250=ORIENTED_EDGE('',*,*,#466,.T.);
#251=ORIENTED_EDGE('',*,*,#500,.F.);
#252=ORIENTED_EDGE('',*,*,#501,.F.);
#253=ORIENTED_EDGE('',*,*,#427,.T.);
#254=ORIENTED_EDGE('',*,*,#437,.F.);
#255=ORIENTED_EDGE('',*,*,#434,.F.);
#256=ORIENTED_EDGE('',*,*,#431,.F.);
#257=ORIENTED_EDGE('',*,*,#502,.T.);
#258=ORIENTED_EDGE('',*,*,#503,.T.);
#259=ORIENTED_EDGE('',*,*,#504,.T.);
#260=ORIENTED_EDGE('',*,*,#505,.T.);
#261=ORIENTED_EDGE('',*,*,#506,.T.);
#262=ORIENTED_EDGE('',*,*,#507,.T.);
#263=ORIENTED_EDGE('',*,*,#508,.T.);
#264=ORIENTED_EDGE('',*,*,#509,.F.);
#265=ORIENTED_EDGE('',*,*,#510,.F.);
#266=ORIENTED_EDGE('',*,*,#511,.T.);
#267=ORIENTED_EDGE('',*,*,#512,.T.);
#268=ORIENTED_EDGE('',*,*,#513,.T.);
#269=ORIENTED_EDGE('',*,*,#448,.T.);
#270=ORIENTED_EDGE('',*,*,#445,.F.);
#271=ORIENTED_EDGE('',*,*,#442,.F.);
#272=ORIENTED_EDGE('',*,*,#439,.T.);
#273=ORIENTED_EDGE('',*,*,#424,.T.);
#274=ORIENTED_EDGE('',*,*,#421,.T.);
#275=ORIENTED_EDGE('',*,*,#418,.T.);
#276=ORIENTED_EDGE('',*,*,#415,.T.);
#277=ORIENTED_EDGE('',*,*,#411,.T.);
#278=ORIENTED_EDGE('',*,*,#460,.F.);
#279=ORIENTED_EDGE('',*,*,#454,.F.);
#280=ORIENTED_EDGE('',*,*,#451,.F.);
#281=ORIENTED_EDGE('',*,*,#514,.T.);
#282=ORIENTED_EDGE('',*,*,#502,.F.);
#283=ORIENTED_EDGE('',*,*,#514,.F.);
#284=ORIENTED_EDGE('',*,*,#398,.T.);
#285=ORIENTED_EDGE('',*,*,#463,.T.);
#286=ORIENTED_EDGE('',*,*,#457,.F.);
#287=ORIENTED_EDGE('',*,*,#487,.F.);
#288=ORIENTED_EDGE('',*,*,#410,.T.);
#289=ORIENTED_EDGE('',*,*,#481,.T.);
#290=ORIENTED_EDGE('',*,*,#515,.T.);
#291=ORIENTED_EDGE('',*,*,#516,.T.);
#292=ORIENTED_EDGE('',*,*,#517,.T.);
#293=ORIENTED_EDGE('',*,*,#471,.F.);
#294=ORIENTED_EDGE('',*,*,#518,.F.);
#295=ORIENTED_EDGE('',*,*,#519,.F.);
#296=ORIENTED_EDGE('',*,*,#520,.F.);
#297=ORIENTED_EDGE('',*,*,#521,.F.);
#298=ORIENTED_EDGE('',*,*,#522,.F.);
#299=ORIENTED_EDGE('',*,*,#523,.F.);
#300=ORIENTED_EDGE('',*,*,#524,.F.);
#301=ORIENTED_EDGE('',*,*,#525,.T.);
#302=ORIENTED_EDGE('',*,*,#526,.T.);
#303=ORIENTED_EDGE('',*,*,#518,.T.);
#304=ORIENTED_EDGE('',*,*,#503,.F.);
#305=ORIENTED_EDGE('',*,*,#497,.T.);
#306=ORIENTED_EDGE('',*,*,#527,.F.);
#307=ORIENTED_EDGE('',*,*,#515,.F.);
#308=ORIENTED_EDGE('',*,*,#480,.T.);
#309=ORIENTED_EDGE('',*,*,#501,.T.);
#310=ORIENTED_EDGE('',*,*,#528,.F.);
#311=ORIENTED_EDGE('',*,*,#516,.F.);
#312=ORIENTED_EDGE('',*,*,#527,.T.);
#313=ORIENTED_EDGE('',*,*,#500,.T.);
#314=ORIENTED_EDGE('',*,*,#472,.F.);
#315=ORIENTED_EDGE('',*,*,#517,.F.);
#316=ORIENTED_EDGE('',*,*,#528,.T.);
#317=ORIENTED_EDGE('',*,*,#508,.F.);
#318=ORIENTED_EDGE('',*,*,#529,.F.);
#319=ORIENTED_EDGE('',*,*,#523,.T.);
#320=ORIENTED_EDGE('',*,*,#530,.T.);
#321=ORIENTED_EDGE('',*,*,#511,.F.);
#322=ORIENTED_EDGE('',*,*,#531,.F.);
#323=ORIENTED_EDGE('',*,*,#524,.T.);
#324=ORIENTED_EDGE('',*,*,#529,.T.);
#325=ORIENTED_EDGE('',*,*,#510,.T.);
#326=ORIENTED_EDGE('',*,*,#532,.F.);
#327=ORIENTED_EDGE('',*,*,#525,.F.);
#328=ORIENTED_EDGE('',*,*,#531,.T.);
#329=ORIENTED_EDGE('',*,*,#509,.T.);
#330=ORIENTED_EDGE('',*,*,#530,.F.);
#331=ORIENTED_EDGE('',*,*,#526,.F.);
#332=ORIENTED_EDGE('',*,*,#532,.T.);
#333=ORIENTED_EDGE('',*,*,#522,.T.);
#334=ORIENTED_EDGE('',*,*,#507,.F.);
#335=ORIENTED_EDGE('',*,*,#521,.T.);
#336=ORIENTED_EDGE('',*,*,#506,.F.);
#337=ORIENTED_EDGE('',*,*,#520,.T.);
#338=ORIENTED_EDGE('',*,*,#505,.F.);
#339=ORIENTED_EDGE('',*,*,#519,.T.);
#340=ORIENTED_EDGE('',*,*,#504,.F.);
#341=ORIENTED_EDGE('',*,*,#533,.T.);
#342=ORIENTED_EDGE('',*,*,#512,.F.);
#343=ORIENTED_EDGE('',*,*,#485,.F.);
#344=ORIENTED_EDGE('',*,*,#534,.F.);
#345=ORIENTED_EDGE('',*,*,#474,.T.);
#346=ORIENTED_EDGE('',*,*,#498,.T.);
#347=ORIENTED_EDGE('',*,*,#533,.F.);
#348=ORIENTED_EDGE('',*,*,#406,.T.);
#349=ORIENTED_EDGE('',*,*,#534,.T.);
#350=ORIENTED_EDGE('',*,*,#535,.T.);
#351=ORIENTED_EDGE('',*,*,#513,.F.);
#352=ORIENTED_EDGE('',*,*,#478,.F.);
#353=ORIENTED_EDGE('',*,*,#536,.F.);
#354=ORIENTED_EDGE('',*,*,#467,.T.);
#355=ORIENTED_EDGE('',*,*,#499,.T.);
#356=ORIENTED_EDGE('',*,*,#535,.F.);
#357=ORIENTED_EDGE('',*,*,#536,.T.);
#358=ORIENTED_EDGE('',*,*,#402,.T.);
#359=ORIENTED_EDGE('',*,*,#493,.T.);
#360=ORIENTED_EDGE('',*,*,#537,.F.);
#361=ORIENTED_EDGE('',*,*,#486,.F.);
#362=ORIENTED_EDGE('',*,*,#492,.F.);
#363=ORIENTED_EDGE('',*,*,#482,.T.);
#364=ORIENTED_EDGE('',*,*,#538,.T.);
#365=ORIENTED_EDGE('',*,*,#537,.T.);
#366=ORIENTED_EDGE('',*,*,#408,.F.);
#367=ORIENTED_EDGE('',*,*,#538,.F.);
#368=ORIENTED_EDGE('',*,*,#494,.T.);
#369=ORIENTED_EDGE('',*,*,#539,.F.);
#370=ORIENTED_EDGE('',*,*,#484,.F.);
#371=ORIENTED_EDGE('',*,*,#491,.F.);
#372=ORIENTED_EDGE('',*,*,#475,.T.);
#373=ORIENTED_EDGE('',*,*,#540,.T.);
#374=ORIENTED_EDGE('',*,*,#539,.T.);
#375=ORIENTED_EDGE('',*,*,#404,.F.);
#376=ORIENTED_EDGE('',*,*,#540,.F.);
#377=ORIENTED_EDGE('',*,*,#495,.T.);
#378=ORIENTED_EDGE('',*,*,#541,.F.);
#379=ORIENTED_EDGE('',*,*,#477,.F.);
#380=ORIENTED_EDGE('',*,*,#490,.F.);
#381=ORIENTED_EDGE('',*,*,#468,.T.);
#382=ORIENTED_EDGE('',*,*,#542,.T.);
#383=ORIENTED_EDGE('',*,*,#541,.T.);
#384=ORIENTED_EDGE('',*,*,#542,.F.);
#385=ORIENTED_EDGE('',*,*,#400,.F.);
#386=ORIENTED_EDGE('',*,*,#496,.T.);
#387=ORIENTED_EDGE('',*,*,#543,.F.);
#388=ORIENTED_EDGE('',*,*,#470,.F.);
#389=ORIENTED_EDGE('',*,*,#489,.F.);
#390=ORIENTED_EDGE('',*,*,#464,.T.);
#391=ORIENTED_EDGE('',*,*,#544,.T.);
#392=ORIENTED_EDGE('',*,*,#543,.T.);
#393=ORIENTED_EDGE('',*,*,#396,.F.);
#394=ORIENTED_EDGE('',*,*,#544,.F.);
#395=EDGE_CURVE('',#545,#546,#649,.T.);
#396=EDGE_CURVE('',#545,#547,#47,.T.);
#397=EDGE_CURVE('',#547,#548,#650,.T.);
#398=EDGE_CURVE('',#546,#548,#48,.T.);
#399=EDGE_CURVE('',#549,#550,#651,.T.);
#400=EDGE_CURVE('',#549,#551,#49,.T.);
#401=EDGE_CURVE('',#551,#552,#652,.T.);
#402=EDGE_CURVE('',#550,#552,#50,.T.);
#403=EDGE_CURVE('',#553,#554,#653,.T.);
#404=EDGE_CURVE('',#553,#555,#51,.T.);
#405=EDGE_CURVE('',#555,#556,#654,.T.);
#406=EDGE_CURVE('',#554,#556,#52,.T.);
#407=EDGE_CURVE('',#557,#558,#655,.T.);
#408=EDGE_CURVE('',#557,#559,#53,.T.);
#409=EDGE_CURVE('',#559,#560,#656,.T.);
#410=EDGE_CURVE('',#558,#560,#54,.T.);
#411=EDGE_CURVE('',#561,#562,#657,.T.);
#412=EDGE_CURVE('',#563,#561,#658,.T.);
#413=EDGE_CURVE('',#563,#564,#659,.T.);
#414=EDGE_CURVE('',#564,#562,#660,.T.);
#415=EDGE_CURVE('',#565,#561,#661,.T.);
#416=EDGE_CURVE('',#566,#565,#662,.T.);
#417=EDGE_CURVE('',#566,#563,#663,.T.);
#418=EDGE_CURVE('',#567,#565,#664,.T.);
#419=EDGE_CURVE('',#568,#567,#665,.T.);
#420=EDGE_CURVE('',#568,#566,#666,.T.);
#421=EDGE_CURVE('',#569,#567,#667,.T.);
#422=EDGE_CURVE('',#570,#569,#668,.T.);
#423=EDGE_CURVE('',#570,#568,#669,.T.);
#424=EDGE_CURVE('',#571,#569,#670,.T.);
#425=EDGE_CURVE('',#572,#571,#671,.T.);
#426=EDGE_CURVE('',#572,#570,#672,.T.);
#427=EDGE_CURVE('',#573,#574,#673,.T.);
#428=EDGE_CURVE('',#575,#573,#674,.T.);
#429=EDGE_CURVE('',#575,#576,#675,.T.);
#430=EDGE_CURVE('',#576,#574,#676,.T.);
#431=EDGE_CURVE('',#573,#577,#677,.T.);
#432=EDGE_CURVE('',#578,#577,#678,.T.);
#433=EDGE_CURVE('',#575,#578,#679,.T.);
#434=EDGE_CURVE('',#577,#579,#680,.T.);
#435=EDGE_CURVE('',#580,#579,#681,.T.);
#436=EDGE_CURVE('',#578,#580,#682,.T.);
#437=EDGE_CURVE('',#579,#574,#683,.T.);
#438=EDGE_CURVE('',#576,#572,#684,.T.);
#439=EDGE_CURVE('',#581,#571,#685,.T.);
#440=EDGE_CURVE('',#582,#581,#686,.T.);
#441=EDGE_CURVE('',#580,#582,#687,.T.);
#442=EDGE_CURVE('',#581,#583,#688,.T.);
#443=EDGE_CURVE('',#584,#583,#689,.T.);
#444=EDGE_CURVE('',#582,#584,#690,.T.);
#445=EDGE_CURVE('',#583,#585,#691,.T.);
#446=EDGE_CURVE('',#586,#585,#692,.T.);
#447=EDGE_CURVE('',#584,#586,#693,.T.);
#448=EDGE_CURVE('',#587,#585,#694,.T.);
#449=EDGE_CURVE('',#588,#587,#695,.T.);
#450=EDGE_CURVE('',#588,#586,#696,.T.);
#451=EDGE_CURVE('',#587,#589,#697,.T.);
#452=EDGE_CURVE('',#590,#589,#698,.T.);
#453=EDGE_CURVE('',#588,#590,#699,.T.);
#454=EDGE_CURVE('',#589,#591,#700,.T.);
#455=EDGE_CURVE('',#592,#591,#701,.T.);
#456=EDGE_CURVE('',#590,#592,#702,.T.);
#457=EDGE_CURVE('',#593,#594,#703,.T.);
#458=EDGE_CURVE('',#595,#594,#704,.T.);
#459=EDGE_CURVE('',#595,#592,#705,.T.);
#460=EDGE_CURVE('',#591,#562,#706,.T.);
#461=EDGE_CURVE('',#564,#596,#707,.T.);
#462=EDGE_CURVE('',#596,#593,#708,.T.);
#463=EDGE_CURVE('',#548,#594,#709,.T.);
#464=EDGE_CURVE('',#597,#547,#710,.T.);
#465=EDGE_CURVE('',#597,#595,#711,.T.);
#466=EDGE_CURVE('',#598,#599,#712,.T.);
#467=EDGE_CURVE('',#552,#598,#713,.T.);
#468=EDGE_CURVE('',#600,#551,#714,.T.);
#469=EDGE_CURVE('',#600,#601,#715,.T.);
#470=EDGE_CURVE('',#601,#545,#716,.T.);
#471=EDGE_CURVE('',#546,#602,#717,.T.);
#472=EDGE_CURVE('',#602,#599,#718,.T.);
#473=EDGE_CURVE('',#603,#604,#719,.T.);
#474=EDGE_CURVE('',#556,#604,#720,.T.);
#475=EDGE_CURVE('',#605,#555,#721,.T.);
#476=EDGE_CURVE('',#606,#605,#722,.T.);
#477=EDGE_CURVE('',#606,#549,#723,.T.);
#478=EDGE_CURVE('',#550,#603,#724,.T.);
#479=EDGE_CURVE('',#607,#608,#725,.T.);
#480=EDGE_CURVE('',#609,#608,#726,.T.);
#481=EDGE_CURVE('',#560,#609,#727,.T.);
#482=EDGE_CURVE('',#610,#559,#728,.T.);
#483=EDGE_CURVE('',#611,#610,#729,.T.);
#484=EDGE_CURVE('',#611,#553,#730,.T.);
#485=EDGE_CURVE('',#554,#607,#731,.T.);
#486=EDGE_CURVE('',#612,#557,#732,.T.);
#487=EDGE_CURVE('',#558,#593,#733,.T.);
#488=EDGE_CURVE('',#612,#596,#734,.T.);
#489=EDGE_CURVE('',#597,#601,#55,.T.);
#490=EDGE_CURVE('',#600,#606,#56,.T.);
#491=EDGE_CURVE('',#605,#611,#57,.T.);
#492=EDGE_CURVE('',#610,#612,#58,.T.);
#493=EDGE_CURVE('',#613,#613,#59,.T.);
#494=EDGE_CURVE('',#614,#614,#60,.T.);
#495=EDGE_CURVE('',#615,#615,#61,.T.);
#496=EDGE_CURVE('',#616,#616,#62,.T.);
#497=EDGE_CURVE('',#608,#617,#63,.T.);
#498=EDGE_CURVE('',#604,#607,#64,.T.);
#499=EDGE_CURVE('',#598,#603,#65,.T.);
#500=EDGE_CURVE('',#618,#599,#66,.T.);
#501=EDGE_CURVE('',#617,#618,#735,.T.);
#502=EDGE_CURVE('',#619,#619,#67,.T.);
#503=EDGE_CURVE('',#620,#620,#68,.T.);
#504=EDGE_CURVE('',#621,#621,#69,.T.);
#505=EDGE_CURVE('',#622,#622,#70,.T.);
#506=EDGE_CURVE('',#623,#623,#71,.T.);
#507=EDGE_CURVE('',#624,#624,#72,.T.);
#508=EDGE_CURVE('',#625,#626,#736,.T.);
#509=EDGE_CURVE('',#627,#626,#737,.T.);
#510=EDGE_CURVE('',#628,#627,#738,.T.);
#511=EDGE_CURVE('',#628,#625,#739,.T.);
#512=EDGE_CURVE('',#629,#629,#73,.T.);
#513=EDGE_CURVE('',#630,#630,#74,.T.);
#514=EDGE_CURVE('',#631,#631,#75,.T.);
#515=EDGE_CURVE('',#609,#632,#76,.T.);
#516=EDGE_CURVE('',#632,#633,#740,.T.);
#517=EDGE_CURVE('',#633,#602,#77,.T.);
#518=EDGE_CURVE('',#634,#634,#78,.T.);
#519=EDGE_CURVE('',#635,#635,#79,.T.);
#520=EDGE_CURVE('',#636,#636,#80,.T.);
#521=EDGE_CURVE('',#637,#637,#81,.T.);
#522=EDGE_CURVE('',#638,#638,#82,.T.);
#523=EDGE_CURVE('',#639,#640,#741,.T.);
#524=EDGE_CURVE('',#641,#639,#742,.T.);
#525=EDGE_CURVE('',#641,#642,#743,.T.);
#526=EDGE_CURVE('',#642,#640,#744,.T.);
#527=EDGE_CURVE('',#632,#617,#745,.T.);
#528=EDGE_CURVE('',#633,#618,#746,.T.);
#529=EDGE_CURVE('',#639,#625,#747,.T.);
#530=EDGE_CURVE('',#640,#626,#748,.T.);
#531=EDGE_CURVE('',#641,#628,#749,.T.);
#532=EDGE_CURVE('',#642,#627,#750,.T.);
#533=EDGE_CURVE('',#643,#643,#83,.T.);
#534=EDGE_CURVE('',#556,#554,#84,.T.);
#535=EDGE_CURVE('',#644,#644,#85,.T.);
#536=EDGE_CURVE('',#552,#550,#86,.T.);
#537=EDGE_CURVE('',#645,#645,#87,.T.);
#538=EDGE_CURVE('',#559,#557,#88,.T.);
#539=EDGE_CURVE('',#646,#646,#89,.T.);
#540=EDGE_CURVE('',#555,#553,#90,.T.);
#541=EDGE_CURVE('',#647,#647,#91,.T.);
#542=EDGE_CURVE('',#551,#549,#92,.T.);
#543=EDGE_CURVE('',#648,#648,#93,.T.);
#544=EDGE_CURVE('',#547,#545,#94,.T.);
#545=VERTEX_POINT('',#1573);
#546=VERTEX_POINT('',#1574);
#547=VERTEX_POINT('',#1576);
#548=VERTEX_POINT('',#1578);
#549=VERTEX_POINT('',#1582);
#550=VERTEX_POINT('',#1583);
#551=VERTEX_POINT('',#1585);
#552=VERTEX_POINT('',#1587);
#553=VERTEX_POINT('',#1591);
#554=VERTEX_POINT('',#1592);
#555=VERTEX_POINT('',#1594);
#556=VERTEX_POINT('',#1596);
#557=VERTEX_POINT('',#1600);
#558=VERTEX_POINT('',#1601);
#559=VERTEX_POINT('',#1603);
#560=VERTEX_POINT('',#1605);
#561=VERTEX_POINT('',#1609);
#562=VERTEX_POINT('',#1610);
#563=VERTEX_POINT('',#1612);
#564=VERTEX_POINT('',#1614);
#565=VERTEX_POINT('',#1618);
#566=VERTEX_POINT('',#1620);
#567=VERTEX_POINT('',#1624);
#568=VERTEX_POINT('',#1626);
#569=VERTEX_POINT('',#1630);
#570=VERTEX_POINT('',#1632);
#571=VERTEX_POINT('',#1636);
#572=VERTEX_POINT('',#1638);
#573=VERTEX_POINT('',#1642);
#574=VERTEX_POINT('',#1643);
#575=VERTEX_POINT('',#1645);
#576=VERTEX_POINT('',#1647);
#577=VERTEX_POINT('',#1651);
#578=VERTEX_POINT('',#1653);
#579=VERTEX_POINT('',#1657);
#580=VERTEX_POINT('',#1659);
#581=VERTEX_POINT('',#1665);
#582=VERTEX_POINT('',#1667);
#583=VERTEX_POINT('',#1671);
#584=VERTEX_POINT('',#1673);
#585=VERTEX_POINT('',#1677);
#586=VERTEX_POINT('',#1679);
#587=VERTEX_POINT('',#1683);
#588=VERTEX_POINT('',#1685);
#589=VERTEX_POINT('',#1689);
#590=VERTEX_POINT('',#1691);
#591=VERTEX_POINT('',#1695);
#592=VERTEX_POINT('',#1697);
#593=VERTEX_POINT('',#1701);
#594=VERTEX_POINT('',#1702);
#595=VERTEX_POINT('',#1704);
#596=VERTEX_POINT('',#1708);
#597=VERTEX_POINT('',#1713);
#598=VERTEX_POINT('',#1717);
#599=VERTEX_POINT('',#1718);
#600=VERTEX_POINT('',#1721);
#601=VERTEX_POINT('',#1723);
#602=VERTEX_POINT('',#1726);
#603=VERTEX_POINT('',#1730);
#604=VERTEX_POINT('',#1731);
#605=VERTEX_POINT('',#1734);
#606=VERTEX_POINT('',#1736);
#607=VERTEX_POINT('',#1741);
#608=VERTEX_POINT('',#1742);
#609=VERTEX_POINT('',#1744);
#610=VERTEX_POINT('',#1747);
#611=VERTEX_POINT('',#1749);
#612=VERTEX_POINT('',#1754);
#613=VERTEX_POINT('',#1763);
#614=VERTEX_POINT('',#1765);
#615=VERTEX_POINT('',#1767);
#616=VERTEX_POINT('',#1769);
#617=VERTEX_POINT('',#1772);
#618=VERTEX_POINT('',#1776);
#619=VERTEX_POINT('',#1779);
#620=VERTEX_POINT('',#1781);
#621=VERTEX_POINT('',#1783);
#622=VERTEX_POINT('',#1785);
#623=VERTEX_POINT('',#1787);
#624=VERTEX_POINT('',#1789);
#625=VERTEX_POINT('',#1791);
#626=VERTEX_POINT('',#1792);
#627=VERTEX_POINT('',#1794);
#628=VERTEX_POINT('',#1796);
#629=VERTEX_POINT('',#1799);
#630=VERTEX_POINT('',#1801);
#631=VERTEX_POINT('',#1805);
#632=VERTEX_POINT('',#1808);
#633=VERTEX_POINT('',#1810);
#634=VERTEX_POINT('',#1813);
#635=VERTEX_POINT('',#1815);
#636=VERTEX_POINT('',#1817);
#637=VERTEX_POINT('',#1819);
#638=VERTEX_POINT('',#1821);
#639=VERTEX_POINT('',#1823);
#640=VERTEX_POINT('',#1824);
#641=VERTEX_POINT('',#1826);
#642=VERTEX_POINT('',#1828);
#643=VERTEX_POINT('',#1850);
#644=VERTEX_POINT('',#1856);
#645=VERTEX_POINT('',#1862);
#646=VERTEX_POINT('',#1868);
#647=VERTEX_POINT('',#1874);
#648=VERTEX_POINT('',#1880);
#649=LINE('',#1572,#751);
#650=LINE('',#1577,#752);
#651=LINE('',#1581,#753);
#652=LINE('',#1586,#754);
#653=LINE('',#1590,#755);
#654=LINE('',#1595,#756);
#655=LINE('',#1599,#757);
#656=LINE('',#1604,#758);
#657=LINE('',#1608,#759);
#658=LINE('',#1611,#760);
#659=LINE('',#1613,#761);
#660=LINE('',#1615,#762);
#661=LINE('',#1617,#763);
#662=LINE('',#1619,#764);
#663=LINE('',#1621,#765);
#664=LINE('',#1623,#766);
#665=LINE('',#1625,#767);
#666=LINE('',#1627,#768);
#667=LINE('',#1629,#769);
#668=LINE('',#1631,#770);
#669=LINE('',#1633,#771);
#670=LINE('',#1635,#772);
#671=LINE('',#1637,#773);
#672=LINE('',#1639,#774);
#673=LINE('',#1641,#775);
#674=LINE('',#1644,#776);
#675=LINE('',#1646,#777);
#676=LINE('',#1648,#778);
#677=LINE('',#1650,#779);
#678=LINE('',#1652,#780);
#679=LINE('',#1654,#781);
#680=LINE('',#1656,#782);
#681=LINE('',#1658,#783);
#682=LINE('',#1660,#784);
#683=LINE('',#1662,#785);
#684=LINE('',#1663,#786);
#685=LINE('',#1664,#787);
#686=LINE('',#1666,#788);
#687=LINE('',#1668,#789);
#688=LINE('',#1670,#790);
#689=LINE('',#1672,#791);
#690=LINE('',#1674,#792);
#691=LINE('',#1676,#793);
#692=LINE('',#1678,#794);
#693=LINE('',#1680,#795);
#694=LINE('',#1682,#796);
#695=LINE('',#1684,#797);
#696=LINE('',#1686,#798);
#697=LINE('',#1688,#799);
#698=LINE('',#1690,#800);
#699=LINE('',#1692,#801);
#700=LINE('',#1694,#802);
#701=LINE('',#1696,#803);
#702=LINE('',#1698,#804);
#703=LINE('',#1700,#805);
#704=LINE('',#1703,#806);
#705=LINE('',#1705,#807);
#706=LINE('',#1706,#808);
#707=LINE('',#1707,#809);
#708=LINE('',#1709,#810);
#709=LINE('',#1711,#811);
#710=LINE('',#1712,#812);
#711=LINE('',#1714,#813);
#712=LINE('',#1716,#814);
#713=LINE('',#1719,#815);
#714=LINE('',#1720,#816);
#715=LINE('',#1722,#817);
#716=LINE('',#1724,#818);
#717=LINE('',#1725,#819);
#718=LINE('',#1727,#820);
#719=LINE('',#1729,#821);
#720=LINE('',#1732,#822);
#721=LINE('',#1733,#823);
#722=LINE('',#1735,#824);
#723=LINE('',#1737,#825);
#724=LINE('',#1738,#826);
#725=LINE('',#1740,#827);
#726=LINE('',#1743,#828);
#727=LINE('',#1745,#829);
#728=LINE('',#1746,#830);
#729=LINE('',#1748,#831);
#730=LINE('',#1750,#832);
#731=LINE('',#1751,#833);
#732=LINE('',#1753,#834);
#733=LINE('',#1755,#835);
#734=LINE('',#1756,#836);
#735=LINE('',#1777,#837);
#736=LINE('',#1790,#838);
#737=LINE('',#1793,#839);
#738=LINE('',#1795,#840);
#739=LINE('',#1797,#841);
#740=LINE('',#1809,#842);
#741=LINE('',#1822,#843);
#742=LINE('',#1825,#844);
#743=LINE('',#1827,#845);
#744=LINE('',#1829,#846);
#745=LINE('',#1832,#847);
#746=LINE('',#1834,#848);
#747=LINE('',#1837,#849);
#748=LINE('',#1838,#850);
#749=LINE('',#1840,#851);
#750=LINE('',#1842,#852);
#751=VECTOR('',#1256,1.);
#752=VECTOR('',#1259,1.);
#753=VECTOR('',#1264,1.);
#754=VECTOR('',#1267,1.);
#755=VECTOR('',#1272,1.);
#756=VECTOR('',#1275,1.);
#757=VECTOR('',#1280,1.);
#758=VECTOR('',#1283,1.);
#759=VECTOR('',#1288,1.);
#760=VECTOR('',#1289,1.);
#761=VECTOR('',#1290,1.);
#762=VECTOR('',#1291,1.);
#763=VECTOR('',#1294,1.);
#764=VECTOR('',#1295,1.);
#765=VECTOR('',#1296,1.);
#766=VECTOR('',#1299,1.);
#767=VECTOR('',#1300,1.);
#768=VECTOR('',#1301,1.);
#769=VECTOR('',#1304,1.);
#770=VECTOR('',#1305,1.);
#771=VECTOR('',#1306,1.);
#772=VECTOR('',#1309,1.);
#773=VECTOR('',#1310,1.);
#774=VECTOR('',#1311,1.);
#775=VECTOR('',#1314,1.);
#776=VECTOR('',#1315,1.);
#777=VECTOR('',#1316,1.);
#778=VECTOR('',#1317,1.);
#779=VECTOR('',#1320,1.);
#780=VECTOR('',#1321,1.);
#781=VECTOR('',#1322,1.);
#782=VECTOR('',#1325,1.);
#783=VECTOR('',#1326,1.);
#784=VECTOR('',#1327,1.);
#785=VECTOR('',#1330,1.);
#786=VECTOR('',#1331,1.);
#787=VECTOR('',#1332,1.);
#788=VECTOR('',#1333,1.);
#789=VECTOR('',#1334,1.);
#790=VECTOR('',#1337,1.);
#791=VECTOR('',#1338,1.);
#792=VECTOR('',#1339,1.);
#793=VECTOR('',#1342,1.);
#794=VECTOR('',#1343,1.);
#795=VECTOR('',#1344,1.);
#796=VECTOR('',#1347,1.);
#797=VECTOR('',#1348,1.);
#798=VECTOR('',#1349,1.);
#799=VECTOR('',#1352,1.);
#800=VECTOR('',#1353,1.);
#801=VECTOR('',#1354,1.);
#802=VECTOR('',#1357,1.);
#803=VECTOR('',#1358,1.);
#804=VECTOR('',#1359,1.);
#805=VECTOR('',#1362,1.);
#806=VECTOR('',#1363,1.);
#807=VECTOR('',#1364,1.);
#808=VECTOR('',#1365,1.);
#809=VECTOR('',#1366,1.);
#810=VECTOR('',#1367,1.);
#811=VECTOR('',#1370,1.);
#812=VECTOR('',#1371,1.);
#813=VECTOR('',#1372,1.);
#814=VECTOR('',#1375,1.);
#815=VECTOR('',#1376,1.);
#816=VECTOR('',#1377,1.);
#817=VECTOR('',#1378,1.);
#818=VECTOR('',#1379,1.);
#819=VECTOR('',#1380,1.);
#820=VECTOR('',#1381,1.);
#821=VECTOR('',#1384,1.);
#822=VECTOR('',#1385,1.);
#823=VECTOR('',#1386,1.);
#824=VECTOR('',#1387,1.);
#825=VECTOR('',#1388,1.);
#826=VECTOR('',#1389,1.);
#827=VECTOR('',#1392,1.);
#828=VECTOR('',#1393,1.);
#829=VECTOR('',#1394,1.);
#830=VECTOR('',#1395,1.);
#831=VECTOR('',#1396,1.);
#832=VECTOR('',#1397,1.);
#833=VECTOR('',#1398,1.);
#834=VECTOR('',#1401,1.);
#835=VECTOR('',#1402,1.);
#836=VECTOR('',#1403,1.);
#837=VECTOR('',#1432,1.);
#838=VECTOR('',#1445,1.);
#839=VECTOR('',#1446,1.);
#840=VECTOR('',#1447,1.);
#841=VECTOR('',#1448,1.);
#842=VECTOR('',#1463,1.);
#843=VECTOR('',#1476,1.);
#844=VECTOR('',#1477,1.);
#845=VECTOR('',#1478,1.);
#846=VECTOR('',#1479,1.);
#847=VECTOR('',#1484,1.);
#848=VECTOR('',#1487,1.);
#849=VECTOR('',#1492,1.);
#850=VECTOR('',#1493,1.);
#851=VECTOR('',#1496,1.);
#852=VECTOR('',#1499,1.);
#853=EDGE_LOOP('',(#95,#96,#97,#98));
#854=EDGE_LOOP('',(#99,#100,#101,#102));
#855=EDGE_LOOP('',(#103,#104,#105,#106));
#856=EDGE_LOOP('',(#107,#108,#109,#110));
#857=EDGE_LOOP('',(#111,#112,#113,#114));
#858=EDGE_LOOP('',(#115,#116,#117,#118));
#859=EDGE_LOOP('',(#119,#120,#121,#122));
#860=EDGE_LOOP('',(#123,#124,#125,#126));
#861=EDGE_LOOP('',(#127,#128,#129,#130));
#862=EDGE_LOOP('',(#131,#132,#133,#134));
#863=EDGE_LOOP('',(#135,#136,#137,#138));
#864=EDGE_LOOP('',(#139,#140,#141,#142));
#865=EDGE_LOOP('',(#143,#144,#145,#146,#147,#148,#149,#150));
#866=EDGE_LOOP('',(#151,#152,#153,#154));
#867=EDGE_LOOP('',(#155,#156,#157,#158));
#868=EDGE_LOOP('',(#159,#160,#161,#162));
#869=EDGE_LOOP('',(#163,#164,#165,#166));
#870=EDGE_LOOP('',(#167,#168,#169,#170));
#871=EDGE_LOOP('',(#171,#172,#173,#174,#175,#176,#177,#178));
#872=EDGE_LOOP('',(#179,#180,#181,#182,#183));
#873=EDGE_LOOP('',(#184,#185,#186,#187,#188,#189,#190,#191,#192));
#874=EDGE_LOOP('',(#193,#194,#195,#196,#197,#198,#199,#200));
#875=EDGE_LOOP('',(#201,#202,#203,#204,#205,#206,#207,#208,#209));
#876=EDGE_LOOP('',(#210,#211,#212,#213,#214));
#877=EDGE_LOOP('',(#215,#216,#217,#218,#219,#220,#221,#222,#223,#224,#225,
#226,#227,#228,#229,#230,#231,#232,#233,#234,#235,#236,#237,#238,#239,#240));
#878=EDGE_LOOP('',(#241));
#879=EDGE_LOOP('',(#242));
#880=EDGE_LOOP('',(#243));
#881=EDGE_LOOP('',(#244));
#882=EDGE_LOOP('',(#245,#246,#247,#248,#249,#250,#251,#252));
#883=EDGE_LOOP('',(#253,#254,#255,#256));
#884=EDGE_LOOP('',(#257));
#885=EDGE_LOOP('',(#258));
#886=EDGE_LOOP('',(#259));
#887=EDGE_LOOP('',(#260));
#888=EDGE_LOOP('',(#261));
#889=EDGE_LOOP('',(#262));
#890=EDGE_LOOP('',(#263,#264,#265,#266));
#891=EDGE_LOOP('',(#267));
#892=EDGE_LOOP('',(#268));
#893=EDGE_LOOP('',(#269,#270,#271,#272,#273,#274,#275,#276,#277,#278,#279,
#280));
#894=EDGE_LOOP('',(#281));
#895=EDGE_LOOP('',(#282));
#896=EDGE_LOOP('',(#283));
#897=EDGE_LOOP('',(#284,#285,#286,#287,#288,#289,#290,#291,#292,#293));
#898=EDGE_LOOP('',(#294));
#899=EDGE_LOOP('',(#295));
#900=EDGE_LOOP('',(#296));
#901=EDGE_LOOP('',(#297));
#902=EDGE_LOOP('',(#298));
#903=EDGE_LOOP('',(#299,#300,#301,#302));
#904=EDGE_LOOP('',(#303));
#905=EDGE_LOOP('',(#304));
#906=EDGE_LOOP('',(#305,#306,#307,#308));
#907=EDGE_LOOP('',(#309,#310,#311,#312));
#908=EDGE_LOOP('',(#313,#314,#315,#316));
#909=EDGE_LOOP('',(#317,#318,#319,#320));
#910=EDGE_LOOP('',(#321,#322,#323,#324));
#911=EDGE_LOOP('',(#325,#326,#327,#328));
#912=EDGE_LOOP('',(#329,#330,#331,#332));
#913=EDGE_LOOP('',(#333));
#914=EDGE_LOOP('',(#334));
#915=EDGE_LOOP('',(#335));
#916=EDGE_LOOP('',(#336));
#917=EDGE_LOOP('',(#337));
#918=EDGE_LOOP('',(#338));
#919=EDGE_LOOP('',(#339));
#920=EDGE_LOOP('',(#340));
#921=EDGE_LOOP('',(#341));
#922=EDGE_LOOP('',(#342));
#923=EDGE_LOOP('',(#343,#344,#345,#346));
#924=EDGE_LOOP('',(#347));
#925=EDGE_LOOP('',(#348,#349));
#926=EDGE_LOOP('',(#350));
#927=EDGE_LOOP('',(#351));
#928=EDGE_LOOP('',(#352,#353,#354,#355));
#929=EDGE_LOOP('',(#356));
#930=EDGE_LOOP('',(#357,#358));
#931=EDGE_LOOP('',(#359));
#932=EDGE_LOOP('',(#360));
#933=EDGE_LOOP('',(#361,#362,#363,#364));
#934=EDGE_LOOP('',(#365));
#935=EDGE_LOOP('',(#366,#367));
#936=EDGE_LOOP('',(#368));
#937=EDGE_LOOP('',(#369));
#938=EDGE_LOOP('',(#370,#371,#372,#373));
#939=EDGE_LOOP('',(#374));
#940=EDGE_LOOP('',(#375,#376));
#941=EDGE_LOOP('',(#377));
#942=EDGE_LOOP('',(#378));
#943=EDGE_LOOP('',(#379,#380,#381,#382));
#944=EDGE_LOOP('',(#383));
#945=EDGE_LOOP('',(#384,#385));
#946=EDGE_LOOP('',(#386));
#947=EDGE_LOOP('',(#387));
#948=EDGE_LOOP('',(#388,#389,#390,#391));
#949=EDGE_LOOP('',(#392));
#950=EDGE_LOOP('',(#393,#394));
#951=FACE_BOUND('',#853,.T.);
#952=FACE_BOUND('',#854,.T.);
#953=FACE_BOUND('',#855,.T.);
#954=FACE_BOUND('',#856,.T.);
#955=FACE_BOUND('',#857,.T.);
#956=FACE_BOUND('',#858,.T.);
#957=FACE_BOUND('',#859,.T.);
#958=FACE_BOUND('',#860,.T.);
#959=FACE_BOUND('',#861,.T.);
#960=FACE_BOUND('',#862,.T.);
#961=FACE_BOUND('',#863,.T.);
#962=FACE_BOUND('',#864,.T.);
#963=FACE_BOUND('',#865,.T.);
#964=FACE_BOUND('',#866,.T.);
#965=FACE_BOUND('',#867,.T.);
#966=FACE_BOUND('',#868,.T.);
#967=FACE_BOUND('',#869,.T.);
#968=FACE_BOUND('',#870,.T.);
#969=FACE_BOUND('',#871,.T.);
#970=FACE_BOUND('',#872,.T.);
#971=FACE_BOUND('',#873,.T.);
#972=FACE_BOUND('',#874,.T.);
#973=FACE_BOUND('',#875,.T.);
#974=FACE_BOUND('',#876,.T.);
#975=FACE_BOUND('',#877,.T.);
#976=FACE_BOUND('',#878,.T.);
#977=FACE_BOUND('',#879,.T.);
#978=FACE_BOUND('',#880,.T.);
#979=FACE_BOUND('',#881,.T.);
#980=FACE_BOUND('',#882,.T.);
#981=FACE_BOUND('',#883,.T.);
#982=FACE_BOUND('',#884,.T.);
#983=FACE_BOUND('',#885,.T.);
#984=FACE_BOUND('',#886,.T.);
#985=FACE_BOUND('',#887,.T.);
#986=FACE_BOUND('',#888,.T.);
#987=FACE_BOUND('',#889,.T.);
#988=FACE_BOUND('',#890,.T.);
#989=FACE_BOUND('',#891,.T.);
#990=FACE_BOUND('',#892,.T.);
#991=FACE_BOUND('',#893,.T.);
#992=FACE_BOUND('',#894,.T.);
#993=FACE_BOUND('',#895,.T.);
#994=FACE_BOUND('',#896,.T.);
#995=FACE_BOUND('',#897,.T.);
#996=FACE_BOUND('',#898,.T.);
#997=FACE_BOUND('',#899,.T.);
#998=FACE_BOUND('',#900,.T.);
#999=FACE_BOUND('',#901,.T.);
#1000=FACE_BOUND('',#902,.T.);
#1001=FACE_BOUND('',#903,.T.);
#1002=FACE_BOUND('',#904,.T.);
#1003=FACE_BOUND('',#905,.T.);
#1004=FACE_BOUND('',#906,.T.);
#1005=FACE_BOUND('',#907,.T.);
#1006=FACE_BOUND('',#908,.T.);
#1007=FACE_BOUND('',#909,.T.);
#1008=FACE_BOUND('',#910,.T.);
#1009=FACE_BOUND('',#911,.T.);
#1010=FACE_BOUND('',#912,.T.);
#1011=FACE_BOUND('',#913,.T.);
#1012=FACE_BOUND('',#914,.T.);
#1013=FACE_BOUND('',#915,.T.);
#1014=FACE_BOUND('',#916,.T.);
#1015=FACE_BOUND('',#917,.T.);
#1016=FACE_BOUND('',#918,.T.);
#1017=FACE_BOUND('',#919,.T.);
#1018=FACE_BOUND('',#920,.T.);
#1019=FACE_BOUND('',#921,.T.);
#1020=FACE_BOUND('',#922,.T.);
#1021=FACE_BOUND('',#923,.T.);
#1022=FACE_BOUND('',#924,.T.);
#1023=FACE_BOUND('',#925,.T.);
#1024=FACE_BOUND('',#926,.T.);
#1025=FACE_BOUND('',#927,.T.);
#1026=FACE_BOUND('',#928,.T.);
#1027=FACE_BOUND('',#929,.T.);
#1028=FACE_BOUND('',#930,.T.);
#1029=FACE_BOUND('',#931,.T.);
#1030=FACE_BOUND('',#932,.T.);
#1031=FACE_BOUND('',#933,.T.);
#1032=FACE_BOUND('',#934,.T.);
#1033=FACE_BOUND('',#935,.T.);
#1034=FACE_BOUND('',#936,.T.);
#1035=FACE_BOUND('',#937,.T.);
#1036=FACE_BOUND('',#938,.T.);
#1037=FACE_BOUND('',#939,.T.);
#1038=FACE_BOUND('',#940,.T.);
#1039=FACE_BOUND('',#941,.T.);
#1040=FACE_BOUND('',#942,.T.);
#1041=FACE_BOUND('',#943,.T.);
#1042=FACE_BOUND('',#944,.T.);
#1043=FACE_BOUND('',#945,.T.);
#1044=FACE_BOUND('',#946,.T.);
#1045=FACE_BOUND('',#947,.T.);
#1046=FACE_BOUND('',#948,.T.);
#1047=FACE_BOUND('',#949,.T.);
#1048=FACE_BOUND('',#950,.T.);
#1049=CYLINDRICAL_SURFACE('',#1145,0.0025);
#1050=CYLINDRICAL_SURFACE('',#1148,0.0025);
#1051=CYLINDRICAL_SURFACE('',#1151,0.0025);
#1052=CYLINDRICAL_SURFACE('',#1154,0.00249999999999997);
#1053=CYLINDRICAL_SURFACE('',#1200,0.0016);
#1054=CYLINDRICAL_SURFACE('',#1210,0.0016);
#1055=CYLINDRICAL_SURFACE('',#1211,0.0025);
#1056=CYLINDRICAL_SURFACE('',#1213,0.0025);
#1057=CYLINDRICAL_SURFACE('',#1218,0.0016);
#1058=CYLINDRICAL_SURFACE('',#1219,0.0016);
#1059=CYLINDRICAL_SURFACE('',#1220,0.0016);
#1060=CYLINDRICAL_SURFACE('',#1221,0.0016);
#1061=CYLINDRICAL_SURFACE('',#1222,0.00160087218777354);
#1062=CYLINDRICAL_SURFACE('',#1224,0.0025);
#1063=CYLINDRICAL_SURFACE('',#1227,0.001599209713779);
#1064=CYLINDRICAL_SURFACE('',#1229,0.0025);
#1065=CYLINDRICAL_SURFACE('',#1232,0.0016);
#1066=CYLINDRICAL_SURFACE('',#1234,0.00249999999999997);
#1067=CYLINDRICAL_SURFACE('',#1237,0.00160087218777354);
#1068=CYLINDRICAL_SURFACE('',#1239,0.0025);
#1069=CYLINDRICAL_SURFACE('',#1242,0.001599209713779);
#1070=CYLINDRICAL_SURFACE('',#1244,0.0025);
#1071=CYLINDRICAL_SURFACE('',#1247,0.0016);
#1072=CYLINDRICAL_SURFACE('',#1249,0.0025);
#1073=ADVANCED_FACE('',(#951),#1049,.F.);
#1074=ADVANCED_FACE('',(#952),#1050,.F.);
#1075=ADVANCED_FACE('',(#953),#1051,.F.);
#1076=ADVANCED_FACE('',(#954),#1052,.F.);
#1077=ADVANCED_FACE('',(#955),#12,.T.);
#1078=ADVANCED_FACE('',(#956),#13,.T.);
#1079=ADVANCED_FACE('',(#957),#14,.T.);
#1080=ADVANCED_FACE('',(#958),#15,.T.);
#1081=ADVANCED_FACE('',(#959),#16,.T.);
#1082=ADVANCED_FACE('',(#960),#17,.T.);
#1083=ADVANCED_FACE('',(#961),#18,.F.);
#1084=ADVANCED_FACE('',(#962),#19,.F.);
#1085=ADVANCED_FACE('',(#963),#20,.F.);
#1086=ADVANCED_FACE('',(#964),#21,.F.);
#1087=ADVANCED_FACE('',(#965),#22,.F.);
#1088=ADVANCED_FACE('',(#966),#23,.T.);
#1089=ADVANCED_FACE('',(#967),#24,.F.);
#1090=ADVANCED_FACE('',(#968),#25,.F.);
#1091=ADVANCED_FACE('',(#969),#26,.T.);
#1092=ADVANCED_FACE('',(#970),#27,.T.);
#1093=ADVANCED_FACE('',(#971),#28,.T.);
#1094=ADVANCED_FACE('',(#972),#29,.F.);
#1095=ADVANCED_FACE('',(#973),#30,.F.);
#1096=ADVANCED_FACE('',(#974),#31,.F.);
#1097=ADVANCED_FACE('',(#975,#976,#977,#978,#979),#32,.T.);
#1098=ADVANCED_FACE('',(#980,#981,#982,#983,#984,#985,#986,#987,#988,#989,
#990),#33,.F.);
#1099=ADVANCED_FACE('',(#991),#34,.T.);
#1100=ADVANCED_FACE('',(#992,#993),#1053,.F.);
#1101=ADVANCED_FACE('',(#994,#995,#996,#997,#998,#999,#1000,#1001),#35,
 .T.);
#1102=ADVANCED_FACE('',(#1002,#1003),#1054,.F.);
#1103=ADVANCED_FACE('',(#1004),#1055,.T.);
#1104=ADVANCED_FACE('',(#1005),#36,.F.);
#1105=ADVANCED_FACE('',(#1006),#1056,.T.);
#1106=ADVANCED_FACE('',(#1007),#37,.T.);
#1107=ADVANCED_FACE('',(#1008),#38,.T.);
#1108=ADVANCED_FACE('',(#1009),#39,.F.);
#1109=ADVANCED_FACE('',(#1010),#40,.F.);
#1110=ADVANCED_FACE('',(#1011,#1012),#1057,.F.);
#1111=ADVANCED_FACE('',(#1013,#1014),#1058,.F.);
#1112=ADVANCED_FACE('',(#1015,#1016),#1059,.F.);
#1113=ADVANCED_FACE('',(#1017,#1018),#1060,.F.);
#1114=ADVANCED_FACE('',(#1019,#1020),#1061,.F.);
#1115=ADVANCED_FACE('',(#1021),#1062,.T.);
#1116=ADVANCED_FACE('',(#1022,#1023),#41,.T.);
#1117=ADVANCED_FACE('',(#1024,#1025),#1063,.F.);
#1118=ADVANCED_FACE('',(#1026),#1064,.T.);
#1119=ADVANCED_FACE('',(#1027,#1028),#42,.T.);
#1120=ADVANCED_FACE('',(#1029,#1030),#1065,.F.);
#1121=ADVANCED_FACE('',(#1031),#1066,.T.);
#1122=ADVANCED_FACE('',(#1032,#1033),#43,.F.);
#1123=ADVANCED_FACE('',(#1034,#1035),#1067,.F.);
#1124=ADVANCED_FACE('',(#1036),#1068,.T.);
#1125=ADVANCED_FACE('',(#1037,#1038),#44,.F.);
#1126=ADVANCED_FACE('',(#1039,#1040),#1069,.F.);
#1127=ADVANCED_FACE('',(#1041),#1070,.T.);
#1128=ADVANCED_FACE('',(#1042,#1043),#45,.F.);
#1129=ADVANCED_FACE('',(#1044,#1045),#1071,.F.);
#1130=ADVANCED_FACE('',(#1046),#1072,.T.);
#1131=ADVANCED_FACE('',(#1047,#1048),#46,.F.);
#1132=CLOSED_SHELL('',(#1073,#1074,#1075,#1076,#1077,#1078,#1079,#1080,
#1081,#1082,#1083,#1084,#1085,#1086,#1087,#1088,#1089,#1090,#1091,#1092,
#1093,#1094,#1095,#1096,#1097,#1098,#1099,#1100,#1101,#1102,#1103,#1104,
#1105,#1106,#1107,#1108,#1109,#1110,#1111,#1112,#1113,#1114,#1115,#1116,
#1117,#1118,#1119,#1120,#1121,#1122,#1123,#1124,#1125,#1126,#1127,#1128,
#1129,#1130,#1131));
#1133=STYLED_ITEM('',(#1134),#1141);
#1134=PRESENTATION_STYLE_ASSIGNMENT((#1135));
#1135=SURFACE_STYLE_USAGE(.BOTH.,#1136);
#1136=SURFACE_SIDE_STYLE('',(#1137));
#1137=SURFACE_STYLE_FILL_AREA(#1138);
#1138=FILL_AREA_STYLE('',(#1139));
#1139=FILL_AREA_STYLE_COLOUR('',#1140);
#1140=COLOUR_RGB('',0.615686274509804,0.811764705882353,0.929411764705882);
#1141=MANIFOLD_SOLID_BREP('Part 2',#1132);
#1142=SHAPE_DEFINITION_REPRESENTATION(#1890,#1143);
#1143=SHAPE_REPRESENTATION('Part 2',(#1144),#1885);
#1144=AXIS2_PLACEMENT_3D('',#1570,#1252,#1253);
#1145=AXIS2_PLACEMENT_3D('',#1571,#1254,#1255);
#1146=AXIS2_PLACEMENT_3D('',#1575,#1257,#1258);
#1147=AXIS2_PLACEMENT_3D('',#1579,#1260,#1261);
#1148=AXIS2_PLACEMENT_3D('',#1580,#1262,#1263);
#1149=AXIS2_PLACEMENT_3D('',#1584,#1265,#1266);
#1150=AXIS2_PLACEMENT_3D('',#1588,#1268,#1269);
#1151=AXIS2_PLACEMENT_3D('',#1589,#1270,#1271);
#1152=AXIS2_PLACEMENT_3D('',#1593,#1273,#1274);
#1153=AXIS2_PLACEMENT_3D('',#1597,#1276,#1277);
#1154=AXIS2_PLACEMENT_3D('',#1598,#1278,#1279);
#1155=AXIS2_PLACEMENT_3D('',#1602,#1281,#1282);
#1156=AXIS2_PLACEMENT_3D('',#1606,#1284,#1285);
#1157=AXIS2_PLACEMENT_3D('',#1607,#1286,#1287);
#1158=AXIS2_PLACEMENT_3D('',#1616,#1292,#1293);
#1159=AXIS2_PLACEMENT_3D('',#1622,#1297,#1298);
#1160=AXIS2_PLACEMENT_3D('',#1628,#1302,#1303);
#1161=AXIS2_PLACEMENT_3D('',#1634,#1307,#1308);
#1162=AXIS2_PLACEMENT_3D('',#1640,#1312,#1313);
#1163=AXIS2_PLACEMENT_3D('',#1649,#1318,#1319);
#1164=AXIS2_PLACEMENT_3D('',#1655,#1323,#1324);
#1165=AXIS2_PLACEMENT_3D('',#1661,#1328,#1329);
#1166=AXIS2_PLACEMENT_3D('',#1669,#1335,#1336);
#1167=AXIS2_PLACEMENT_3D('',#1675,#1340,#1341);
#1168=AXIS2_PLACEMENT_3D('',#1681,#1345,#1346);
#1169=AXIS2_PLACEMENT_3D('',#1687,#1350,#1351);
#1170=AXIS2_PLACEMENT_3D('',#1693,#1355,#1356);
#1171=AXIS2_PLACEMENT_3D('',#1699,#1360,#1361);
#1172=AXIS2_PLACEMENT_3D('',#1710,#1368,#1369);
#1173=AXIS2_PLACEMENT_3D('',#1715,#1373,#1374);
#1174=AXIS2_PLACEMENT_3D('',#1728,#1382,#1383);
#1175=AXIS2_PLACEMENT_3D('',#1739,#1390,#1391);
#1176=AXIS2_PLACEMENT_3D('',#1752,#1399,#1400);
#1177=AXIS2_PLACEMENT_3D('',#1757,#1404,#1405);
#1178=AXIS2_PLACEMENT_3D('',#1758,#1406,#1407);
#1179=AXIS2_PLACEMENT_3D('',#1759,#1408,#1409);
#1180=AXIS2_PLACEMENT_3D('',#1760,#1410,#1411);
#1181=AXIS2_PLACEMENT_3D('',#1761,#1412,#1413);
#1182=AXIS2_PLACEMENT_3D('',#1762,#1414,#1415);
#1183=AXIS2_PLACEMENT_3D('',#1764,#1416,#1417);
#1184=AXIS2_PLACEMENT_3D('',#1766,#1418,#1419);
#1185=AXIS2_PLACEMENT_3D('',#1768,#1420,#1421);
#1186=AXIS2_PLACEMENT_3D('',#1770,#1422,#1423);
#1187=AXIS2_PLACEMENT_3D('',#1771,#1424,#1425);
#1188=AXIS2_PLACEMENT_3D('',#1773,#1426,#1427);
#1189=AXIS2_PLACEMENT_3D('',#1774,#1428,#1429);
#1190=AXIS2_PLACEMENT_3D('',#1775,#1430,#1431);
#1191=AXIS2_PLACEMENT_3D('',#1778,#1433,#1434);
#1192=AXIS2_PLACEMENT_3D('',#1780,#1435,#1436);
#1193=AXIS2_PLACEMENT_3D('',#1782,#1437,#1438);
#1194=AXIS2_PLACEMENT_3D('',#1784,#1439,#1440);
#1195=AXIS2_PLACEMENT_3D('',#1786,#1441,#1442);
#1196=AXIS2_PLACEMENT_3D('',#1788,#1443,#1444);
#1197=AXIS2_PLACEMENT_3D('',#1798,#1449,#1450);
#1198=AXIS2_PLACEMENT_3D('',#1800,#1451,#1452);
#1199=AXIS2_PLACEMENT_3D('',#1802,#1453,#1454);
#1200=AXIS2_PLACEMENT_3D('',#1803,#1455,#1456);
#1201=AXIS2_PLACEMENT_3D('',#1804,#1457,#1458);
#1202=AXIS2_PLACEMENT_3D('',#1806,#1459,#1460);
#1203=AXIS2_PLACEMENT_3D('',#1807,#1461,#1462);
#1204=AXIS2_PLACEMENT_3D('',#1811,#1464,#1465);
#1205=AXIS2_PLACEMENT_3D('',#1812,#1466,#1467);
#1206=AXIS2_PLACEMENT_3D('',#1814,#1468,#1469);
#1207=AXIS2_PLACEMENT_3D('',#1816,#1470,#1471);
#1208=AXIS2_PLACEMENT_3D('',#1818,#1472,#1473);
#1209=AXIS2_PLACEMENT_3D('',#1820,#1474,#1475);
#1210=AXIS2_PLACEMENT_3D('',#1830,#1480,#1481);
#1211=AXIS2_PLACEMENT_3D('',#1831,#1482,#1483);
#1212=AXIS2_PLACEMENT_3D('',#1833,#1485,#1486);
#1213=AXIS2_PLACEMENT_3D('',#1835,#1488,#1489);
#1214=AXIS2_PLACEMENT_3D('',#1836,#1490,#1491);
#1215=AXIS2_PLACEMENT_3D('',#1839,#1494,#1495);
#1216=AXIS2_PLACEMENT_3D('',#1841,#1497,#1498);
#1217=AXIS2_PLACEMENT_3D('',#1843,#1500,#1501);
#1218=AXIS2_PLACEMENT_3D('',#1844,#1502,#1503);
#1219=AXIS2_PLACEMENT_3D('',#1845,#1504,#1505);
#1220=AXIS2_PLACEMENT_3D('',#1846,#1506,#1507);
#1221=AXIS2_PLACEMENT_3D('',#1847,#1508,#1509);
#1222=AXIS2_PLACEMENT_3D('',#1848,#1510,#1511);
#1223=AXIS2_PLACEMENT_3D('',#1849,#1512,#1513);
#1224=AXIS2_PLACEMENT_3D('',#1851,#1514,#1515);
#1225=AXIS2_PLACEMENT_3D('',#1852,#1516,#1517);
#1226=AXIS2_PLACEMENT_3D('',#1853,#1518,#1519);
#1227=AXIS2_PLACEMENT_3D('',#1854,#1520,#1521);
#1228=AXIS2_PLACEMENT_3D('',#1855,#1522,#1523);
#1229=AXIS2_PLACEMENT_3D('',#1857,#1524,#1525);
#1230=AXIS2_PLACEMENT_3D('',#1858,#1526,#1527);
#1231=AXIS2_PLACEMENT_3D('',#1859,#1528,#1529);
#1232=AXIS2_PLACEMENT_3D('',#1860,#1530,#1531);
#1233=AXIS2_PLACEMENT_3D('',#1861,#1532,#1533);
#1234=AXIS2_PLACEMENT_3D('',#1863,#1534,#1535);
#1235=AXIS2_PLACEMENT_3D('',#1864,#1536,#1537);
#1236=AXIS2_PLACEMENT_3D('',#1865,#1538,#1539);
#1237=AXIS2_PLACEMENT_3D('',#1866,#1540,#1541);
#1238=AXIS2_PLACEMENT_3D('',#1867,#1542,#1543);
#1239=AXIS2_PLACEMENT_3D('',#1869,#1544,#1545);
#1240=AXIS2_PLACEMENT_3D('',#1870,#1546,#1547);
#1241=AXIS2_PLACEMENT_3D('',#1871,#1548,#1549);
#1242=AXIS2_PLACEMENT_3D('',#1872,#1550,#1551);
#1243=AXIS2_PLACEMENT_3D('',#1873,#1552,#1553);
#1244=AXIS2_PLACEMENT_3D('',#1875,#1554,#1555);
#1245=AXIS2_PLACEMENT_3D('',#1876,#1556,#1557);
#1246=AXIS2_PLACEMENT_3D('',#1877,#1558,#1559);
#1247=AXIS2_PLACEMENT_3D('',#1878,#1560,#1561);
#1248=AXIS2_PLACEMENT_3D('',#1879,#1562,#1563);
#1249=AXIS2_PLACEMENT_3D('',#1881,#1564,#1565);
#1250=AXIS2_PLACEMENT_3D('',#1882,#1566,#1567);
#1251=AXIS2_PLACEMENT_3D('',#1883,#1568,#1569);
#1252=DIRECTION('',(0.,0.,1.));
#1253=DIRECTION('',(1.,0.,0.));
#1254=DIRECTION('',(0.,0.,-1.));
#1255=DIRECTION('',(-1.,0.,0.));
#1256=DIRECTION('',(0.,0.,-1.));
#1257=DIRECTION('',(0.,0.,1.));
#1258=DIRECTION('',(1.,0.,0.));
#1259=DIRECTION('',(0.,0.,-1.));
#1260=DIRECTION('',(0.,0.,1.));
#1261=DIRECTION('',(1.,0.,0.));
#1262=DIRECTION('',(0.,0.,-1.));
#1263=DIRECTION('',(-1.,0.,0.));
#1264=DIRECTION('',(0.,0.,-1.));
#1265=DIRECTION('',(0.,0.,1.));
#1266=DIRECTION('',(1.,9.54097911787238E-15,0.));
#1267=DIRECTION('',(0.,0.,-1.));
#1268=DIRECTION('',(0.,0.,1.));
#1269=DIRECTION('',(1.,9.54097911787238E-15,0.));
#1270=DIRECTION('',(0.,0.,-1.));
#1271=DIRECTION('',(-1.,0.,0.));
#1272=DIRECTION('',(0.,0.,-1.));
#1273=DIRECTION('',(0.,0.,1.));
#1274=DIRECTION('',(-1.,0.,0.));
#1275=DIRECTION('',(0.,0.,-1.));
#1276=DIRECTION('',(0.,0.,1.));
#1277=DIRECTION('',(-1.,0.,0.));
#1278=DIRECTION('',(0.,0.,-1.));
#1279=DIRECTION('',(-1.,0.,0.));
#1280=DIRECTION('',(0.,0.,-1.));
#1281=DIRECTION('',(0.,0.,1.));
#1282=DIRECTION('',(-1.73472347597682E-16,-1.,0.));
#1283=DIRECTION('',(0.,0.,-1.));
#1284=DIRECTION('',(0.,0.,1.));
#1285=DIRECTION('',(-1.73472347597682E-16,-1.,0.));
#1286=DIRECTION('',(1.,0.,0.));
#1287=DIRECTION('',(0.,0.,-1.));
#1288=DIRECTION('',(0.,-1.,0.));
#1289=DIRECTION('',(0.,0.,-1.));
#1290=DIRECTION('',(0.,-1.,0.));
#1291=DIRECTION('',(0.,0.,-1.));
#1292=DIRECTION('',(0.,1.,0.));
#1293=DIRECTION('',(0.,0.,1.));
#1294=DIRECTION('',(1.,0.,0.));
#1295=DIRECTION('',(0.,0.,-1.));
#1296=DIRECTION('',(1.,0.,0.));
#1297=DIRECTION('',(1.,0.,0.));
#1298=DIRECTION('',(0.,0.,-1.));
#1299=DIRECTION('',(0.,-1.,0.));
#1300=DIRECTION('',(0.,0.,-1.));
#1301=DIRECTION('',(0.,-1.,0.));
#1302=DIRECTION('',(1.22912959809095E-16,-1.,0.));
#1303=DIRECTION('',(1.,1.22912959809095E-16,0.));
#1304=DIRECTION('',(-1.,-1.22912959809095E-16,0.));
#1305=DIRECTION('',(0.,0.,-1.));
#1306=DIRECTION('',(-1.,-1.22912959809095E-16,0.));
#1307=DIRECTION('',(1.,0.,0.));
#1308=DIRECTION('',(0.,0.,-1.));
#1309=DIRECTION('',(0.,-1.,0.));
#1310=DIRECTION('',(0.,0.,-1.));
#1311=DIRECTION('',(0.,-1.,0.));
#1312=DIRECTION('',(1.,1.25883734510437E-15,0.));
#1313=DIRECTION('',(-1.25883734510437E-15,1.,0.));
#1314=DIRECTION('',(1.25883734510437E-15,-1.,0.));
#1315=DIRECTION('',(0.,0.,-1.));
#1316=DIRECTION('',(1.25883734510437E-15,-1.,0.));
#1317=DIRECTION('',(0.,0.,-1.));
#1318=DIRECTION('',(0.0018449344030864,0.999998298107076,0.));
#1319=DIRECTION('',(-0.999998298107076,0.0018449344030864,0.));
#1320=DIRECTION('',(0.999998298107076,-0.0018449344030864,0.));
#1321=DIRECTION('',(0.,0.,-1.));
#1322=DIRECTION('',(0.999998298107076,-0.0018449344030864,0.));
#1323=DIRECTION('',(1.,0.,0.));
#1324=DIRECTION('',(0.,0.,-1.));
#1325=DIRECTION('',(0.,-1.,0.));
#1326=DIRECTION('',(0.,0.,-1.));
#1327=DIRECTION('',(0.,-1.,0.));
#1328=DIRECTION('',(0.,-1.,0.));
#1329=DIRECTION('',(0.,0.,-1.));
#1330=DIRECTION('',(-1.,0.,0.));
#1331=DIRECTION('',(1.,0.,0.));
#1332=DIRECTION('',(-1.,0.,0.));
#1333=DIRECTION('',(0.,0.,-1.));
#1334=DIRECTION('',(-1.,0.,0.));
#1335=DIRECTION('',(1.,0.,0.));
#1336=DIRECTION('',(0.,0.,-1.));
#1337=DIRECTION('',(0.,-1.,0.));
#1338=DIRECTION('',(0.,0.,-1.));
#1339=DIRECTION('',(0.,-1.,0.));
#1340=DIRECTION('',(0.,-1.,0.));
#1341=DIRECTION('',(0.,0.,-1.));
#1342=DIRECTION('',(-1.,0.,0.));
#1343=DIRECTION('',(0.,0.,-1.));
#1344=DIRECTION('',(-1.,0.,0.));
#1345=DIRECTION('',(-1.,0.,0.));
#1346=DIRECTION('',(0.,0.,1.));
#1347=DIRECTION('',(0.,1.,0.));
#1348=DIRECTION('',(0.,0.,-1.));
#1349=DIRECTION('',(0.,1.,0.));
#1350=DIRECTION('',(0.,-1.,0.));
#1351=DIRECTION('',(0.,0.,-1.));
#1352=DIRECTION('',(-1.,0.,0.));
#1353=DIRECTION('',(0.,0.,-1.));
#1354=DIRECTION('',(-1.,0.,0.));
#1355=DIRECTION('',(1.,0.,0.));
#1356=DIRECTION('',(0.,0.,-1.));
#1357=DIRECTION('',(0.,-1.,0.));
#1358=DIRECTION('',(0.,0.,-1.));
#1359=DIRECTION('',(0.,-1.,0.));
#1360=DIRECTION('',(1.63776388437301E-16,-1.,0.));
#1361=DIRECTION('',(1.,1.63776388437301E-16,0.));
#1362=DIRECTION('',(1.,0.,0.));
#1363=DIRECTION('',(0.,0.,-1.));
#1364=DIRECTION('',(-1.,-1.63776388437301E-16,0.));
#1365=DIRECTION('',(-1.,-1.13914547342278E-16,0.));
#1366=DIRECTION('',(-1.,-1.10482083707833E-16,0.));
#1367=DIRECTION('',(0.,0.,-1.));
#1368=DIRECTION('',(1.,0.,0.));
#1369=DIRECTION('',(0.,0.,-1.));
#1370=DIRECTION('',(0.,-1.,0.));
#1371=DIRECTION('',(0.,0.,-1.));
#1372=DIRECTION('',(0.,-1.,0.));
#1373=DIRECTION('',(1.,0.,0.));
#1374=DIRECTION('',(0.,0.,-1.));
#1375=DIRECTION('',(0.,-1.,0.));
#1376=DIRECTION('',(0.,0.,-1.));
#1377=DIRECTION('',(0.,0.,-1.));
#1378=DIRECTION('',(0.,-1.,0.));
#1379=DIRECTION('',(0.,0.,-1.));
#1380=DIRECTION('',(0.,-1.,0.));
#1381=DIRECTION('',(0.,0.,-1.));
#1382=DIRECTION('',(0.,-1.,0.));
#1383=DIRECTION('',(0.,0.,-1.));
#1384=DIRECTION('',(-1.,0.,0.));
#1385=DIRECTION('',(0.,0.,-1.));
#1386=DIRECTION('',(0.,0.,-1.));
#1387=DIRECTION('',(-1.,0.,0.));
#1388=DIRECTION('',(0.,0.,-1.));
#1389=DIRECTION('',(0.,0.,-1.));
#1390=DIRECTION('',(1.,0.,0.));
#1391=DIRECTION('',(0.,0.,-1.));
#1392=DIRECTION('',(0.,-1.,0.));
#1393=DIRECTION('',(0.,0.,-1.));
#1394=DIRECTION('',(0.,-1.,0.));
#1395=DIRECTION('',(0.,0.,-1.));
#1396=DIRECTION('',(0.,-1.,0.));
#1397=DIRECTION('',(0.,0.,-1.));
#1398=DIRECTION('',(0.,0.,-1.));
#1399=DIRECTION('',(1.,0.,0.));
#1400=DIRECTION('',(0.,0.,-1.));
#1401=DIRECTION('',(0.,0.,-1.));
#1402=DIRECTION('',(0.,-1.,0.));
#1403=DIRECTION('',(0.,-1.,0.));
#1404=DIRECTION('',(0.,0.,1.));
#1405=DIRECTION('',(1.,0.,0.));
#1406=DIRECTION('',(0.,0.,1.));
#1407=DIRECTION('',(1.,0.,0.));
#1408=DIRECTION('',(0.,0.,1.));
#1409=DIRECTION('',(1.,9.54097911787238E-15,0.));
#1410=DIRECTION('',(0.,0.,1.));
#1411=DIRECTION('',(-1.,0.,0.));
#1412=DIRECTION('',(0.,0.,1.));
#1413=DIRECTION('',(-1.73472347597682E-16,-1.,0.));
#1414=DIRECTION('',(0.,0.,1.));
#1415=DIRECTION('',(1.,0.,0.));
#1416=DIRECTION('',(0.,0.,1.));
#1417=DIRECTION('',(1.,0.,0.));
#1418=DIRECTION('',(0.,0.,1.));
#1419=DIRECTION('',(1.,0.,0.));
#1420=DIRECTION('',(0.,0.,1.));
#1421=DIRECTION('',(1.,0.,0.));
#1422=DIRECTION('',(0.,0.,1.));
#1423=DIRECTION('',(1.,0.,0.));
#1424=DIRECTION('',(0.,0.,1.));
#1425=DIRECTION('',(-1.,0.,0.));
#1426=DIRECTION('',(0.,0.,1.));
#1427=DIRECTION('',(-1.,0.,0.));
#1428=DIRECTION('',(0.,0.,1.));
#1429=DIRECTION('',(1.,9.54097911787238E-15,0.));
#1430=DIRECTION('',(0.,0.,1.));
#1431=DIRECTION('',(5.55111512312573E-15,-1.,0.));
#1432=DIRECTION('',(1.,0.,0.));
#1433=DIRECTION('',(0.,0.,1.));
#1434=DIRECTION('',(1.,0.,0.));
#1435=DIRECTION('',(0.,0.,1.));
#1436=DIRECTION('',(1.,0.,0.));
#1437=DIRECTION('',(0.,0.,1.));
#1438=DIRECTION('',(1.,0.,0.));
#1439=DIRECTION('',(0.,0.,1.));
#1440=DIRECTION('',(1.,0.,0.));
#1441=DIRECTION('',(0.,0.,1.));
#1442=DIRECTION('',(1.,0.,0.));
#1443=DIRECTION('',(0.,0.,1.));
#1444=DIRECTION('',(1.,0.,0.));
#1445=DIRECTION('',(1.,0.,0.));
#1446=DIRECTION('',(0.,-1.,0.));
#1447=DIRECTION('',(1.,0.,0.));
#1448=DIRECTION('',(1.44560289664734E-16,-1.,0.));
#1449=DIRECTION('',(0.,0.,1.));
#1450=DIRECTION('',(1.,0.,0.));
#1451=DIRECTION('',(0.,0.,1.));
#1452=DIRECTION('',(1.,0.,0.));
#1453=DIRECTION('',(0.,0.,1.));
#1454=DIRECTION('',(1.,0.,0.));
#1455=DIRECTION('',(0.,0.,-1.));
#1456=DIRECTION('',(-1.,0.,0.));
#1457=DIRECTION('',(0.,0.,1.));
#1458=DIRECTION('',(1.,0.,0.));
#1459=DIRECTION('',(0.,0.,1.));
#1460=DIRECTION('',(1.,0.,0.));
#1461=DIRECTION('',(0.,0.,1.));
#1462=DIRECTION('',(-1.,0.,0.));
#1463=DIRECTION('',(1.,0.,0.));
#1464=DIRECTION('',(0.,0.,1.));
#1465=DIRECTION('',(5.55111512312573E-15,-1.,0.));
#1466=DIRECTION('',(0.,0.,1.));
#1467=DIRECTION('',(1.,0.,0.));
#1468=DIRECTION('',(0.,0.,1.));
#1469=DIRECTION('',(1.,0.,0.));
#1470=DIRECTION('',(0.,0.,1.));
#1471=DIRECTION('',(1.,0.,0.));
#1472=DIRECTION('',(0.,0.,1.));
#1473=DIRECTION('',(1.,0.,0.));
#1474=DIRECTION('',(0.,0.,1.));
#1475=DIRECTION('',(1.,0.,0.));
#1476=DIRECTION('',(1.,0.,0.));
#1477=DIRECTION('',(1.44560289664734E-16,-1.,0.));
#1478=DIRECTION('',(1.,0.,0.));
#1479=DIRECTION('',(0.,-1.,0.));
#1480=DIRECTION('',(0.,0.,-1.));
#1481=DIRECTION('',(-1.,0.,0.));
#1482=DIRECTION('',(0.,0.,-1.));
#1483=DIRECTION('',(-1.,0.,0.));
#1484=DIRECTION('',(0.,0.,-1.));
#1485=DIRECTION('',(0.,1.,0.));
#1486=DIRECTION('',(0.,0.,1.));
#1487=DIRECTION('',(0.,0.,-1.));
#1488=DIRECTION('',(0.,0.,-1.));
#1489=DIRECTION('',(-1.,0.,0.));
#1490=DIRECTION('',(0.,1.,0.));
#1491=DIRECTION('',(0.,0.,1.));
#1492=DIRECTION('',(0.,0.,-1.));
#1493=DIRECTION('',(0.,0.,-1.));
#1494=DIRECTION('',(1.,1.44560289664734E-16,0.));
#1495=DIRECTION('',(-1.44560289664734E-16,1.,0.));
#1496=DIRECTION('',(0.,0.,-1.));
#1497=DIRECTION('',(0.,1.,0.));
#1498=DIRECTION('',(0.,0.,1.));
#1499=DIRECTION('',(0.,0.,-1.));
#1500=DIRECTION('',(1.,0.,0.));
#1501=DIRECTION('',(0.,0.,-1.));
#1502=DIRECTION('',(0.,0.,-1.));
#1503=DIRECTION('',(-1.,0.,0.));
#1504=DIRECTION('',(0.,0.,-1.));
#1505=DIRECTION('',(-1.,0.,0.));
#1506=DIRECTION('',(0.,0.,-1.));
#1507=DIRECTION('',(-1.,0.,0.));
#1508=DIRECTION('',(0.,0.,-1.));
#1509=DIRECTION('',(-1.,0.,0.));
#1510=DIRECTION('',(0.,0.,-1.));
#1511=DIRECTION('',(-1.,0.,0.));
#1512=DIRECTION('',(0.,0.,1.));
#1513=DIRECTION('',(1.,0.,0.));
#1514=DIRECTION('',(0.,0.,-1.));
#1515=DIRECTION('',(-1.,0.,0.));
#1516=DIRECTION('',(0.,0.,1.));
#1517=DIRECTION('',(-1.,0.,0.));
#1518=DIRECTION('',(0.,0.,1.));
#1519=DIRECTION('',(1.,0.,0.));
#1520=DIRECTION('',(0.,0.,-1.));
#1521=DIRECTION('',(-1.,0.,0.));
#1522=DIRECTION('',(0.,0.,1.));
#1523=DIRECTION('',(1.,0.,0.));
#1524=DIRECTION('',(0.,0.,-1.));
#1525=DIRECTION('',(-1.,0.,0.));
#1526=DIRECTION('',(0.,0.,1.));
#1527=DIRECTION('',(1.,9.54097911787238E-15,0.));
#1528=DIRECTION('',(0.,0.,1.));
#1529=DIRECTION('',(1.,0.,0.));
#1530=DIRECTION('',(0.,0.,-1.));
#1531=DIRECTION('',(-1.,0.,0.));
#1532=DIRECTION('',(0.,0.,1.));
#1533=DIRECTION('',(1.,0.,0.));
#1534=DIRECTION('',(0.,0.,-1.));
#1535=DIRECTION('',(-1.,0.,0.));
#1536=DIRECTION('',(0.,0.,1.));
#1537=DIRECTION('',(-1.73472347597682E-16,-1.,0.));
#1538=DIRECTION('',(0.,0.,1.));
#1539=DIRECTION('',(1.,0.,0.));
#1540=DIRECTION('',(0.,0.,-1.));
#1541=DIRECTION('',(-1.,0.,0.));
#1542=DIRECTION('',(0.,0.,1.));
#1543=DIRECTION('',(1.,0.,0.));
#1544=DIRECTION('',(0.,0.,-1.));
#1545=DIRECTION('',(-1.,0.,0.));
#1546=DIRECTION('',(0.,0.,1.));
#1547=DIRECTION('',(-1.,0.,0.));
#1548=DIRECTION('',(0.,0.,1.));
#1549=DIRECTION('',(1.,0.,0.));
#1550=DIRECTION('',(0.,0.,-1.));
#1551=DIRECTION('',(-1.,0.,0.));
#1552=DIRECTION('',(0.,0.,1.));
#1553=DIRECTION('',(1.,0.,0.));
#1554=DIRECTION('',(0.,0.,-1.));
#1555=DIRECTION('',(-1.,0.,0.));
#1556=DIRECTION('',(0.,0.,1.));
#1557=DIRECTION('',(1.,9.54097911787238E-15,0.));
#1558=DIRECTION('',(0.,0.,1.));
#1559=DIRECTION('',(1.,0.,0.));
#1560=DIRECTION('',(0.,0.,-1.));
#1561=DIRECTION('',(-1.,0.,0.));
#1562=DIRECTION('',(0.,0.,1.));
#1563=DIRECTION('',(1.,0.,0.));
#1564=DIRECTION('',(0.,0.,-1.));
#1565=DIRECTION('',(-1.,0.,0.));
#1566=DIRECTION('',(0.,0.,1.));
#1567=DIRECTION('',(1.,0.,0.));
#1568=DIRECTION('',(0.,0.,1.));
#1569=DIRECTION('',(1.,0.,0.));
#1570=CARTESIAN_POINT('',(0.,0.,0.));
#1571=CARTESIAN_POINT('',(0.110491632311344,-0.0228349674380731,0.057));
#1572=CARTESIAN_POINT('',(0.112991632311344,-0.0228349674380731,0.057));
#1573=CARTESIAN_POINT('',(0.112991632311344,-0.0228349674380731,0.047));
#1574=CARTESIAN_POINT('',(0.112991632311344,-0.0228349674380731,0.01));
#1575=CARTESIAN_POINT('',(0.110491632311344,-0.0228349674380731,0.047));
#1576=CARTESIAN_POINT('',(0.110491632311344,-0.0253349674380731,0.047));
#1577=CARTESIAN_POINT('',(0.110491632311344,-0.0253349674380731,0.057));
#1578=CARTESIAN_POINT('',(0.110491632311344,-0.0253349674380731,0.01));
#1579=CARTESIAN_POINT('',(0.110491632311344,-0.0228349674380731,0.01));
#1580=CARTESIAN_POINT('',(0.110491632311344,0.00270017572341251,0.057));
#1581=CARTESIAN_POINT('',(0.110491632311344,0.00520017572341254,0.057));
#1582=CARTESIAN_POINT('',(0.110491632311344,0.00520017572341252,0.047));
#1583=CARTESIAN_POINT('',(0.110491632311344,0.00520017572341254,0.01));
#1584=CARTESIAN_POINT('',(0.110491632311344,0.0027001757234125,0.047));
#1585=CARTESIAN_POINT('',(0.112991632311344,0.00270017572341252,0.047));
#1586=CARTESIAN_POINT('',(0.112991632311344,0.00270017572341252,0.057));
#1587=CARTESIAN_POINT('',(0.112991632311344,0.00270017572341252,0.01));
#1588=CARTESIAN_POINT('',(0.110491632311344,0.0027001757234125,0.01));
#1589=CARTESIAN_POINT('',(-0.00300836768865585,0.00270017572341252,0.057));
#1590=CARTESIAN_POINT('',(-0.00550836768865582,0.00270017572341252,0.057));
#1591=CARTESIAN_POINT('',(-0.00550836768865582,0.00270017572341252,0.047));
#1592=CARTESIAN_POINT('',(-0.00550836768865582,0.00270017572341252,0.01));
#1593=CARTESIAN_POINT('',(-0.00300836768865585,0.00270017572341252,0.047));
#1594=CARTESIAN_POINT('',(-0.00300836768865586,0.00520017572341252,0.047));
#1595=CARTESIAN_POINT('',(-0.00300836768865586,0.00520017572341252,0.057));
#1596=CARTESIAN_POINT('',(-0.00300836768865586,0.00520017572341251,0.01));
#1597=CARTESIAN_POINT('',(-0.00300836768865585,0.00270017572341252,0.01));
#1598=CARTESIAN_POINT('',(-0.00300836768865585,-0.0228349674380731,0.057));
#1599=CARTESIAN_POINT('',(-0.00300836768865585,-0.0253349674380731,0.057));
#1600=CARTESIAN_POINT('',(-0.00300836768865585,-0.0253349674380731,0.047));
#1601=CARTESIAN_POINT('',(-0.00300836768865585,-0.0253349674380731,0.01));
#1602=CARTESIAN_POINT('',(-0.00300836768865585,-0.0228349674380731,0.047));
#1603=CARTESIAN_POINT('',(-0.00550836768865582,-0.0228349674380731,0.047));
#1604=CARTESIAN_POINT('',(-0.00550836768865582,-0.0228349674380731,0.057));
#1605=CARTESIAN_POINT('',(-0.00550836768865582,-0.0228349674380731,0.01));
#1606=CARTESIAN_POINT('',(-0.00300836768865585,-0.0228349674380731,0.01));
#1607=CARTESIAN_POINT('',(0.028394433883484,-0.0238099674380731,0.057));
#1608=CARTESIAN_POINT('',(0.028394433883484,-0.0238099674380731,0.013));
#1609=CARTESIAN_POINT('',(0.028394433883484,-0.0221849674380731,0.013));
#1610=CARTESIAN_POINT('',(0.028394433883484,-0.0254349674380731,0.013));
#1611=CARTESIAN_POINT('',(0.028394433883484,-0.0221849674380731,0.057));
#1612=CARTESIAN_POINT('',(0.028394433883484,-0.0221849674380731,0.057));
#1613=CARTESIAN_POINT('',(0.028394433883484,-0.0238099674380731,0.057));
#1614=CARTESIAN_POINT('',(0.028394433883484,-0.0254349674380731,0.057));
#1615=CARTESIAN_POINT('',(0.028394433883484,-0.0254349674380731,0.057));
#1616=CARTESIAN_POINT('',(0.0259602475074228,-0.0221849674380731,0.057));
#1617=CARTESIAN_POINT('',(0.0259602475074228,-0.0221849674380731,0.013));
#1618=CARTESIAN_POINT('',(0.0235260611313616,-0.0221849674380731,0.013));
#1619=CARTESIAN_POINT('',(0.0235260611313616,-0.0221849674380731,0.057));
#1620=CARTESIAN_POINT('',(0.0235260611313616,-0.0221849674380731,0.057));
#1621=CARTESIAN_POINT('',(0.0259602475074228,-0.0221849674380731,0.057));
#1622=CARTESIAN_POINT('',(0.0235260611313616,-0.0211349674380731,0.057));
#1623=CARTESIAN_POINT('',(0.0235260611313616,-0.0211349674380731,0.013));
#1624=CARTESIAN_POINT('',(0.0235260611313616,-0.0200849674380731,0.013));
#1625=CARTESIAN_POINT('',(0.0235260611313616,-0.0200849674380731,0.057));
#1626=CARTESIAN_POINT('',(0.0235260611313616,-0.0200849674380731,0.057));
#1627=CARTESIAN_POINT('',(0.0235260611313616,-0.0211349674380731,0.057));
#1628=CARTESIAN_POINT('',(0.0517529214831282,-0.0200849674380731,0.057));
#1629=CARTESIAN_POINT('',(0.0517529214831282,-0.0200849674380731,0.013));
#1630=CARTESIAN_POINT('',(0.0799797818348946,-0.0200849674380731,0.013));
#1631=CARTESIAN_POINT('',(0.0799797818348946,-0.0200849674380731,0.057));
#1632=CARTESIAN_POINT('',(0.0799797818348946,-0.0200849674380731,0.057));
#1633=CARTESIAN_POINT('',(0.0517529214831282,-0.0200849674380731,0.057));
#1634=CARTESIAN_POINT('',(0.0799797818348946,-0.0187273768577433,0.057));
#1635=CARTESIAN_POINT('',(0.0799797818348946,-0.0187273768577433,0.013));
#1636=CARTESIAN_POINT('',(0.0799797818348946,-0.0173697862774134,0.013));
#1637=CARTESIAN_POINT('',(0.0799797818348946,-0.0173697862774134,0.057));
#1638=CARTESIAN_POINT('',(0.0799797818348946,-0.0173697862774134,0.057));
#1639=CARTESIAN_POINT('',(0.0799797818348946,-0.0187273768577433,0.057));
#1640=CARTESIAN_POINT('',(-0.000508367688655839,-0.00858480527700042,0.057));
#1641=CARTESIAN_POINT('',(-0.000508367688655839,-0.00858480527700042,0.007));
#1642=CARTESIAN_POINT('',(-0.00050836768865585,0.000200175723412521,0.007));
#1643=CARTESIAN_POINT('',(-0.000508367688655828,-0.0173697862774134,0.007));
#1644=CARTESIAN_POINT('',(-0.00050836768865585,0.000200175723412521,0.057));
#1645=CARTESIAN_POINT('',(-0.00050836768865585,0.000200175723412521,0.057));
#1646=CARTESIAN_POINT('',(-0.000508367688655839,-0.00858480527700042,0.057));
#1647=CARTESIAN_POINT('',(-0.000508367688655828,-0.0173697862774134,0.057));
#1648=CARTESIAN_POINT('',(-0.000508367688655828,-0.0173697862774134,0.057));
#1649=CARTESIAN_POINT('',(0.0537416323113442,0.000100087861706261,0.057));
#1650=CARTESIAN_POINT('',(0.0537416323113442,0.000100087861706261,0.007));
#1651=CARTESIAN_POINT('',(0.107991632311344,0.,0.007));
#1652=CARTESIAN_POINT('',(0.107991632311344,0.,0.057));
#1653=CARTESIAN_POINT('',(0.107991632311344,0.,0.057));
#1654=CARTESIAN_POINT('',(0.0537416323113442,0.000100087861706261,0.057));
#1655=CARTESIAN_POINT('',(0.107991632311344,-0.00868489313870668,0.057));
#1656=CARTESIAN_POINT('',(0.107991632311344,-0.00868489313870668,0.007));
#1657=CARTESIAN_POINT('',(0.107991632311344,-0.0173697862774134,0.007));
#1658=CARTESIAN_POINT('',(0.107991632311344,-0.0173697862774134,0.057));
#1659=CARTESIAN_POINT('',(0.107991632311344,-0.0173697862774134,0.057));
#1660=CARTESIAN_POINT('',(0.107991632311344,-0.00868489313870668,0.057));
#1661=CARTESIAN_POINT('',(0.106235707073119,-0.0173697862774134,0.057));
#1662=CARTESIAN_POINT('',(0.106235707073119,-0.0173697862774134,0.007));
#1663=CARTESIAN_POINT('',(0.0397357070731194,-0.0173697862774134,0.057));
#1664=CARTESIAN_POINT('',(0.0922297818348946,-0.0173697862774134,0.013));
#1665=CARTESIAN_POINT('',(0.104479781834895,-0.0173697862774134,0.013));
#1666=CARTESIAN_POINT('',(0.104479781834895,-0.0173697862774134,0.057));
#1667=CARTESIAN_POINT('',(0.104479781834895,-0.0173697862774134,0.057));
#1668=CARTESIAN_POINT('',(0.106235707073119,-0.0173697862774134,0.057));
#1669=CARTESIAN_POINT('',(0.104479781834895,-0.0188739327713847,0.057));
#1670=CARTESIAN_POINT('',(0.104479781834895,-0.0188739327713847,0.013));
#1671=CARTESIAN_POINT('',(0.104479781834895,-0.020378079265356,0.013));
#1672=CARTESIAN_POINT('',(0.104479781834895,-0.020378079265356,0.057));
#1673=CARTESIAN_POINT('',(0.104479781834895,-0.020378079265356,0.057));
#1674=CARTESIAN_POINT('',(0.104479781834895,-0.0188739327713847,0.057));
#1675=CARTESIAN_POINT('',(0.0994529214831247,-0.020378079265356,0.057));
#1676=CARTESIAN_POINT('',(0.0994529214831247,-0.020378079265356,0.013));
#1677=CARTESIAN_POINT('',(0.0944260611313547,-0.020378079265356,0.013));
#1678=CARTESIAN_POINT('',(0.0944260611313547,-0.020378079265356,0.057));
#1679=CARTESIAN_POINT('',(0.0944260611313547,-0.020378079265356,0.057));
#1680=CARTESIAN_POINT('',(0.0994529214831247,-0.020378079265356,0.057));
#1681=CARTESIAN_POINT('',(0.0944260611313547,-0.0212815233517146,0.057));
#1682=CARTESIAN_POINT('',(0.0944260611313547,-0.0212815233517146,0.013));
#1683=CARTESIAN_POINT('',(0.0944260611313547,-0.0221849674380731,0.013));
#1684=CARTESIAN_POINT('',(0.0944260611313547,-0.0221849674380731,0.057));
#1685=CARTESIAN_POINT('',(0.0944260611313547,-0.0221849674380731,0.057));
#1686=CARTESIAN_POINT('',(0.0944260611313547,-0.0212815233517146,0.057));
#1687=CARTESIAN_POINT('',(0.0918668224831247,-0.0221849674380731,0.057));
#1688=CARTESIAN_POINT('',(0.0918668224831247,-0.0221849674380731,0.013));
#1689=CARTESIAN_POINT('',(0.0893075838348947,-0.0221849674380731,0.013));
#1690=CARTESIAN_POINT('',(0.0893075838348947,-0.0221849674380731,0.057));
#1691=CARTESIAN_POINT('',(0.0893075838348947,-0.0221849674380731,0.057));
#1692=CARTESIAN_POINT('',(0.0918668224831247,-0.0221849674380731,0.057));
#1693=CARTESIAN_POINT('',(0.0893075838348947,-0.0238099674380731,0.057));
#1694=CARTESIAN_POINT('',(0.0893075838348947,-0.0238099674380731,0.013));
#1695=CARTESIAN_POINT('',(0.0893075838348947,-0.0254349674380731,0.013));
#1696=CARTESIAN_POINT('',(0.0893075838348947,-0.0254349674380731,0.057));
#1697=CARTESIAN_POINT('',(0.0893075838348947,-0.0254349674380731,0.057));
#1698=CARTESIAN_POINT('',(0.0893075838348947,-0.0238099674380731,0.057));
#1699=CARTESIAN_POINT('',(0.0998996080731194,-0.0254349674380731,0.057));
#1700=CARTESIAN_POINT('',(0.0537416323113442,-0.0254349674380731,0.01));
#1701=CARTESIAN_POINT('',(-0.00300836768865585,-0.0254349674380731,0.01));
#1702=CARTESIAN_POINT('',(0.110491632311344,-0.0254349674380731,0.01));
#1703=CARTESIAN_POINT('',(0.110491632311344,-0.0254349674380731,0.057));
#1704=CARTESIAN_POINT('',(0.110491632311344,-0.0254349674380731,0.057));
#1705=CARTESIAN_POINT('',(0.0998996080731194,-0.0254349674380731,0.057));
#1706=CARTESIAN_POINT('',(0.0588510088591893,-0.0254349674380731,0.013));
#1707=CARTESIAN_POINT('',(0.0126930330974141,-0.0254349674380731,0.057));
#1708=CARTESIAN_POINT('',(-0.00300836768865585,-0.0254349674380731,0.057));
#1709=CARTESIAN_POINT('',(-0.00300836768865585,-0.0254349674380731,0.057));
#1710=CARTESIAN_POINT('',(0.110491632311344,-0.0253849674380731,0.057));
#1711=CARTESIAN_POINT('',(0.110491632311344,-0.0253849674380731,0.01));
#1712=CARTESIAN_POINT('',(0.110491632311344,-0.0253349674380731,0.057));
#1713=CARTESIAN_POINT('',(0.110491632311344,-0.0253349674380731,0.057));
#1714=CARTESIAN_POINT('',(0.110491632311344,-0.0253849674380731,0.057));
#1715=CARTESIAN_POINT('',(0.112991632311344,-0.0100673958573303,0.057));
#1716=CARTESIAN_POINT('',(0.112991632311344,-0.0100673958573303,0.007));
#1717=CARTESIAN_POINT('',(0.112991632311344,0.00270017572341252,0.007));
#1718=CARTESIAN_POINT('',(0.112991632311344,-0.0592998242765875,0.007));
#1719=CARTESIAN_POINT('',(0.112991632311344,0.00270017572341252,0.057));
#1720=CARTESIAN_POINT('',(0.112991632311344,0.00270017572341252,0.057));
#1721=CARTESIAN_POINT('',(0.112991632311344,0.00270017572341252,0.057));
#1722=CARTESIAN_POINT('',(0.112991632311344,-0.0100673958573303,0.057));
#1723=CARTESIAN_POINT('',(0.112991632311344,-0.0228349674380731,0.057));
#1724=CARTESIAN_POINT('',(0.112991632311344,-0.0228349674380731,0.057));
#1725=CARTESIAN_POINT('',(0.112991632311344,-0.0241349674380731,0.01));
#1726=CARTESIAN_POINT('',(0.112991632311344,-0.0592998242765875,0.01));
#1727=CARTESIAN_POINT('',(0.112991632311344,-0.0592998242765875,0.01));
#1728=CARTESIAN_POINT('',(0.0537416323113442,0.00520017572341252,0.057));
#1729=CARTESIAN_POINT('',(0.0537416323113442,0.00520017572341252,0.007));
#1730=CARTESIAN_POINT('',(0.110491632311344,0.00520017572341254,0.007));
#1731=CARTESIAN_POINT('',(-0.00300836768865586,0.00520017572341252,0.007));
#1732=CARTESIAN_POINT('',(-0.00300836768865586,0.00520017572341252,0.057));
#1733=CARTESIAN_POINT('',(-0.00300836768865586,0.00520017572341252,0.057));
#1734=CARTESIAN_POINT('',(-0.00300836768865586,0.00520017572341251,0.057));
#1735=CARTESIAN_POINT('',(0.0537416323113442,0.00520017572341252,0.057));
#1736=CARTESIAN_POINT('',(0.110491632311344,0.00520017572341252,0.057));
#1737=CARTESIAN_POINT('',(0.110491632311344,0.00520017572341254,0.057));
#1738=CARTESIAN_POINT('',(0.110491632311344,0.00520017572341254,0.057));
#1739=CARTESIAN_POINT('',(-0.00550836768865582,-0.0100673958573303,0.057));
#1740=CARTESIAN_POINT('',(-0.00550836768865582,-0.0100673958573303,0.007));
#1741=CARTESIAN_POINT('',(-0.00550836768865582,0.00270017572341252,0.007));
#1742=CARTESIAN_POINT('',(-0.00550836768865586,-0.0592998242765875,0.007));
#1743=CARTESIAN_POINT('',(-0.00550836768865586,-0.0592998242765875,0.01));
#1744=CARTESIAN_POINT('',(-0.00550836768865586,-0.0592998242765875,0.01));
#1745=CARTESIAN_POINT('',(-0.00550836768865582,-0.0241349674380731,0.01));
#1746=CARTESIAN_POINT('',(-0.00550836768865582,-0.0228349674380731,0.057));
#1747=CARTESIAN_POINT('',(-0.00550836768865582,-0.0228349674380731,0.057));
#1748=CARTESIAN_POINT('',(-0.00550836768865582,-0.0100673958573303,0.057));
#1749=CARTESIAN_POINT('',(-0.00550836768865584,0.00270017572341252,0.057));
#1750=CARTESIAN_POINT('',(-0.00550836768865582,0.00270017572341252,0.057));
#1751=CARTESIAN_POINT('',(-0.00550836768865582,0.00270017572341252,0.057));
#1752=CARTESIAN_POINT('',(-0.00300836768865585,-0.0253849674380731,0.057));
#1753=CARTESIAN_POINT('',(-0.00300836768865585,-0.0253349674380731,0.057));
#1754=CARTESIAN_POINT('',(-0.00300836768865585,-0.0253349674380731,0.057));
#1755=CARTESIAN_POINT('',(-0.00300836768865585,-0.0253849674380731,0.01));
#1756=CARTESIAN_POINT('',(-0.00300836768865585,-0.0253849674380731,0.057));
#1757=CARTESIAN_POINT('',(0.0537416323113442,-0.0101173958573303,0.057));
#1758=CARTESIAN_POINT('',(0.110491632311344,-0.0228349674380731,0.057));
#1759=CARTESIAN_POINT('',(0.110491632311344,0.0027001757234125,0.057));
#1760=CARTESIAN_POINT('',(-0.00300836768865585,0.00270017572341252,0.057));
#1761=CARTESIAN_POINT('',(-0.00300836768865585,-0.0228349674380731,0.057));
#1762=CARTESIAN_POINT('',(-0.00300836768865585,-0.0228349674380731,0.057));
#1763=CARTESIAN_POINT('',(-0.00140836768865585,-0.0228349674380731,0.057));
#1764=CARTESIAN_POINT('',(-0.00300836768865585,0.00270017572341252,0.057));
#1765=CARTESIAN_POINT('',(-0.00140749550088231,0.00270017572341252,0.057));
#1766=CARTESIAN_POINT('',(0.110491632311344,0.00270017572341252,0.057));
#1767=CARTESIAN_POINT('',(0.112090842025123,0.00270017572341252,0.057));
#1768=CARTESIAN_POINT('',(0.110491632311344,-0.0228349674380731,0.057));
#1769=CARTESIAN_POINT('',(0.112091632311344,-0.0228349674380731,0.057));
#1770=CARTESIAN_POINT('',(0.0537416323113442,-0.0101173958573303,0.007));
#1771=CARTESIAN_POINT('',(-0.00300836768865586,-0.0592998242765875,0.007));
#1772=CARTESIAN_POINT('',(-0.00300836768865586,-0.0617998242765875,0.007));
#1773=CARTESIAN_POINT('',(-0.00300836768865585,0.00270017572341252,0.007));
#1774=CARTESIAN_POINT('',(0.110491632311344,0.0027001757234125,0.007));
#1775=CARTESIAN_POINT('',(0.110491632311344,-0.0592998242765874,0.007));
#1776=CARTESIAN_POINT('',(0.110491632311344,-0.0617998242765875,0.007));
#1777=CARTESIAN_POINT('',(0.0537416323113442,-0.0617998242765875,0.007));
#1778=CARTESIAN_POINT('',(0.110491632311344,-0.0228349674380731,0.007));
#1779=CARTESIAN_POINT('',(0.112091632311344,-0.0228349674380731,0.007));
#1780=CARTESIAN_POINT('',(-0.00300836768865585,-0.0228349674380731,0.007));
#1781=CARTESIAN_POINT('',(-0.00140836768865585,-0.0228349674380731,0.007));
#1782=CARTESIAN_POINT('',(0.110491632311344,-0.0279349674380731,0.007));
#1783=CARTESIAN_POINT('',(0.112091632311344,-0.0279349674380731,0.007));
#1784=CARTESIAN_POINT('',(-0.00300836768865585,-0.0279349674380731,0.007));
#1785=CARTESIAN_POINT('',(-0.00140836768865585,-0.0279349674380731,0.007));
#1786=CARTESIAN_POINT('',(-0.00300836768865586,-0.0592998242765875,0.007));
#1787=CARTESIAN_POINT('',(-0.00140836768865585,-0.0592998242765875,0.007));
#1788=CARTESIAN_POINT('',(0.110491632311344,-0.0592998242765875,0.007));
#1789=CARTESIAN_POINT('',(0.112091632311344,-0.0592998242765875,0.007));
#1790=CARTESIAN_POINT('',(0.00478,-0.0532,0.007));
#1791=CARTESIAN_POINT('',(0.00328,-0.0532,0.007));
#1792=CARTESIAN_POINT('',(0.10428,-0.0532,0.007));
#1793=CARTESIAN_POINT('',(0.10428,-0.0351,0.007));
#1794=CARTESIAN_POINT('',(0.10428,-0.0336,0.007));
#1795=CARTESIAN_POINT('',(0.00478,-0.0336,0.007));
#1796=CARTESIAN_POINT('',(0.00328,-0.0336,0.007));
#1797=CARTESIAN_POINT('',(0.00328,-0.0517,0.007));
#1798=CARTESIAN_POINT('',(-0.00300836768865585,0.00270017572341252,0.007));
#1799=CARTESIAN_POINT('',(-0.00140749550088231,0.00270017572341252,0.007));
#1800=CARTESIAN_POINT('',(0.110491632311344,0.00270017572341252,0.007));
#1801=CARTESIAN_POINT('',(0.112090842025123,0.00270017572341252,0.007));
#1802=CARTESIAN_POINT('',(0.0537416323113442,-0.0101173958573303,0.013));
#1803=CARTESIAN_POINT('',(0.110491632311344,-0.0228349674380731,0.01));
#1804=CARTESIAN_POINT('',(0.110491632311344,-0.0228349674380731,0.01));
#1805=CARTESIAN_POINT('',(0.112091632311344,-0.0228349674380731,0.01));
#1806=CARTESIAN_POINT('',(0.0537416323113442,-0.0101173958573303,0.01));
#1807=CARTESIAN_POINT('',(-0.00300836768865586,-0.0592998242765875,0.01));
#1808=CARTESIAN_POINT('',(-0.00300836768865586,-0.0617998242765875,0.01));
#1809=CARTESIAN_POINT('',(0.0537416323113442,-0.0617998242765875,0.01));
#1810=CARTESIAN_POINT('',(0.110491632311344,-0.0617998242765875,0.01));
#1811=CARTESIAN_POINT('',(0.110491632311344,-0.0592998242765874,0.01));
#1812=CARTESIAN_POINT('',(-0.00300836768865585,-0.0228349674380731,0.01));
#1813=CARTESIAN_POINT('',(-0.00140836768865585,-0.0228349674380731,0.01));
#1814=CARTESIAN_POINT('',(0.110491632311344,-0.0279349674380731,0.01));
#1815=CARTESIAN_POINT('',(0.112091632311344,-0.0279349674380731,0.01));
#1816=CARTESIAN_POINT('',(-0.00300836768865585,-0.0279349674380731,0.01));
#1817=CARTESIAN_POINT('',(-0.00140836768865585,-0.0279349674380731,0.01));
#1818=CARTESIAN_POINT('',(-0.00300836768865586,-0.0592998242765875,0.01));
#1819=CARTESIAN_POINT('',(-0.00140836768865585,-0.0592998242765875,0.01));
#1820=CARTESIAN_POINT('',(0.110491632311344,-0.0592998242765875,0.01));
#1821=CARTESIAN_POINT('',(0.112091632311344,-0.0592998242765875,0.01));
#1822=CARTESIAN_POINT('',(0.00478,-0.0532,0.01));
#1823=CARTESIAN_POINT('',(0.00328,-0.0532,0.01));
#1824=CARTESIAN_POINT('',(0.10428,-0.0532,0.01));
#1825=CARTESIAN_POINT('',(0.00328,-0.0517,0.01));
#1826=CARTESIAN_POINT('',(0.00328,-0.0336,0.01));
#1827=CARTESIAN_POINT('',(0.00478,-0.0336,0.01));
#1828=CARTESIAN_POINT('',(0.10428,-0.0336,0.01));
#1829=CARTESIAN_POINT('',(0.10428,-0.0351,0.01));
#1830=CARTESIAN_POINT('',(-0.00300836768865585,-0.0228349674380731,0.01));
#1831=CARTESIAN_POINT('',(-0.00300836768865586,-0.0592998242765875,0.01));
#1832=CARTESIAN_POINT('',(-0.00300836768865586,-0.0617998242765875,0.01));
#1833=CARTESIAN_POINT('',(0.0537416323113442,-0.0617998242765875,0.01));
#1834=CARTESIAN_POINT('',(0.110491632311344,-0.0617998242765875,0.01));
#1835=CARTESIAN_POINT('',(0.110491632311344,-0.0592998242765874,0.01));
#1836=CARTESIAN_POINT('',(0.00478,-0.0532,0.01));
#1837=CARTESIAN_POINT('',(0.00328,-0.0532,0.01));
#1838=CARTESIAN_POINT('',(0.10428,-0.0532,0.01));
#1839=CARTESIAN_POINT('',(0.00328,-0.0517,0.01));
#1840=CARTESIAN_POINT('',(0.00328,-0.0336,0.01));
#1841=CARTESIAN_POINT('',(0.00478,-0.0336,0.01));
#1842=CARTESIAN_POINT('',(0.10428,-0.0336,0.01));
#1843=CARTESIAN_POINT('',(0.10428,-0.0351,0.01));
#1844=CARTESIAN_POINT('',(0.110491632311344,-0.0592998242765875,0.01));
#1845=CARTESIAN_POINT('',(-0.00300836768865586,-0.0592998242765875,0.01));
#1846=CARTESIAN_POINT('',(-0.00300836768865585,-0.0279349674380731,0.01));
#1847=CARTESIAN_POINT('',(0.110491632311344,-0.0279349674380731,0.01));
#1848=CARTESIAN_POINT('',(-0.00300836768865585,0.00270017572341252,0.01));
#1849=CARTESIAN_POINT('',(-0.00300836768865585,0.00270017572341252,0.01));
#1850=CARTESIAN_POINT('',(-0.00140749550088231,0.00270017572341252,0.01));
#1851=CARTESIAN_POINT('',(-0.00300836768865585,0.00270017572341252,0.01));
#1852=CARTESIAN_POINT('',(-0.00300836768865585,0.00270017572341252,0.01));
#1853=CARTESIAN_POINT('',(0.0537416323113442,-0.0101173958573303,0.01));
#1854=CARTESIAN_POINT('',(0.110491632311344,0.00270017572341252,0.01));
#1855=CARTESIAN_POINT('',(0.110491632311344,0.00270017572341252,0.01));
#1856=CARTESIAN_POINT('',(0.112090842025123,0.00270017572341252,0.01));
#1857=CARTESIAN_POINT('',(0.110491632311344,0.0027001757234125,0.01));
#1858=CARTESIAN_POINT('',(0.110491632311344,0.0027001757234125,0.01));
#1859=CARTESIAN_POINT('',(0.0537416323113442,-0.0101173958573303,0.01));
#1860=CARTESIAN_POINT('',(-0.00300836768865585,-0.0228349674380731,0.057));
#1861=CARTESIAN_POINT('',(-0.00300836768865585,-0.0228349674380731,0.047));
#1862=CARTESIAN_POINT('',(-0.00140836768865585,-0.0228349674380731,0.047));
#1863=CARTESIAN_POINT('',(-0.00300836768865585,-0.0228349674380731,0.057));
#1864=CARTESIAN_POINT('',(-0.00300836768865585,-0.0228349674380731,0.047));
#1865=CARTESIAN_POINT('',(0.0537416323113442,-0.0101173958573303,0.047));
#1866=CARTESIAN_POINT('',(-0.00300836768865585,0.00270017572341252,0.057));
#1867=CARTESIAN_POINT('',(-0.00300836768865585,0.00270017572341252,0.047));
#1868=CARTESIAN_POINT('',(-0.00140749550088231,0.00270017572341252,0.047));
#1869=CARTESIAN_POINT('',(-0.00300836768865585,0.00270017572341252,0.057));
#1870=CARTESIAN_POINT('',(-0.00300836768865585,0.00270017572341252,0.047));
#1871=CARTESIAN_POINT('',(0.0537416323113442,-0.0101173958573303,0.047));
#1872=CARTESIAN_POINT('',(0.110491632311344,0.00270017572341252,0.057));
#1873=CARTESIAN_POINT('',(0.110491632311344,0.00270017572341252,0.047));
#1874=CARTESIAN_POINT('',(0.112090842025123,0.00270017572341252,0.047));
#1875=CARTESIAN_POINT('',(0.110491632311344,0.0027001757234125,0.057));
#1876=CARTESIAN_POINT('',(0.110491632311344,0.0027001757234125,0.047));
#1877=CARTESIAN_POINT('',(0.0537416323113442,-0.0101173958573303,0.047));
#1878=CARTESIAN_POINT('',(0.110491632311344,-0.0228349674380731,0.057));
#1879=CARTESIAN_POINT('',(0.110491632311344,-0.0228349674380731,0.047));
#1880=CARTESIAN_POINT('',(0.112091632311344,-0.0228349674380731,0.047));
#1881=CARTESIAN_POINT('',(0.110491632311344,-0.0228349674380731,0.057));
#1882=CARTESIAN_POINT('',(0.110491632311344,-0.0228349674380731,0.047));
#1883=CARTESIAN_POINT('',(0.0537416323113442,-0.0101173958573303,0.047));
#1884=MECHANICAL_DESIGN_GEOMETRIC_PRESENTATION_REPRESENTATION('',(#1133),
#1885);
#1885=(
GEOMETRIC_REPRESENTATION_CONTEXT(3)
GLOBAL_UNCERTAINTY_ASSIGNED_CONTEXT((#1886))
GLOBAL_UNIT_ASSIGNED_CONTEXT((#1889,#1888,#1887))
REPRESENTATION_CONTEXT('Part 2','TOP_LEVEL_ASSEMBLY_PART')
);
#1886=UNCERTAINTY_MEASURE_WITH_UNIT(LENGTH_MEASURE(1.E-8),#1889,
'DISTANCE_ACCURACY_VALUE','Maximum Tolerance applied to model');
#1887=(
NAMED_UNIT(*)
SI_UNIT($,.STERADIAN.)
SOLID_ANGLE_UNIT()
);
#1888=(
NAMED_UNIT(*)
PLANE_ANGLE_UNIT()
SI_UNIT($,.RADIAN.)
);
#1889=(
LENGTH_UNIT()
NAMED_UNIT(*)
SI_UNIT($,.METRE.)
);
#1890=PRODUCT_DEFINITION_SHAPE('','',#1891);
#1891=PRODUCT_DEFINITION('','',#1893,#1892);
#1892=PRODUCT_DEFINITION_CONTEXT('',#1899,'design');
#1893=PRODUCT_DEFINITION_FORMATION_WITH_SPECIFIED_SOURCE('','',#1895,
 .NOT_KNOWN.);
#1894=PRODUCT_RELATED_PRODUCT_CATEGORY('','',(#1895));
#1895=PRODUCT('Part 2','Part 2','Part 2',(#1897));
#1896=PRODUCT_CATEGORY('','');
#1897=PRODUCT_CONTEXT('',#1899,'mechanical');
#1898=APPLICATION_PROTOCOL_DEFINITION('international standard',
'ap242_managed_model_based_3d_engineering',2020,#1899);
#1899=APPLICATION_CONTEXT('managed model based 3d engineering');
ENDSEC;
END-ISO-10303-21;
