ISO-10303-21;
HEADER;
/* Generated by software containing ST-Developer
 * from STEP Tools, Inc. (www.steptools.com) 
 */
/* OPTION: using custom renumber hook */

FILE_DESCRIPTION(
/* description */ ('STEP AP242 Edition 2',
'CAx-IF Rec.Pracs.---Representation and Presentation of Product Manufa
cturing Information (PMI)---4.0---2014-10-13',
'CAx-IF Rec.Pracs.---3D Tessellated Geometry---0.4---2014-09-14','2;1',
'CAx-IF Rec.Pracs.---User Defined Attributes---1.5---2016-08-15'),
/* implementation_level */ '2;1');

FILE_NAME(
/* name */ 'Part Studio 2 - Part 3',
/* time_stamp */ '2026-10-04T05:37:13Z',
/* author */ (''),
/* organization */ (''),
/* preprocessor_version */ 'ST-DEVELOPER v20',
/* originating_system */ 'ONSHAPE BY PTC INC, 1.221',
/* authorisation */ '  ');

FILE_SCHEMA (('AP242_MANAGED_MODEL_BASED_3D_ENGINEERING_MIM_LF { 1 0 10303 442 3 1 4 }'));
ENDSEC;

DATA;
#10=SHAPE_REPRESENTATION_RELATIONSHIP('','',#313,#11);
#11=ADVANCED_BREP_SHAPE_REPRESENTATION('',(#311),#519);
#12=CIRCLE('',#318,0.0025);
#13=CIRCLE('',#319,0.0025);
#14=CIRCLE('',#322,0.0025);
#15=CIRCLE('',#323,0.0025);
#16=CIRCLE('',#326,0.0025);
#17=CIRCLE('',#327,0.0025);
#18=CIRCLE('',#330,0.0025);
#19=CIRCLE('',#331,0.0025);
#20=CIRCLE('',#333,0.001599209713779);
#21=CIRCLE('',#334,0.001599209713779);
#22=CIRCLE('',#336,0.00160087218777354);
#23=CIRCLE('',#337,0.00160087218777354);
#24=CIRCLE('',#339,0.0016);
#25=CIRCLE('',#340,0.0016);
#26=CIRCLE('',#343,0.0016);
#27=CIRCLE('',#344,0.0016);
#28=CYLINDRICAL_SURFACE('',#317,0.0025);
#29=CYLINDRICAL_SURFACE('',#321,0.0025);
#30=CYLINDRICAL_SURFACE('',#325,0.0025);
#31=CYLINDRICAL_SURFACE('',#329,0.0025);
#32=CYLINDRICAL_SURFACE('',#332,0.001599209713779);
#33=CYLINDRICAL_SURFACE('',#335,0.00160087218777354);
#34=CYLINDRICAL_SURFACE('',#338,0.0016);
#35=CYLINDRICAL_SURFACE('',#342,0.0016);
#36=ORIENTED_EDGE('',*,*,#112,.F.);
#37=ORIENTED_EDGE('',*,*,#113,.F.);
#38=ORIENTED_EDGE('',*,*,#114,.T.);
#39=ORIENTED_EDGE('',*,*,#115,.T.);
#40=ORIENTED_EDGE('',*,*,#116,.F.);
#41=ORIENTED_EDGE('',*,*,#117,.F.);
#42=ORIENTED_EDGE('',*,*,#118,.T.);
#43=ORIENTED_EDGE('',*,*,#113,.T.);
#44=ORIENTED_EDGE('',*,*,#119,.T.);
#45=ORIENTED_EDGE('',*,*,#120,.F.);
#46=ORIENTED_EDGE('',*,*,#121,.F.);
#47=ORIENTED_EDGE('',*,*,#117,.T.);
#48=ORIENTED_EDGE('',*,*,#122,.F.);
#49=ORIENTED_EDGE('',*,*,#123,.F.);
#50=ORIENTED_EDGE('',*,*,#124,.T.);
#51=ORIENTED_EDGE('',*,*,#120,.T.);
#52=ORIENTED_EDGE('',*,*,#125,.T.);
#53=ORIENTED_EDGE('',*,*,#126,.F.);
#54=ORIENTED_EDGE('',*,*,#127,.F.);
#55=ORIENTED_EDGE('',*,*,#123,.T.);
#56=ORIENTED_EDGE('',*,*,#128,.T.);
#57=ORIENTED_EDGE('',*,*,#129,.F.);
#58=ORIENTED_EDGE('',*,*,#130,.F.);
#59=ORIENTED_EDGE('',*,*,#126,.T.);
#60=ORIENTED_EDGE('',*,*,#131,.T.);
#61=ORIENTED_EDGE('',*,*,#132,.F.);
#62=ORIENTED_EDGE('',*,*,#133,.F.);
#63=ORIENTED_EDGE('',*,*,#129,.T.);
#64=ORIENTED_EDGE('',*,*,#134,.T.);
#65=ORIENTED_EDGE('',*,*,#135,.F.);
#66=ORIENTED_EDGE('',*,*,#136,.F.);
#67=ORIENTED_EDGE('',*,*,#132,.T.);
#68=ORIENTED_EDGE('',*,*,#137,.T.);
#69=ORIENTED_EDGE('',*,*,#138,.F.);
#70=ORIENTED_EDGE('',*,*,#139,.F.);
#71=ORIENTED_EDGE('',*,*,#135,.T.);
#72=ORIENTED_EDGE('',*,*,#140,.T.);
#73=ORIENTED_EDGE('',*,*,#141,.F.);
#74=ORIENTED_EDGE('',*,*,#142,.T.);
#75=ORIENTED_EDGE('',*,*,#143,.F.);
#76=ORIENTED_EDGE('',*,*,#144,.T.);
#77=ORIENTED_EDGE('',*,*,#145,.F.);
#78=ORIENTED_EDGE('',*,*,#146,.T.);
#79=ORIENTED_EDGE('',*,*,#115,.F.);
#80=ORIENTED_EDGE('',*,*,#147,.F.);
#81=ORIENTED_EDGE('',*,*,#138,.T.);
#82=ORIENTED_EDGE('',*,*,#148,.T.);
#83=ORIENTED_EDGE('',*,*,#149,.F.);
#84=ORIENTED_EDGE('',*,*,#114,.F.);
#85=ORIENTED_EDGE('',*,*,#118,.F.);
#86=ORIENTED_EDGE('',*,*,#121,.T.);
#87=ORIENTED_EDGE('',*,*,#124,.F.);
#88=ORIENTED_EDGE('',*,*,#127,.T.);
#89=ORIENTED_EDGE('',*,*,#130,.T.);
#90=ORIENTED_EDGE('',*,*,#133,.T.);
#91=ORIENTED_EDGE('',*,*,#136,.T.);
#92=ORIENTED_EDGE('',*,*,#139,.T.);
#93=ORIENTED_EDGE('',*,*,#147,.T.);
#94=ORIENTED_EDGE('',*,*,#144,.F.);
#95=ORIENTED_EDGE('',*,*,#142,.F.);
#96=ORIENTED_EDGE('',*,*,#140,.F.);
#97=ORIENTED_EDGE('',*,*,#148,.F.);
#98=ORIENTED_EDGE('',*,*,#112,.T.);
#99=ORIENTED_EDGE('',*,*,#146,.F.);
#100=ORIENTED_EDGE('',*,*,#137,.F.);
#101=ORIENTED_EDGE('',*,*,#134,.F.);
#102=ORIENTED_EDGE('',*,*,#131,.F.);
#103=ORIENTED_EDGE('',*,*,#128,.F.);
#104=ORIENTED_EDGE('',*,*,#125,.F.);
#105=ORIENTED_EDGE('',*,*,#122,.T.);
#106=ORIENTED_EDGE('',*,*,#119,.F.);
#107=ORIENTED_EDGE('',*,*,#116,.T.);
#108=ORIENTED_EDGE('',*,*,#145,.T.);
#109=ORIENTED_EDGE('',*,*,#143,.T.);
#110=ORIENTED_EDGE('',*,*,#141,.T.);
#111=ORIENTED_EDGE('',*,*,#149,.T.);
#112=EDGE_CURVE('',#150,#151,#178,.T.);
#113=EDGE_CURVE('',#152,#150,#179,.T.);
#114=EDGE_CURVE('',#152,#153,#180,.T.);
#115=EDGE_CURVE('',#153,#151,#181,.T.);
#116=EDGE_CURVE('',#154,#150,#182,.T.);
#117=EDGE_CURVE('',#155,#154,#183,.T.);
#118=EDGE_CURVE('',#155,#152,#184,.T.);
#119=EDGE_CURVE('',#154,#156,#12,.T.);
#120=EDGE_CURVE('',#157,#156,#185,.T.);
#121=EDGE_CURVE('',#155,#157,#13,.T.);
#122=EDGE_CURVE('',#158,#156,#186,.T.);
#123=EDGE_CURVE('',#159,#158,#187,.T.);
#124=EDGE_CURVE('',#159,#157,#188,.T.);
#125=EDGE_CURVE('',#158,#160,#14,.T.);
#126=EDGE_CURVE('',#161,#160,#189,.T.);
#127=EDGE_CURVE('',#159,#161,#15,.T.);
#128=EDGE_CURVE('',#160,#162,#190,.T.);
#129=EDGE_CURVE('',#163,#162,#191,.T.);
#130=EDGE_CURVE('',#161,#163,#192,.T.);
#131=EDGE_CURVE('',#162,#164,#16,.T.);
#132=EDGE_CURVE('',#165,#164,#193,.T.);
#133=EDGE_CURVE('',#163,#165,#17,.T.);
#134=EDGE_CURVE('',#164,#166,#194,.T.);
#135=EDGE_CURVE('',#167,#166,#195,.T.);
#136=EDGE_CURVE('',#165,#167,#196,.T.);
#137=EDGE_CURVE('',#166,#168,#18,.T.);
#138=EDGE_CURVE('',#169,#168,#197,.T.);
#139=EDGE_CURVE('',#167,#169,#19,.T.);
#140=EDGE_CURVE('',#170,#170,#20,.T.);
#141=EDGE_CURVE('',#171,#171,#21,.T.);
#142=EDGE_CURVE('',#172,#172,#22,.T.);
#143=EDGE_CURVE('',#173,#173,#23,.T.);
#144=EDGE_CURVE('',#174,#174,#24,.T.);
#145=EDGE_CURVE('',#175,#175,#25,.T.);
#146=EDGE_CURVE('',#168,#151,#198,.T.);
#147=EDGE_CURVE('',#169,#153,#199,.T.);
#148=EDGE_CURVE('',#176,#176,#26,.T.);
#149=EDGE_CURVE('',#177,#177,#27,.T.);
#150=VERTEX_POINT('',#438);
#151=VERTEX_POINT('',#439);
#152=VERTEX_POINT('',#441);
#153=VERTEX_POINT('',#443);
#154=VERTEX_POINT('',#447);
#155=VERTEX_POINT('',#449);
#156=VERTEX_POINT('',#453);
#157=VERTEX_POINT('',#455);
#158=VERTEX_POINT('',#459);
#159=VERTEX_POINT('',#461);
#160=VERTEX_POINT('',#465);
#161=VERTEX_POINT('',#467);
#162=VERTEX_POINT('',#471);
#163=VERTEX_POINT('',#473);
#164=VERTEX_POINT('',#477);
#165=VERTEX_POINT('',#479);
#166=VERTEX_POINT('',#483);
#167=VERTEX_POINT('',#485);
#168=VERTEX_POINT('',#489);
#169=VERTEX_POINT('',#491);
#170=VERTEX_POINT('',#495);
#171=VERTEX_POINT('',#497);
#172=VERTEX_POINT('',#500);
#173=VERTEX_POINT('',#502);
#174=VERTEX_POINT('',#505);
#175=VERTEX_POINT('',#507);
#176=VERTEX_POINT('',#513);
#177=VERTEX_POINT('',#515);
#178=LINE('',#437,#200);
#179=LINE('',#440,#201);
#180=LINE('',#442,#202);
#181=LINE('',#444,#203);
#182=LINE('',#446,#204);
#183=LINE('',#448,#205);
#184=LINE('',#450,#206);
#185=LINE('',#454,#207);
#186=LINE('',#458,#208);
#187=LINE('',#460,#209);
#188=LINE('',#462,#210);
#189=LINE('',#466,#211);
#190=LINE('',#470,#212);
#191=LINE('',#472,#213);
#192=LINE('',#474,#214);
#193=LINE('',#478,#215);
#194=LINE('',#482,#216);
#195=LINE('',#484,#217);
#196=LINE('',#486,#218);
#197=LINE('',#490,#219);
#198=LINE('',#509,#220);
#199=LINE('',#510,#221);
#200=VECTOR('',#351,1.);
#201=VECTOR('',#352,1.);
#202=VECTOR('',#353,1.);
#203=VECTOR('',#354,1.);
#204=VECTOR('',#357,1.);
#205=VECTOR('',#358,1.);
#206=VECTOR('',#359,1.);
#207=VECTOR('',#364,1.);
#208=VECTOR('',#369,1.);
#209=VECTOR('',#370,1.);
#210=VECTOR('',#371,1.);
#211=VECTOR('',#376,1.);
#212=VECTOR('',#381,1.);
#213=VECTOR('',#382,1.);
#214=VECTOR('',#383,1.);
#215=VECTOR('',#388,1.);
#216=VECTOR('',#393,1.);
#217=VECTOR('',#394,1.);
#218=VECTOR('',#395,1.);
#219=VECTOR('',#400,1.);
#220=VECTOR('',#423,1.);
#221=VECTOR('',#424,1.);
#222=EDGE_LOOP('',(#36,#37,#38,#39));
#223=EDGE_LOOP('',(#40,#41,#42,#43));
#224=EDGE_LOOP('',(#44,#45,#46,#47));
#225=EDGE_LOOP('',(#48,#49,#50,#51));
#226=EDGE_LOOP('',(#52,#53,#54,#55));
#227=EDGE_LOOP('',(#56,#57,#58,#59));
#228=EDGE_LOOP('',(#60,#61,#62,#63));
#229=EDGE_LOOP('',(#64,#65,#66,#67));
#230=EDGE_LOOP('',(#68,#69,#70,#71));
#231=EDGE_LOOP('',(#72));
#232=EDGE_LOOP('',(#73));
#233=EDGE_LOOP('',(#74));
#234=EDGE_LOOP('',(#75));
#235=EDGE_LOOP('',(#76));
#236=EDGE_LOOP('',(#77));
#237=EDGE_LOOP('',(#78,#79,#80,#81));
#238=EDGE_LOOP('',(#82));
#239=EDGE_LOOP('',(#83));
#240=EDGE_LOOP('',(#84,#85,#86,#87,#88,#89,#90,#91,#92,#93));
#241=EDGE_LOOP('',(#94));
#242=EDGE_LOOP('',(#95));
#243=EDGE_LOOP('',(#96));
#244=EDGE_LOOP('',(#97));
#245=EDGE_LOOP('',(#98,#99,#100,#101,#102,#103,#104,#105,#106,#107));
#246=EDGE_LOOP('',(#108));
#247=EDGE_LOOP('',(#109));
#248=EDGE_LOOP('',(#110));
#249=EDGE_LOOP('',(#111));
#250=FACE_BOUND('',#222,.T.);
#251=FACE_BOUND('',#223,.T.);
#252=FACE_BOUND('',#224,.T.);
#253=FACE_BOUND('',#225,.T.);
#254=FACE_BOUND('',#226,.T.);
#255=FACE_BOUND('',#227,.T.);
#256=FACE_BOUND('',#228,.T.);
#257=FACE_BOUND('',#229,.T.);
#258=FACE_BOUND('',#230,.T.);
#259=FACE_BOUND('',#231,.T.);
#260=FACE_BOUND('',#232,.T.);
#261=FACE_BOUND('',#233,.T.);
#262=FACE_BOUND('',#234,.T.);
#263=FACE_BOUND('',#235,.T.);
#264=FACE_BOUND('',#236,.T.);
#265=FACE_BOUND('',#237,.T.);
#266=FACE_BOUND('',#238,.T.);
#267=FACE_BOUND('',#239,.T.);
#268=FACE_BOUND('',#240,.T.);
#269=FACE_BOUND('',#241,.T.);
#270=FACE_BOUND('',#242,.T.);
#271=FACE_BOUND('',#243,.T.);
#272=FACE_BOUND('',#244,.T.);
#273=FACE_BOUND('',#245,.T.);
#274=FACE_BOUND('',#246,.T.);
#275=FACE_BOUND('',#247,.T.);
#276=FACE_BOUND('',#248,.T.);
#277=FACE_BOUND('',#249,.T.);
#278=PLANE('',#315);
#279=PLANE('',#316);
#280=PLANE('',#320);
#281=PLANE('',#324);
#282=PLANE('',#328);
#283=PLANE('',#341);
#284=PLANE('',#345);
#285=PLANE('',#346);
#286=ADVANCED_FACE('',(#250),#278,.T.);
#287=ADVANCED_FACE('',(#251),#279,.T.);
#288=ADVANCED_FACE('',(#252),#28,.T.);
#289=ADVANCED_FACE('',(#253),#280,.T.);
#290=ADVANCED_FACE('',(#254),#29,.T.);
#291=ADVANCED_FACE('',(#255),#281,.F.);
#292=ADVANCED_FACE('',(#256),#30,.T.);
#293=ADVANCED_FACE('',(#257),#282,.F.);
#294=ADVANCED_FACE('',(#258),#31,.T.);
#295=ADVANCED_FACE('',(#259,#260),#32,.F.);
#296=ADVANCED_FACE('',(#261,#262),#33,.F.);
#297=ADVANCED_FACE('',(#263,#264),#34,.F.);
#298=ADVANCED_FACE('',(#265),#283,.F.);
#299=ADVANCED_FACE('',(#266,#267),#35,.F.);
#300=ADVANCED_FACE('',(#268,#269,#270,#271,#272),#284,.T.);
#301=ADVANCED_FACE('',(#273,#274,#275,#276,#277),#285,.F.);
#302=CLOSED_SHELL('',(#286,#287,#288,#289,#290,#291,#292,#293,#294,#295,
#296,#297,#298,#299,#300,#301));
#303=STYLED_ITEM('',(#304),#311);
#304=PRESENTATION_STYLE_ASSIGNMENT((#305));
#305=SURFACE_STYLE_USAGE(.BOTH.,#306);
#306=SURFACE_SIDE_STYLE('',(#307));
#307=SURFACE_STYLE_FILL_AREA(#308);
#308=FILL_AREA_STYLE('',(#309));
#309=FILL_AREA_STYLE_COLOUR('',#310);
#310=COLOUR_RGB('',0.615686274509804,0.811764705882353,0.929411764705882);
#311=MANIFOLD_SOLID_BREP('Part 3',#302);
#312=SHAPE_DEFINITION_REPRESENTATION(#524,#313);
#313=SHAPE_REPRESENTATION('Part 3',(#314),#519);
#314=AXIS2_PLACEMENT_3D('',#435,#347,#348);
#315=AXIS2_PLACEMENT_3D('',#436,#349,#350);
#316=AXIS2_PLACEMENT_3D('',#445,#355,#356);
#317=AXIS2_PLACEMENT_3D('',#451,#360,#361);
#318=AXIS2_PLACEMENT_3D('',#452,#362,#363);
#319=AXIS2_PLACEMENT_3D('',#456,#365,#366);
#320=AXIS2_PLACEMENT_3D('',#457,#367,#368);
#321=AXIS2_PLACEMENT_3D('',#463,#372,#373);
#322=AXIS2_PLACEMENT_3D('',#464,#374,#375);
#323=AXIS2_PLACEMENT_3D('',#468,#377,#378);
#324=AXIS2_PLACEMENT_3D('',#469,#379,#380);
#325=AXIS2_PLACEMENT_3D('',#475,#384,#385);
#326=AXIS2_PLACEMENT_3D('',#476,#386,#387);
#327=AXIS2_PLACEMENT_3D('',#480,#389,#390);
#328=AXIS2_PLACEMENT_3D('',#481,#391,#392);
#329=AXIS2_PLACEMENT_3D('',#487,#396,#397);
#330=AXIS2_PLACEMENT_3D('',#488,#398,#399);
#331=AXIS2_PLACEMENT_3D('',#492,#401,#402);
#332=AXIS2_PLACEMENT_3D('',#493,#403,#404);
#333=AXIS2_PLACEMENT_3D('',#494,#405,#406);
#334=AXIS2_PLACEMENT_3D('',#496,#407,#408);
#335=AXIS2_PLACEMENT_3D('',#498,#409,#410);
#336=AXIS2_PLACEMENT_3D('',#499,#411,#412);
#337=AXIS2_PLACEMENT_3D('',#501,#413,#414);
#338=AXIS2_PLACEMENT_3D('',#503,#415,#416);
#339=AXIS2_PLACEMENT_3D('',#504,#417,#418);
#340=AXIS2_PLACEMENT_3D('',#506,#419,#420);
#341=AXIS2_PLACEMENT_3D('',#508,#421,#422);
#342=AXIS2_PLACEMENT_3D('',#511,#425,#426);
#343=AXIS2_PLACEMENT_3D('',#512,#427,#428);
#344=AXIS2_PLACEMENT_3D('',#514,#429,#430);
#345=AXIS2_PLACEMENT_3D('',#516,#431,#432);
#346=AXIS2_PLACEMENT_3D('',#517,#433,#434);
#347=DIRECTION('',(0.,0.,1.));
#348=DIRECTION('',(1.,0.,0.));
#349=DIRECTION('',(1.10482083707833E-16,-1.,0.));
#350=DIRECTION('',(1.,1.10482083707833E-16,0.));
#351=DIRECTION('',(-1.,-1.10482083707833E-16,0.));
#352=DIRECTION('',(0.,0.,-1.));
#353=DIRECTION('',(-1.,-1.10482083707833E-16,0.));
#354=DIRECTION('',(0.,0.,-1.));
#355=DIRECTION('',(1.,0.,0.));
#356=DIRECTION('',(0.,0.,-1.));
#357=DIRECTION('',(0.,-1.,0.));
#358=DIRECTION('',(0.,0.,-1.));
#359=DIRECTION('',(0.,-1.,0.));
#360=DIRECTION('',(0.,0.,-1.));
#361=DIRECTION('',(-1.,0.,0.));
#362=DIRECTION('',(0.,0.,1.));
#363=DIRECTION('',(0.,-1.,0.));
#364=DIRECTION('',(0.,0.,-1.));
#365=DIRECTION('',(0.,0.,1.));
#366=DIRECTION('',(0.,-1.,0.));
#367=DIRECTION('',(1.,0.,0.));
#368=DIRECTION('',(0.,0.,-1.));
#369=DIRECTION('',(0.,-1.,0.));
#370=DIRECTION('',(0.,0.,-1.));
#371=DIRECTION('',(0.,-1.,0.));
#372=DIRECTION('',(0.,0.,-1.));
#373=DIRECTION('',(-1.,0.,0.));
#374=DIRECTION('',(0.,0.,1.));
#375=DIRECTION('',(1.,9.54097911787238E-15,0.));
#376=DIRECTION('',(0.,0.,-1.));
#377=DIRECTION('',(0.,0.,1.));
#378=DIRECTION('',(1.,9.54097911787238E-15,0.));
#379=DIRECTION('',(0.,-1.,0.));
#380=DIRECTION('',(0.,0.,-1.));
#381=DIRECTION('',(-1.,0.,0.));
#382=DIRECTION('',(0.,0.,-1.));
#383=DIRECTION('',(-1.,0.,0.));
#384=DIRECTION('',(0.,0.,-1.));
#385=DIRECTION('',(-1.,0.,0.));
#386=DIRECTION('',(0.,0.,1.));
#387=DIRECTION('',(-5.20417042793045E-16,1.,0.));
#388=DIRECTION('',(0.,0.,-1.));
#389=DIRECTION('',(0.,0.,1.));
#390=DIRECTION('',(-5.20417042793045E-16,1.,0.));
#391=DIRECTION('',(1.,0.,0.));
#392=DIRECTION('',(0.,0.,-1.));
#393=DIRECTION('',(0.,-1.,0.));
#394=DIRECTION('',(0.,0.,-1.));
#395=DIRECTION('',(0.,-1.,0.));
#396=DIRECTION('',(0.,0.,-1.));
#397=DIRECTION('',(-1.,0.,0.));
#398=DIRECTION('',(0.,0.,1.));
#399=DIRECTION('',(-1.,0.,0.));
#400=DIRECTION('',(0.,0.,-1.));
#401=DIRECTION('',(0.,0.,1.));
#402=DIRECTION('',(-1.,0.,0.));
#403=DIRECTION('',(0.,0.,-1.));
#404=DIRECTION('',(-1.,0.,0.));
#405=DIRECTION('',(0.,0.,1.));
#406=DIRECTION('',(1.,0.,0.));
#407=DIRECTION('',(0.,0.,1.));
#408=DIRECTION('',(1.,0.,0.));
#409=DIRECTION('',(0.,0.,-1.));
#410=DIRECTION('',(-1.,0.,0.));
#411=DIRECTION('',(0.,0.,1.));
#412=DIRECTION('',(1.,0.,0.));
#413=DIRECTION('',(0.,0.,1.));
#414=DIRECTION('',(1.,0.,0.));
#415=DIRECTION('',(0.,0.,-1.));
#416=DIRECTION('',(-1.,0.,0.));
#417=DIRECTION('',(0.,0.,1.));
#418=DIRECTION('',(1.,0.,0.));
#419=DIRECTION('',(0.,0.,1.));
#420=DIRECTION('',(1.,0.,0.));
#421=DIRECTION('',(1.,0.,0.));
#422=DIRECTION('',(0.,0.,-1.));
#423=DIRECTION('',(0.,-1.,0.));
#424=DIRECTION('',(0.,-1.,0.));
#425=DIRECTION('',(0.,0.,-1.));
#426=DIRECTION('',(-1.,0.,0.));
#427=DIRECTION('',(0.,0.,1.));
#428=DIRECTION('',(1.,0.,0.));
#429=DIRECTION('',(0.,0.,1.));
#430=DIRECTION('',(1.,0.,0.));
#431=DIRECTION('',(0.,0.,1.));
#432=DIRECTION('',(1.,0.,0.));
#433=DIRECTION('',(0.,0.,1.));
#434=DIRECTION('',(1.,0.,0.));
#435=CARTESIAN_POINT('',(0.,0.,0.));
#436=CARTESIAN_POINT('',(0.0126930330974141,-0.0254349674380731,0.06));
#437=CARTESIAN_POINT('',(0.0126930330974141,-0.0254349674380731,0.057));
#438=CARTESIAN_POINT('',(0.110491632311344,-0.0254349674380731,0.057));
#439=CARTESIAN_POINT('',(-0.00300836768865585,-0.0254349674380731,0.057));
#440=CARTESIAN_POINT('',(0.110491632311344,-0.0254349674380731,0.06));
#441=CARTESIAN_POINT('',(0.110491632311344,-0.0254349674380731,0.06));
#442=CARTESIAN_POINT('',(0.0126930330974141,-0.0254349674380731,0.06));
#443=CARTESIAN_POINT('',(-0.00300836768865585,-0.0254349674380731,0.06));
#444=CARTESIAN_POINT('',(-0.00300836768865585,-0.0254349674380731,0.06));
#445=CARTESIAN_POINT('',(0.110491632311344,-0.0253849674380731,0.06));
#446=CARTESIAN_POINT('',(0.110491632311344,-0.0253849674380731,0.057));
#447=CARTESIAN_POINT('',(0.110491632311344,-0.0253349674380731,0.057));
#448=CARTESIAN_POINT('',(0.110491632311344,-0.0253349674380731,0.06));
#449=CARTESIAN_POINT('',(0.110491632311344,-0.0253349674380731,0.06));
#450=CARTESIAN_POINT('',(0.110491632311344,-0.0253849674380731,0.06));
#451=CARTESIAN_POINT('',(0.110491632311344,-0.0228349674380731,0.06));
#452=CARTESIAN_POINT('',(0.110491632311344,-0.0228349674380731,0.057));
#453=CARTESIAN_POINT('',(0.112991632311344,-0.0228349674380731,0.057));
#454=CARTESIAN_POINT('',(0.112991632311344,-0.0228349674380731,0.06));
#455=CARTESIAN_POINT('',(0.112991632311344,-0.0228349674380731,0.06));
#456=CARTESIAN_POINT('',(0.110491632311344,-0.0228349674380731,0.06));
#457=CARTESIAN_POINT('',(0.112991632311344,-0.0100673958573303,0.06));
#458=CARTESIAN_POINT('',(0.112991632311344,-0.0100673958573303,0.057));
#459=CARTESIAN_POINT('',(0.112991632311344,0.00270017572341252,0.057));
#460=CARTESIAN_POINT('',(0.112991632311344,0.00270017572341252,0.06));
#461=CARTESIAN_POINT('',(0.112991632311344,0.00270017572341252,0.06));
#462=CARTESIAN_POINT('',(0.112991632311344,-0.0100673958573303,0.06));
#463=CARTESIAN_POINT('',(0.110491632311344,0.0027001757234125,0.06));
#464=CARTESIAN_POINT('',(0.110491632311344,0.0027001757234125,0.057));
#465=CARTESIAN_POINT('',(0.110491632311344,0.00520017572341254,0.057));
#466=CARTESIAN_POINT('',(0.110491632311344,0.00520017572341254,0.06));
#467=CARTESIAN_POINT('',(0.110491632311344,0.00520017572341254,0.06));
#468=CARTESIAN_POINT('',(0.110491632311344,0.0027001757234125,0.06));
#469=CARTESIAN_POINT('',(0.0537416323113442,0.00520017572341252,0.06));
#470=CARTESIAN_POINT('',(0.0537416323113442,0.00520017572341252,0.057));
#471=CARTESIAN_POINT('',(-0.00300836768865586,0.00520017572341252,0.057));
#472=CARTESIAN_POINT('',(-0.00300836768865586,0.00520017572341252,0.06));
#473=CARTESIAN_POINT('',(-0.00300836768865586,0.00520017572341252,0.06));
#474=CARTESIAN_POINT('',(0.0537416323113442,0.00520017572341252,0.06));
#475=CARTESIAN_POINT('',(-0.00300836768865585,0.00270017572341252,0.06));
#476=CARTESIAN_POINT('',(-0.00300836768865585,0.00270017572341252,0.057));
#477=CARTESIAN_POINT('',(-0.00550836768865582,0.00270017572341252,0.057));
#478=CARTESIAN_POINT('',(-0.00550836768865582,0.00270017572341252,0.06));
#479=CARTESIAN_POINT('',(-0.00550836768865582,0.00270017572341252,0.06));
#480=CARTESIAN_POINT('',(-0.00300836768865585,0.00270017572341252,0.06));
#481=CARTESIAN_POINT('',(-0.00550836768865582,-0.0100673958573303,0.06));
#482=CARTESIAN_POINT('',(-0.00550836768865582,-0.0100673958573303,0.057));
#483=CARTESIAN_POINT('',(-0.00550836768865582,-0.0228349674380731,0.057));
#484=CARTESIAN_POINT('',(-0.00550836768865582,-0.0228349674380731,0.06));
#485=CARTESIAN_POINT('',(-0.00550836768865582,-0.0228349674380731,0.06));
#486=CARTESIAN_POINT('',(-0.00550836768865582,-0.0100673958573303,0.06));
#487=CARTESIAN_POINT('',(-0.00300836768865585,-0.0228349674380731,0.06));
#488=CARTESIAN_POINT('',(-0.00300836768865585,-0.0228349674380731,0.057));
#489=CARTESIAN_POINT('',(-0.00300836768865585,-0.0253349674380731,0.057));
#490=CARTESIAN_POINT('',(-0.00300836768865585,-0.0253349674380731,0.06));
#491=CARTESIAN_POINT('',(-0.00300836768865585,-0.0253349674380731,0.06));
#492=CARTESIAN_POINT('',(-0.00300836768865585,-0.0228349674380731,0.06));
#493=CARTESIAN_POINT('',(0.110491632311344,0.00270017572341252,0.06));
#494=CARTESIAN_POINT('',(0.110491632311344,0.00270017572341252,0.06));
#495=CARTESIAN_POINT('',(0.112090842025123,0.00270017572341252,0.06));
#496=CARTESIAN_POINT('',(0.110491632311344,0.00270017572341252,0.057));
#497=CARTESIAN_POINT('',(0.112090842025123,0.00270017572341252,0.057));
#498=CARTESIAN_POINT('',(-0.00300836768865585,0.00270017572341252,0.06));
#499=CARTESIAN_POINT('',(-0.00300836768865585,0.00270017572341252,0.06));
#500=CARTESIAN_POINT('',(-0.00140749550088231,0.00270017572341252,0.06));
#501=CARTESIAN_POINT('',(-0.00300836768865585,0.00270017572341252,0.057));
#502=CARTESIAN_POINT('',(-0.00140749550088231,0.00270017572341252,0.057));
#503=CARTESIAN_POINT('',(-0.00300836768865585,-0.0228349674380731,0.06));
#504=CARTESIAN_POINT('',(-0.00300836768865585,-0.0228349674380731,0.06));
#505=CARTESIAN_POINT('',(-0.00140836768865585,-0.0228349674380731,0.06));
#506=CARTESIAN_POINT('',(-0.00300836768865585,-0.0228349674380731,0.057));
#507=CARTESIAN_POINT('',(-0.00140836768865585,-0.0228349674380731,0.057));
#508=CARTESIAN_POINT('',(-0.00300836768865585,-0.0253849674380731,0.06));
#509=CARTESIAN_POINT('',(-0.00300836768865585,-0.0253849674380731,0.057));
#510=CARTESIAN_POINT('',(-0.00300836768865585,-0.0253849674380731,0.06));
#511=CARTESIAN_POINT('',(0.110491632311344,-0.0228349674380731,0.06));
#512=CARTESIAN_POINT('',(0.110491632311344,-0.0228349674380731,0.06));
#513=CARTESIAN_POINT('',(0.112091632311344,-0.0228349674380731,0.06));
#514=CARTESIAN_POINT('',(0.110491632311344,-0.0228349674380731,0.057));
#515=CARTESIAN_POINT('',(0.112091632311344,-0.0228349674380731,0.057));
#516=CARTESIAN_POINT('',(0.0537416323113442,-0.0101173958573303,0.06));
#517=CARTESIAN_POINT('',(0.0537416323113442,-0.0101173958573303,0.057));
#518=MECHANICAL_DESIGN_GEOMETRIC_PRESENTATION_REPRESENTATION('',(#303),
#519);
#519=(
GEOMETRIC_REPRESENTATION_CONTEXT(3)
GLOBAL_UNCERTAINTY_ASSIGNED_CONTEXT((#520))
GLOBAL_UNIT_ASSIGNED_CONTEXT((#523,#522,#521))
REPRESENTATION_CONTEXT('Part 3','TOP_LEVEL_ASSEMBLY_PART')
);
#520=UNCERTAINTY_MEASURE_WITH_UNIT(LENGTH_MEASURE(1.E-8),#523,
'DISTANCE_ACCURACY_VALUE','Maximum Tolerance applied to model');
#521=(
NAMED_UNIT(*)
SI_UNIT($,.STERADIAN.)
SOLID_ANGLE_UNIT()
);
#522=(
NAMED_UNIT(*)
PLANE_ANGLE_UNIT()
SI_UNIT($,.RADIAN.)
);
#523=(
LENGTH_UNIT()
NAMED_UNIT(*)
SI_UNIT($,.METRE.)
);
#524=PRODUCT_DEFINITION_SHAPE('','',#525);
#525=PRODUCT_DEFINITION('','',#527,#526);
#526=PRODUCT_DEFINITION_CONTEXT('',#533,'design');
#527=PRODUCT_DEFINITION_FORMATION_WITH_SPECIFIED_SOURCE('','',#529,
 .NOT_KNOWN.);
#528=PRODUCT_RELATED_PRODUCT_CATEGORY('','',(#529));
#529=PRODUCT('Part 3','Part 3','Part 3',(#531));
#530=PRODUCT_CATEGORY('','');
#531=PRODUCT_CONTEXT('',#533,'mechanical');
#532=APPLICATION_PROTOCOL_DEFINITION('international standard',
'ap242_managed_model_based_3d_engineering',2020,#533);
#533=APPLICATION_CONTEXT('managed model based 3d engineering');
ENDSEC;
END-ISO-10303-21;
