%TF.GenerationSoftware,KiCad,Pcbnew,10.0.6*%
%TF.CreationDate,2026-10-01T20:59:41+08:00*%
%TF.ProjectId,PondPad,506f6e64-5061-4642-9e6b-696361645f70,rev?*%
%TF.SameCoordinates,Original*%
%TF.FileFunction,Legend,Bot*%
%TF.FilePolarity,Positive*%
%FSLAX46Y46*%
G04 Gerber Fmt 4.6, Leading zero omitted, Abs format (unit mm)*
G04 Created by KiCad (PCBNEW 10.0.6) date 2026-10-01 20:59:41*
%MOMM*%
%LPD*%
G01*
G04 APERTURE LIST*
%ADD10C,0.106680*%
%ADD11C,0.150000*%
%ADD12C,0.100000*%
%ADD13C,0.127000*%
%ADD14C,0.504000*%
%ADD15C,0.120000*%
G04 APERTURE END LIST*
D10*
X33131549Y-138660391D02*
X33131549Y-139293698D01*
X33131549Y-139293698D02*
X33094296Y-139368204D01*
X33094296Y-139368204D02*
X33057042Y-139405458D01*
X33057042Y-139405458D02*
X32982536Y-139442711D01*
X32982536Y-139442711D02*
X32833522Y-139442711D01*
X32833522Y-139442711D02*
X32759016Y-139405458D01*
X32759016Y-139405458D02*
X32721762Y-139368204D01*
X32721762Y-139368204D02*
X32684509Y-139293698D01*
X32684509Y-139293698D02*
X32684509Y-138660391D01*
X31902189Y-139442711D02*
X32349229Y-139442711D01*
X32125709Y-139442711D02*
X32125709Y-138660391D01*
X32125709Y-138660391D02*
X32200216Y-138772151D01*
X32200216Y-138772151D02*
X32274723Y-138846658D01*
X32274723Y-138846658D02*
X32349229Y-138883911D01*
D11*
X61785714Y-143431009D02*
X61642857Y-143478628D01*
X61642857Y-143478628D02*
X61595238Y-143526247D01*
X61595238Y-143526247D02*
X61547619Y-143621485D01*
X61547619Y-143621485D02*
X61547619Y-143764342D01*
X61547619Y-143764342D02*
X61595238Y-143859580D01*
X61595238Y-143859580D02*
X61642857Y-143907200D01*
X61642857Y-143907200D02*
X61738095Y-143954819D01*
X61738095Y-143954819D02*
X62119047Y-143954819D01*
X62119047Y-143954819D02*
X62119047Y-142954819D01*
X62119047Y-142954819D02*
X61785714Y-142954819D01*
X61785714Y-142954819D02*
X61690476Y-143002438D01*
X61690476Y-143002438D02*
X61642857Y-143050057D01*
X61642857Y-143050057D02*
X61595238Y-143145295D01*
X61595238Y-143145295D02*
X61595238Y-143240533D01*
X61595238Y-143240533D02*
X61642857Y-143335771D01*
X61642857Y-143335771D02*
X61690476Y-143383390D01*
X61690476Y-143383390D02*
X61785714Y-143431009D01*
X61785714Y-143431009D02*
X62119047Y-143431009D01*
X61261904Y-142954819D02*
X60690476Y-142954819D01*
X60976190Y-143954819D02*
X60976190Y-142954819D01*
X59833333Y-143954819D02*
X60404761Y-143954819D01*
X60119047Y-143954819D02*
X60119047Y-142954819D01*
X60119047Y-142954819D02*
X60214285Y-143097676D01*
X60214285Y-143097676D02*
X60309523Y-143192914D01*
X60309523Y-143192914D02*
X60404761Y-143240533D01*
%TO.C,U1*%
D12*
X40500000Y-158893000D02*
X40500000Y-141748000D01*
X38595000Y-160798000D02*
X24625000Y-160798000D01*
D13*
X36105000Y-139843000D02*
X36101272Y-138832728D01*
X35601272Y-138333000D02*
X27606000Y-138333000D01*
X27106000Y-138833000D02*
X27106000Y-139843000D01*
D12*
X24625000Y-139843000D02*
X38595000Y-139843000D01*
X22720000Y-158893000D02*
X22720000Y-141748000D01*
X38595000Y-139839000D02*
G75*
G02*
X40500000Y-141744000I-1J-1905001D01*
G01*
X40500000Y-158893000D02*
G75*
G02*
X38595000Y-160798000I-1905000J0D01*
G01*
D13*
X35601272Y-138333000D02*
G75*
G02*
X36101270Y-138832728I-22J-500020D01*
G01*
X27106000Y-138833000D02*
G75*
G02*
X27606000Y-138333000I500000J0D01*
G01*
D12*
X22720000Y-141748000D02*
G75*
G02*
X24625000Y-139843000I1905000J0D01*
G01*
X24625000Y-160798000D02*
G75*
G02*
X22720000Y-158893000I0J1905000D01*
G01*
D14*
X40962000Y-140259000D02*
G75*
G02*
X40458000Y-140259000I-252000J0D01*
G01*
X40458000Y-140259000D02*
G75*
G02*
X40962000Y-140259000I252000J0D01*
G01*
X39819000Y-141139000D02*
G75*
G02*
X39315000Y-141139000I-252000J0D01*
G01*
X39315000Y-141139000D02*
G75*
G02*
X39819000Y-141139000I252000J0D01*
G01*
%TO.C,BT1*%
D15*
X58700000Y-148550000D02*
X59700000Y-148550000D01*
X59700000Y-150150000D01*
X58700000Y-150150000D01*
X58700000Y-148550000D01*
X62300000Y-148550000D02*
X63300000Y-148550000D01*
X63300000Y-150150000D01*
X62300000Y-150150000D01*
X62300000Y-148550000D01*
X57940000Y-152410000D02*
X57940000Y-144590000D01*
X57940000Y-146190000D02*
X58860000Y-146190000D01*
X57940000Y-144590000D02*
X58860000Y-144590000D01*
X58860000Y-146190000D02*
X59140000Y-146190000D01*
X58860000Y-144590000D02*
X58860000Y-146190000D01*
X60500000Y-148050000D02*
X60500000Y-152410000D01*
X61500000Y-152410000D02*
X61500000Y-148050000D01*
X61500000Y-148050000D02*
X60500000Y-148050000D01*
X62300000Y-150150000D02*
X62300000Y-152410000D01*
X62800000Y-150150000D02*
X62800000Y-152410000D01*
X62860000Y-146190000D02*
X62860000Y-144975000D01*
X62860000Y-146190000D02*
X63140000Y-146190000D01*
X63140000Y-146190000D02*
X63140000Y-144590000D01*
X63140000Y-144590000D02*
X64060000Y-144590000D01*
X64060000Y-152410000D02*
X57940000Y-152410000D01*
X64060000Y-146190000D02*
X63140000Y-146190000D01*
X64060000Y-144590000D02*
X64060000Y-152410000D01*
%TD*%
M02*
