%TF.GenerationSoftware,KiCad,Pcbnew,10.0.6*%
%TF.CreationDate,2026-10-01T20:59:43+08:00*%
%TF.ProjectId,PondPad,506f6e64-5061-4642-9e6b-696361645f70,rev?*%
%TF.SameCoordinates,Original*%
%TF.FileFunction,Drillmap*%
%TF.FilePolarity,Positive*%
%FSLAX45Y45*%
G04 Gerber Fmt 4.5, Leading zero omitted, Abs format (unit mm)*
G04 Created by KiCad (PCBNEW 10.0.6) date 2026-10-01 20:59:43*
%MOMM*%
%LPD*%
G01*
G04 APERTURE LIST*
%ADD10C,0.050000*%
%ADD11C,0.200000*%
%ADD12C,0.100000*%
%ADD13C,0.150000*%
G04 APERTURE END LIST*
D10*
X1950000Y-19350000D02*
X12000000Y-19350000D01*
X1950000Y-19350000D02*
G75*
G02*
X1600000Y-19000000I0J350000D01*
G01*
X1600000Y-14100000D02*
X1600000Y-19000000D01*
X1600000Y-14100000D02*
G75*
G02*
X1950000Y-13750000I350000J0D01*
G01*
X12000000Y-13750000D02*
X1950000Y-13750000D01*
X12000000Y-13750000D02*
G75*
G02*
X12350000Y-14100000I0J-350000D01*
G01*
X12350000Y-19000000D02*
X12350000Y-14100000D01*
X12350000Y-19000000D02*
G75*
G02*
X12000000Y-19350000I-350000J0D01*
G01*
D11*
D12*
X2575000Y-15521000D02*
X2625000Y-15571000D01*
X2625000Y-15521000D02*
X2575000Y-15571000D01*
X2725000Y-15125000D02*
X2775000Y-15175000D01*
X2775000Y-15125000D02*
X2725000Y-15175000D01*
X3325000Y-14875000D02*
X3375000Y-14925000D01*
X3375000Y-14875000D02*
X3325000Y-14925000D01*
X4175000Y-15275000D02*
X4225000Y-15325000D01*
X4225000Y-15275000D02*
X4175000Y-15325000D01*
X4175000Y-15525000D02*
X4225000Y-15575000D01*
X4225000Y-15525000D02*
X4175000Y-15575000D01*
X4175000Y-15870000D02*
X4225000Y-15920000D01*
X4225000Y-15870000D02*
X4175000Y-15920000D01*
X4937500Y-14550000D02*
G75*
G02*
X4862500Y-14550000I-37500J0D01*
G01*
X4862500Y-14550000D02*
G75*
G02*
X4937500Y-14550000I37500J0D01*
G01*
X4937500Y-14750000D02*
G75*
G02*
X4862500Y-14750000I-37500J0D01*
G01*
X4862500Y-14750000D02*
G75*
G02*
X4937500Y-14750000I37500J0D01*
G01*
X4937500Y-14950000D02*
G75*
G02*
X4862500Y-14950000I-37500J0D01*
G01*
X4862500Y-14950000D02*
G75*
G02*
X4937500Y-14950000I37500J0D01*
G01*
X4937500Y-15150000D02*
G75*
G02*
X4862500Y-15150000I-37500J0D01*
G01*
X4862500Y-15150000D02*
G75*
G02*
X4937500Y-15150000I37500J0D01*
G01*
X4937500Y-15350000D02*
G75*
G02*
X4862500Y-15350000I-37500J0D01*
G01*
X4862500Y-15350000D02*
G75*
G02*
X4937500Y-15350000I37500J0D01*
G01*
X4937500Y-15550000D02*
G75*
G02*
X4862500Y-15550000I-37500J0D01*
G01*
X4862500Y-15550000D02*
G75*
G02*
X4937500Y-15550000I37500J0D01*
G01*
X4937500Y-15750000D02*
G75*
G02*
X4862500Y-15750000I-37500J0D01*
G01*
X4862500Y-15750000D02*
G75*
G02*
X4937500Y-15750000I37500J0D01*
G01*
X4937500Y-15950000D02*
G75*
G02*
X4862500Y-15950000I-37500J0D01*
G01*
X4862500Y-15950000D02*
G75*
G02*
X4937500Y-15950000I37500J0D01*
G01*
X6037500Y-14605000D02*
G75*
G02*
X5962500Y-14605000I-37500J0D01*
G01*
X5962500Y-14605000D02*
G75*
G02*
X6037500Y-14605000I37500J0D01*
G01*
X6237500Y-14605000D02*
G75*
G02*
X6162500Y-14605000I-37500J0D01*
G01*
X6162500Y-14605000D02*
G75*
G02*
X6237500Y-14605000I37500J0D01*
G01*
D13*
X2527000Y-17721000D02*
X2527000Y-17871000D01*
X2452000Y-17796000D02*
X2602000Y-17796000D01*
X3162000Y-17467000D02*
X3162000Y-17617000D01*
X3087000Y-17542000D02*
X3237000Y-17542000D01*
X4527000Y-17721000D02*
X4527000Y-17871000D01*
X4452000Y-17796000D02*
X4602000Y-17796000D01*
X5162000Y-17467000D02*
X5162000Y-17617000D01*
X5087000Y-17542000D02*
X5237000Y-17542000D01*
X6577000Y-17721000D02*
X6577000Y-17871000D01*
X6502000Y-17796000D02*
X6652000Y-17796000D01*
X7212000Y-17467000D02*
X7212000Y-17617000D01*
X7137000Y-17542000D02*
X7287000Y-17542000D01*
X8611000Y-17721000D02*
X8611000Y-17871000D01*
X8536000Y-17796000D02*
X8686000Y-17796000D01*
X9246000Y-17467000D02*
X9246000Y-17617000D01*
X9171000Y-17542000D02*
X9321000Y-17542000D01*
X10661000Y-17721000D02*
X10661000Y-17871000D01*
X10586000Y-17796000D02*
X10736000Y-17796000D01*
X11296000Y-17467000D02*
X11296000Y-17617000D01*
X11221000Y-17542000D02*
X11371000Y-17542000D01*
D11*
X1858277Y-19663984D02*
X1858277Y-19463984D01*
X1858277Y-19463984D02*
X1905896Y-19463984D01*
X1905896Y-19463984D02*
X1934467Y-19473508D01*
X1934467Y-19473508D02*
X1953515Y-19492555D01*
X1953515Y-19492555D02*
X1963039Y-19511603D01*
X1963039Y-19511603D02*
X1972562Y-19549698D01*
X1972562Y-19549698D02*
X1972562Y-19578270D01*
X1972562Y-19578270D02*
X1963039Y-19616365D01*
X1963039Y-19616365D02*
X1953515Y-19635412D01*
X1953515Y-19635412D02*
X1934467Y-19654460D01*
X1934467Y-19654460D02*
X1905896Y-19663984D01*
X1905896Y-19663984D02*
X1858277Y-19663984D01*
X2058277Y-19663984D02*
X2058277Y-19530650D01*
X2058277Y-19568746D02*
X2067801Y-19549698D01*
X2067801Y-19549698D02*
X2077324Y-19540174D01*
X2077324Y-19540174D02*
X2096372Y-19530650D01*
X2096372Y-19530650D02*
X2115420Y-19530650D01*
X2182086Y-19663984D02*
X2182086Y-19530650D01*
X2182086Y-19463984D02*
X2172563Y-19473508D01*
X2172563Y-19473508D02*
X2182086Y-19483031D01*
X2182086Y-19483031D02*
X2191610Y-19473508D01*
X2191610Y-19473508D02*
X2182086Y-19463984D01*
X2182086Y-19463984D02*
X2182086Y-19483031D01*
X2305896Y-19663984D02*
X2286848Y-19654460D01*
X2286848Y-19654460D02*
X2277324Y-19635412D01*
X2277324Y-19635412D02*
X2277324Y-19463984D01*
X2410658Y-19663984D02*
X2391610Y-19654460D01*
X2391610Y-19654460D02*
X2382086Y-19635412D01*
X2382086Y-19635412D02*
X2382086Y-19463984D01*
X2639229Y-19663984D02*
X2639229Y-19463984D01*
X2639229Y-19463984D02*
X2705896Y-19606841D01*
X2705896Y-19606841D02*
X2772563Y-19463984D01*
X2772563Y-19463984D02*
X2772563Y-19663984D01*
X2953515Y-19663984D02*
X2953515Y-19559222D01*
X2953515Y-19559222D02*
X2943991Y-19540174D01*
X2943991Y-19540174D02*
X2924943Y-19530650D01*
X2924943Y-19530650D02*
X2886848Y-19530650D01*
X2886848Y-19530650D02*
X2867801Y-19540174D01*
X2953515Y-19654460D02*
X2934467Y-19663984D01*
X2934467Y-19663984D02*
X2886848Y-19663984D01*
X2886848Y-19663984D02*
X2867801Y-19654460D01*
X2867801Y-19654460D02*
X2858277Y-19635412D01*
X2858277Y-19635412D02*
X2858277Y-19616365D01*
X2858277Y-19616365D02*
X2867801Y-19597317D01*
X2867801Y-19597317D02*
X2886848Y-19587793D01*
X2886848Y-19587793D02*
X2934467Y-19587793D01*
X2934467Y-19587793D02*
X2953515Y-19578270D01*
X3048753Y-19530650D02*
X3048753Y-19730650D01*
X3048753Y-19540174D02*
X3067801Y-19530650D01*
X3067801Y-19530650D02*
X3105896Y-19530650D01*
X3105896Y-19530650D02*
X3124943Y-19540174D01*
X3124943Y-19540174D02*
X3134467Y-19549698D01*
X3134467Y-19549698D02*
X3143991Y-19568746D01*
X3143991Y-19568746D02*
X3143991Y-19625889D01*
X3143991Y-19625889D02*
X3134467Y-19644936D01*
X3134467Y-19644936D02*
X3124943Y-19654460D01*
X3124943Y-19654460D02*
X3105896Y-19663984D01*
X3105896Y-19663984D02*
X3067801Y-19663984D01*
X3067801Y-19663984D02*
X3048753Y-19654460D01*
X3229705Y-19644936D02*
X3239229Y-19654460D01*
X3239229Y-19654460D02*
X3229705Y-19663984D01*
X3229705Y-19663984D02*
X3220182Y-19654460D01*
X3220182Y-19654460D02*
X3229705Y-19644936D01*
X3229705Y-19644936D02*
X3229705Y-19663984D01*
X3229705Y-19540174D02*
X3239229Y-19549698D01*
X3239229Y-19549698D02*
X3229705Y-19559222D01*
X3229705Y-19559222D02*
X3220182Y-19549698D01*
X3220182Y-19549698D02*
X3229705Y-19540174D01*
X3229705Y-19540174D02*
X3229705Y-19559222D01*
D12*
X1547500Y-19967500D02*
X1597500Y-20017500D01*
X1597500Y-19967500D02*
X1547500Y-20017500D01*
D11*
X1896372Y-19883984D02*
X1915420Y-19883984D01*
X1915420Y-19883984D02*
X1934467Y-19893508D01*
X1934467Y-19893508D02*
X1943991Y-19903031D01*
X1943991Y-19903031D02*
X1953515Y-19922079D01*
X1953515Y-19922079D02*
X1963039Y-19960174D01*
X1963039Y-19960174D02*
X1963039Y-20007793D01*
X1963039Y-20007793D02*
X1953515Y-20045889D01*
X1953515Y-20045889D02*
X1943991Y-20064936D01*
X1943991Y-20064936D02*
X1934467Y-20074460D01*
X1934467Y-20074460D02*
X1915420Y-20083984D01*
X1915420Y-20083984D02*
X1896372Y-20083984D01*
X1896372Y-20083984D02*
X1877324Y-20074460D01*
X1877324Y-20074460D02*
X1867801Y-20064936D01*
X1867801Y-20064936D02*
X1858277Y-20045889D01*
X1858277Y-20045889D02*
X1848753Y-20007793D01*
X1848753Y-20007793D02*
X1848753Y-19960174D01*
X1848753Y-19960174D02*
X1858277Y-19922079D01*
X1858277Y-19922079D02*
X1867801Y-19903031D01*
X1867801Y-19903031D02*
X1877324Y-19893508D01*
X1877324Y-19893508D02*
X1896372Y-19883984D01*
X2048753Y-20064936D02*
X2058277Y-20074460D01*
X2058277Y-20074460D02*
X2048753Y-20083984D01*
X2048753Y-20083984D02*
X2039229Y-20074460D01*
X2039229Y-20074460D02*
X2048753Y-20064936D01*
X2048753Y-20064936D02*
X2048753Y-20083984D01*
X2239229Y-19883984D02*
X2143991Y-19883984D01*
X2143991Y-19883984D02*
X2134467Y-19979222D01*
X2134467Y-19979222D02*
X2143991Y-19969698D01*
X2143991Y-19969698D02*
X2163039Y-19960174D01*
X2163039Y-19960174D02*
X2210658Y-19960174D01*
X2210658Y-19960174D02*
X2229705Y-19969698D01*
X2229705Y-19969698D02*
X2239229Y-19979222D01*
X2239229Y-19979222D02*
X2248753Y-19998270D01*
X2248753Y-19998270D02*
X2248753Y-20045889D01*
X2248753Y-20045889D02*
X2239229Y-20064936D01*
X2239229Y-20064936D02*
X2229705Y-20074460D01*
X2229705Y-20074460D02*
X2210658Y-20083984D01*
X2210658Y-20083984D02*
X2163039Y-20083984D01*
X2163039Y-20083984D02*
X2143991Y-20074460D01*
X2143991Y-20074460D02*
X2134467Y-20064936D01*
X2372563Y-19883984D02*
X2391610Y-19883984D01*
X2391610Y-19883984D02*
X2410658Y-19893508D01*
X2410658Y-19893508D02*
X2420182Y-19903031D01*
X2420182Y-19903031D02*
X2429705Y-19922079D01*
X2429705Y-19922079D02*
X2439229Y-19960174D01*
X2439229Y-19960174D02*
X2439229Y-20007793D01*
X2439229Y-20007793D02*
X2429705Y-20045889D01*
X2429705Y-20045889D02*
X2420182Y-20064936D01*
X2420182Y-20064936D02*
X2410658Y-20074460D01*
X2410658Y-20074460D02*
X2391610Y-20083984D01*
X2391610Y-20083984D02*
X2372563Y-20083984D01*
X2372563Y-20083984D02*
X2353515Y-20074460D01*
X2353515Y-20074460D02*
X2343991Y-20064936D01*
X2343991Y-20064936D02*
X2334467Y-20045889D01*
X2334467Y-20045889D02*
X2324944Y-20007793D01*
X2324944Y-20007793D02*
X2324944Y-19960174D01*
X2324944Y-19960174D02*
X2334467Y-19922079D01*
X2334467Y-19922079D02*
X2343991Y-19903031D01*
X2343991Y-19903031D02*
X2353515Y-19893508D01*
X2353515Y-19893508D02*
X2372563Y-19883984D01*
X2563039Y-19883984D02*
X2582086Y-19883984D01*
X2582086Y-19883984D02*
X2601134Y-19893508D01*
X2601134Y-19893508D02*
X2610658Y-19903031D01*
X2610658Y-19903031D02*
X2620182Y-19922079D01*
X2620182Y-19922079D02*
X2629705Y-19960174D01*
X2629705Y-19960174D02*
X2629705Y-20007793D01*
X2629705Y-20007793D02*
X2620182Y-20045889D01*
X2620182Y-20045889D02*
X2610658Y-20064936D01*
X2610658Y-20064936D02*
X2601134Y-20074460D01*
X2601134Y-20074460D02*
X2582086Y-20083984D01*
X2582086Y-20083984D02*
X2563039Y-20083984D01*
X2563039Y-20083984D02*
X2543991Y-20074460D01*
X2543991Y-20074460D02*
X2534467Y-20064936D01*
X2534467Y-20064936D02*
X2524944Y-20045889D01*
X2524944Y-20045889D02*
X2515420Y-20007793D01*
X2515420Y-20007793D02*
X2515420Y-19960174D01*
X2515420Y-19960174D02*
X2524944Y-19922079D01*
X2524944Y-19922079D02*
X2534467Y-19903031D01*
X2534467Y-19903031D02*
X2543991Y-19893508D01*
X2543991Y-19893508D02*
X2563039Y-19883984D01*
X2715420Y-20083984D02*
X2715420Y-19950650D01*
X2715420Y-19969698D02*
X2724944Y-19960174D01*
X2724944Y-19960174D02*
X2743991Y-19950650D01*
X2743991Y-19950650D02*
X2772563Y-19950650D01*
X2772563Y-19950650D02*
X2791610Y-19960174D01*
X2791610Y-19960174D02*
X2801134Y-19979222D01*
X2801134Y-19979222D02*
X2801134Y-20083984D01*
X2801134Y-19979222D02*
X2810658Y-19960174D01*
X2810658Y-19960174D02*
X2829705Y-19950650D01*
X2829705Y-19950650D02*
X2858277Y-19950650D01*
X2858277Y-19950650D02*
X2877324Y-19960174D01*
X2877324Y-19960174D02*
X2886848Y-19979222D01*
X2886848Y-19979222D02*
X2886848Y-20083984D01*
X2982086Y-20083984D02*
X2982086Y-19950650D01*
X2982086Y-19969698D02*
X2991610Y-19960174D01*
X2991610Y-19960174D02*
X3010658Y-19950650D01*
X3010658Y-19950650D02*
X3039229Y-19950650D01*
X3039229Y-19950650D02*
X3058277Y-19960174D01*
X3058277Y-19960174D02*
X3067801Y-19979222D01*
X3067801Y-19979222D02*
X3067801Y-20083984D01*
X3067801Y-19979222D02*
X3077324Y-19960174D01*
X3077324Y-19960174D02*
X3096372Y-19950650D01*
X3096372Y-19950650D02*
X3124943Y-19950650D01*
X3124943Y-19950650D02*
X3143991Y-19960174D01*
X3143991Y-19960174D02*
X3153515Y-19979222D01*
X3153515Y-19979222D02*
X3153515Y-20083984D01*
X3543991Y-19874460D02*
X3372563Y-20131603D01*
X3801134Y-19883984D02*
X3820182Y-19883984D01*
X3820182Y-19883984D02*
X3839229Y-19893508D01*
X3839229Y-19893508D02*
X3848753Y-19903031D01*
X3848753Y-19903031D02*
X3858277Y-19922079D01*
X3858277Y-19922079D02*
X3867801Y-19960174D01*
X3867801Y-19960174D02*
X3867801Y-20007793D01*
X3867801Y-20007793D02*
X3858277Y-20045889D01*
X3858277Y-20045889D02*
X3848753Y-20064936D01*
X3848753Y-20064936D02*
X3839229Y-20074460D01*
X3839229Y-20074460D02*
X3820182Y-20083984D01*
X3820182Y-20083984D02*
X3801134Y-20083984D01*
X3801134Y-20083984D02*
X3782086Y-20074460D01*
X3782086Y-20074460D02*
X3772563Y-20064936D01*
X3772563Y-20064936D02*
X3763039Y-20045889D01*
X3763039Y-20045889D02*
X3753515Y-20007793D01*
X3753515Y-20007793D02*
X3753515Y-19960174D01*
X3753515Y-19960174D02*
X3763039Y-19922079D01*
X3763039Y-19922079D02*
X3772563Y-19903031D01*
X3772563Y-19903031D02*
X3782086Y-19893508D01*
X3782086Y-19893508D02*
X3801134Y-19883984D01*
X3953515Y-20064936D02*
X3963039Y-20074460D01*
X3963039Y-20074460D02*
X3953515Y-20083984D01*
X3953515Y-20083984D02*
X3943991Y-20074460D01*
X3943991Y-20074460D02*
X3953515Y-20064936D01*
X3953515Y-20064936D02*
X3953515Y-20083984D01*
X4086848Y-19883984D02*
X4105896Y-19883984D01*
X4105896Y-19883984D02*
X4124944Y-19893508D01*
X4124944Y-19893508D02*
X4134467Y-19903031D01*
X4134467Y-19903031D02*
X4143991Y-19922079D01*
X4143991Y-19922079D02*
X4153515Y-19960174D01*
X4153515Y-19960174D02*
X4153515Y-20007793D01*
X4153515Y-20007793D02*
X4143991Y-20045889D01*
X4143991Y-20045889D02*
X4134467Y-20064936D01*
X4134467Y-20064936D02*
X4124944Y-20074460D01*
X4124944Y-20074460D02*
X4105896Y-20083984D01*
X4105896Y-20083984D02*
X4086848Y-20083984D01*
X4086848Y-20083984D02*
X4067801Y-20074460D01*
X4067801Y-20074460D02*
X4058277Y-20064936D01*
X4058277Y-20064936D02*
X4048753Y-20045889D01*
X4048753Y-20045889D02*
X4039229Y-20007793D01*
X4039229Y-20007793D02*
X4039229Y-19960174D01*
X4039229Y-19960174D02*
X4048753Y-19922079D01*
X4048753Y-19922079D02*
X4058277Y-19903031D01*
X4058277Y-19903031D02*
X4067801Y-19893508D01*
X4067801Y-19893508D02*
X4086848Y-19883984D01*
X4343991Y-20083984D02*
X4229706Y-20083984D01*
X4286848Y-20083984D02*
X4286848Y-19883984D01*
X4286848Y-19883984D02*
X4267801Y-19912555D01*
X4267801Y-19912555D02*
X4248753Y-19931603D01*
X4248753Y-19931603D02*
X4229706Y-19941127D01*
X4439229Y-20083984D02*
X4477325Y-20083984D01*
X4477325Y-20083984D02*
X4496372Y-20074460D01*
X4496372Y-20074460D02*
X4505896Y-20064936D01*
X4505896Y-20064936D02*
X4524944Y-20036365D01*
X4524944Y-20036365D02*
X4534468Y-19998270D01*
X4534468Y-19998270D02*
X4534468Y-19922079D01*
X4534468Y-19922079D02*
X4524944Y-19903031D01*
X4524944Y-19903031D02*
X4515420Y-19893508D01*
X4515420Y-19893508D02*
X4496372Y-19883984D01*
X4496372Y-19883984D02*
X4458277Y-19883984D01*
X4458277Y-19883984D02*
X4439229Y-19893508D01*
X4439229Y-19893508D02*
X4429706Y-19903031D01*
X4429706Y-19903031D02*
X4420182Y-19922079D01*
X4420182Y-19922079D02*
X4420182Y-19969698D01*
X4420182Y-19969698D02*
X4429706Y-19988746D01*
X4429706Y-19988746D02*
X4439229Y-19998270D01*
X4439229Y-19998270D02*
X4458277Y-20007793D01*
X4458277Y-20007793D02*
X4496372Y-20007793D01*
X4496372Y-20007793D02*
X4515420Y-19998270D01*
X4515420Y-19998270D02*
X4524944Y-19988746D01*
X4524944Y-19988746D02*
X4534468Y-19969698D01*
X4601134Y-19883984D02*
X4734468Y-19883984D01*
X4734468Y-19883984D02*
X4648753Y-20083984D01*
X4801134Y-19883984D02*
X4801134Y-19922079D01*
X4877325Y-19883984D02*
X4877325Y-19922079D01*
X5172563Y-20160174D02*
X5163039Y-20150650D01*
X5163039Y-20150650D02*
X5143991Y-20122079D01*
X5143991Y-20122079D02*
X5134468Y-20103031D01*
X5134468Y-20103031D02*
X5124944Y-20074460D01*
X5124944Y-20074460D02*
X5115420Y-20026841D01*
X5115420Y-20026841D02*
X5115420Y-19988746D01*
X5115420Y-19988746D02*
X5124944Y-19941127D01*
X5124944Y-19941127D02*
X5134468Y-19912555D01*
X5134468Y-19912555D02*
X5143991Y-19893508D01*
X5143991Y-19893508D02*
X5163039Y-19864936D01*
X5163039Y-19864936D02*
X5172563Y-19855412D01*
X5334468Y-19883984D02*
X5296372Y-19883984D01*
X5296372Y-19883984D02*
X5277325Y-19893508D01*
X5277325Y-19893508D02*
X5267801Y-19903031D01*
X5267801Y-19903031D02*
X5248753Y-19931603D01*
X5248753Y-19931603D02*
X5239230Y-19969698D01*
X5239230Y-19969698D02*
X5239230Y-20045889D01*
X5239230Y-20045889D02*
X5248753Y-20064936D01*
X5248753Y-20064936D02*
X5258277Y-20074460D01*
X5258277Y-20074460D02*
X5277325Y-20083984D01*
X5277325Y-20083984D02*
X5315420Y-20083984D01*
X5315420Y-20083984D02*
X5334468Y-20074460D01*
X5334468Y-20074460D02*
X5343991Y-20064936D01*
X5343991Y-20064936D02*
X5353515Y-20045889D01*
X5353515Y-20045889D02*
X5353515Y-19998270D01*
X5353515Y-19998270D02*
X5343991Y-19979222D01*
X5343991Y-19979222D02*
X5334468Y-19969698D01*
X5334468Y-19969698D02*
X5315420Y-19960174D01*
X5315420Y-19960174D02*
X5277325Y-19960174D01*
X5277325Y-19960174D02*
X5258277Y-19969698D01*
X5258277Y-19969698D02*
X5248753Y-19979222D01*
X5248753Y-19979222D02*
X5239230Y-19998270D01*
X5591611Y-20083984D02*
X5591611Y-19883984D01*
X5677325Y-20083984D02*
X5677325Y-19979222D01*
X5677325Y-19979222D02*
X5667801Y-19960174D01*
X5667801Y-19960174D02*
X5648753Y-19950650D01*
X5648753Y-19950650D02*
X5620182Y-19950650D01*
X5620182Y-19950650D02*
X5601134Y-19960174D01*
X5601134Y-19960174D02*
X5591611Y-19969698D01*
X5801134Y-20083984D02*
X5782087Y-20074460D01*
X5782087Y-20074460D02*
X5772563Y-20064936D01*
X5772563Y-20064936D02*
X5763039Y-20045889D01*
X5763039Y-20045889D02*
X5763039Y-19988746D01*
X5763039Y-19988746D02*
X5772563Y-19969698D01*
X5772563Y-19969698D02*
X5782087Y-19960174D01*
X5782087Y-19960174D02*
X5801134Y-19950650D01*
X5801134Y-19950650D02*
X5829706Y-19950650D01*
X5829706Y-19950650D02*
X5848753Y-19960174D01*
X5848753Y-19960174D02*
X5858277Y-19969698D01*
X5858277Y-19969698D02*
X5867801Y-19988746D01*
X5867801Y-19988746D02*
X5867801Y-20045889D01*
X5867801Y-20045889D02*
X5858277Y-20064936D01*
X5858277Y-20064936D02*
X5848753Y-20074460D01*
X5848753Y-20074460D02*
X5829706Y-20083984D01*
X5829706Y-20083984D02*
X5801134Y-20083984D01*
X5982087Y-20083984D02*
X5963039Y-20074460D01*
X5963039Y-20074460D02*
X5953515Y-20055412D01*
X5953515Y-20055412D02*
X5953515Y-19883984D01*
X6134468Y-20074460D02*
X6115420Y-20083984D01*
X6115420Y-20083984D02*
X6077325Y-20083984D01*
X6077325Y-20083984D02*
X6058277Y-20074460D01*
X6058277Y-20074460D02*
X6048753Y-20055412D01*
X6048753Y-20055412D02*
X6048753Y-19979222D01*
X6048753Y-19979222D02*
X6058277Y-19960174D01*
X6058277Y-19960174D02*
X6077325Y-19950650D01*
X6077325Y-19950650D02*
X6115420Y-19950650D01*
X6115420Y-19950650D02*
X6134468Y-19960174D01*
X6134468Y-19960174D02*
X6143991Y-19979222D01*
X6143991Y-19979222D02*
X6143991Y-19998270D01*
X6143991Y-19998270D02*
X6048753Y-20017317D01*
X6220182Y-20074460D02*
X6239230Y-20083984D01*
X6239230Y-20083984D02*
X6277325Y-20083984D01*
X6277325Y-20083984D02*
X6296372Y-20074460D01*
X6296372Y-20074460D02*
X6305896Y-20055412D01*
X6305896Y-20055412D02*
X6305896Y-20045889D01*
X6305896Y-20045889D02*
X6296372Y-20026841D01*
X6296372Y-20026841D02*
X6277325Y-20017317D01*
X6277325Y-20017317D02*
X6248753Y-20017317D01*
X6248753Y-20017317D02*
X6229706Y-20007793D01*
X6229706Y-20007793D02*
X6220182Y-19988746D01*
X6220182Y-19988746D02*
X6220182Y-19979222D01*
X6220182Y-19979222D02*
X6229706Y-19960174D01*
X6229706Y-19960174D02*
X6248753Y-19950650D01*
X6248753Y-19950650D02*
X6277325Y-19950650D01*
X6277325Y-19950650D02*
X6296372Y-19960174D01*
X6372563Y-20160174D02*
X6382087Y-20150650D01*
X6382087Y-20150650D02*
X6401134Y-20122079D01*
X6401134Y-20122079D02*
X6410658Y-20103031D01*
X6410658Y-20103031D02*
X6420182Y-20074460D01*
X6420182Y-20074460D02*
X6429706Y-20026841D01*
X6429706Y-20026841D02*
X6429706Y-19988746D01*
X6429706Y-19988746D02*
X6420182Y-19941127D01*
X6420182Y-19941127D02*
X6410658Y-19912555D01*
X6410658Y-19912555D02*
X6401134Y-19893508D01*
X6401134Y-19893508D02*
X6382087Y-19864936D01*
X6382087Y-19864936D02*
X6372563Y-19855412D01*
D12*
X1597500Y-20256500D02*
G75*
G02*
X1522500Y-20256500I-37500J0D01*
G01*
X1522500Y-20256500D02*
G75*
G02*
X1597500Y-20256500I37500J0D01*
G01*
D11*
X1896372Y-20147984D02*
X1915420Y-20147984D01*
X1915420Y-20147984D02*
X1934467Y-20157508D01*
X1934467Y-20157508D02*
X1943991Y-20167031D01*
X1943991Y-20167031D02*
X1953515Y-20186079D01*
X1953515Y-20186079D02*
X1963039Y-20224174D01*
X1963039Y-20224174D02*
X1963039Y-20271793D01*
X1963039Y-20271793D02*
X1953515Y-20309889D01*
X1953515Y-20309889D02*
X1943991Y-20328936D01*
X1943991Y-20328936D02*
X1934467Y-20338460D01*
X1934467Y-20338460D02*
X1915420Y-20347984D01*
X1915420Y-20347984D02*
X1896372Y-20347984D01*
X1896372Y-20347984D02*
X1877324Y-20338460D01*
X1877324Y-20338460D02*
X1867801Y-20328936D01*
X1867801Y-20328936D02*
X1858277Y-20309889D01*
X1858277Y-20309889D02*
X1848753Y-20271793D01*
X1848753Y-20271793D02*
X1848753Y-20224174D01*
X1848753Y-20224174D02*
X1858277Y-20186079D01*
X1858277Y-20186079D02*
X1867801Y-20167031D01*
X1867801Y-20167031D02*
X1877324Y-20157508D01*
X1877324Y-20157508D02*
X1896372Y-20147984D01*
X2048753Y-20328936D02*
X2058277Y-20338460D01*
X2058277Y-20338460D02*
X2048753Y-20347984D01*
X2048753Y-20347984D02*
X2039229Y-20338460D01*
X2039229Y-20338460D02*
X2048753Y-20328936D01*
X2048753Y-20328936D02*
X2048753Y-20347984D01*
X2124944Y-20147984D02*
X2258277Y-20147984D01*
X2258277Y-20147984D02*
X2172563Y-20347984D01*
X2429705Y-20147984D02*
X2334467Y-20147984D01*
X2334467Y-20147984D02*
X2324944Y-20243222D01*
X2324944Y-20243222D02*
X2334467Y-20233698D01*
X2334467Y-20233698D02*
X2353515Y-20224174D01*
X2353515Y-20224174D02*
X2401134Y-20224174D01*
X2401134Y-20224174D02*
X2420182Y-20233698D01*
X2420182Y-20233698D02*
X2429705Y-20243222D01*
X2429705Y-20243222D02*
X2439229Y-20262270D01*
X2439229Y-20262270D02*
X2439229Y-20309889D01*
X2439229Y-20309889D02*
X2429705Y-20328936D01*
X2429705Y-20328936D02*
X2420182Y-20338460D01*
X2420182Y-20338460D02*
X2401134Y-20347984D01*
X2401134Y-20347984D02*
X2353515Y-20347984D01*
X2353515Y-20347984D02*
X2334467Y-20338460D01*
X2334467Y-20338460D02*
X2324944Y-20328936D01*
X2563039Y-20147984D02*
X2582086Y-20147984D01*
X2582086Y-20147984D02*
X2601134Y-20157508D01*
X2601134Y-20157508D02*
X2610658Y-20167031D01*
X2610658Y-20167031D02*
X2620182Y-20186079D01*
X2620182Y-20186079D02*
X2629705Y-20224174D01*
X2629705Y-20224174D02*
X2629705Y-20271793D01*
X2629705Y-20271793D02*
X2620182Y-20309889D01*
X2620182Y-20309889D02*
X2610658Y-20328936D01*
X2610658Y-20328936D02*
X2601134Y-20338460D01*
X2601134Y-20338460D02*
X2582086Y-20347984D01*
X2582086Y-20347984D02*
X2563039Y-20347984D01*
X2563039Y-20347984D02*
X2543991Y-20338460D01*
X2543991Y-20338460D02*
X2534467Y-20328936D01*
X2534467Y-20328936D02*
X2524944Y-20309889D01*
X2524944Y-20309889D02*
X2515420Y-20271793D01*
X2515420Y-20271793D02*
X2515420Y-20224174D01*
X2515420Y-20224174D02*
X2524944Y-20186079D01*
X2524944Y-20186079D02*
X2534467Y-20167031D01*
X2534467Y-20167031D02*
X2543991Y-20157508D01*
X2543991Y-20157508D02*
X2563039Y-20147984D01*
X2715420Y-20347984D02*
X2715420Y-20214650D01*
X2715420Y-20233698D02*
X2724944Y-20224174D01*
X2724944Y-20224174D02*
X2743991Y-20214650D01*
X2743991Y-20214650D02*
X2772563Y-20214650D01*
X2772563Y-20214650D02*
X2791610Y-20224174D01*
X2791610Y-20224174D02*
X2801134Y-20243222D01*
X2801134Y-20243222D02*
X2801134Y-20347984D01*
X2801134Y-20243222D02*
X2810658Y-20224174D01*
X2810658Y-20224174D02*
X2829705Y-20214650D01*
X2829705Y-20214650D02*
X2858277Y-20214650D01*
X2858277Y-20214650D02*
X2877324Y-20224174D01*
X2877324Y-20224174D02*
X2886848Y-20243222D01*
X2886848Y-20243222D02*
X2886848Y-20347984D01*
X2982086Y-20347984D02*
X2982086Y-20214650D01*
X2982086Y-20233698D02*
X2991610Y-20224174D01*
X2991610Y-20224174D02*
X3010658Y-20214650D01*
X3010658Y-20214650D02*
X3039229Y-20214650D01*
X3039229Y-20214650D02*
X3058277Y-20224174D01*
X3058277Y-20224174D02*
X3067801Y-20243222D01*
X3067801Y-20243222D02*
X3067801Y-20347984D01*
X3067801Y-20243222D02*
X3077324Y-20224174D01*
X3077324Y-20224174D02*
X3096372Y-20214650D01*
X3096372Y-20214650D02*
X3124943Y-20214650D01*
X3124943Y-20214650D02*
X3143991Y-20224174D01*
X3143991Y-20224174D02*
X3153515Y-20243222D01*
X3153515Y-20243222D02*
X3153515Y-20347984D01*
X3543991Y-20138460D02*
X3372563Y-20395603D01*
X3801134Y-20147984D02*
X3820182Y-20147984D01*
X3820182Y-20147984D02*
X3839229Y-20157508D01*
X3839229Y-20157508D02*
X3848753Y-20167031D01*
X3848753Y-20167031D02*
X3858277Y-20186079D01*
X3858277Y-20186079D02*
X3867801Y-20224174D01*
X3867801Y-20224174D02*
X3867801Y-20271793D01*
X3867801Y-20271793D02*
X3858277Y-20309889D01*
X3858277Y-20309889D02*
X3848753Y-20328936D01*
X3848753Y-20328936D02*
X3839229Y-20338460D01*
X3839229Y-20338460D02*
X3820182Y-20347984D01*
X3820182Y-20347984D02*
X3801134Y-20347984D01*
X3801134Y-20347984D02*
X3782086Y-20338460D01*
X3782086Y-20338460D02*
X3772563Y-20328936D01*
X3772563Y-20328936D02*
X3763039Y-20309889D01*
X3763039Y-20309889D02*
X3753515Y-20271793D01*
X3753515Y-20271793D02*
X3753515Y-20224174D01*
X3753515Y-20224174D02*
X3763039Y-20186079D01*
X3763039Y-20186079D02*
X3772563Y-20167031D01*
X3772563Y-20167031D02*
X3782086Y-20157508D01*
X3782086Y-20157508D02*
X3801134Y-20147984D01*
X3953515Y-20328936D02*
X3963039Y-20338460D01*
X3963039Y-20338460D02*
X3953515Y-20347984D01*
X3953515Y-20347984D02*
X3943991Y-20338460D01*
X3943991Y-20338460D02*
X3953515Y-20328936D01*
X3953515Y-20328936D02*
X3953515Y-20347984D01*
X4086848Y-20147984D02*
X4105896Y-20147984D01*
X4105896Y-20147984D02*
X4124944Y-20157508D01*
X4124944Y-20157508D02*
X4134467Y-20167031D01*
X4134467Y-20167031D02*
X4143991Y-20186079D01*
X4143991Y-20186079D02*
X4153515Y-20224174D01*
X4153515Y-20224174D02*
X4153515Y-20271793D01*
X4153515Y-20271793D02*
X4143991Y-20309889D01*
X4143991Y-20309889D02*
X4134467Y-20328936D01*
X4134467Y-20328936D02*
X4124944Y-20338460D01*
X4124944Y-20338460D02*
X4105896Y-20347984D01*
X4105896Y-20347984D02*
X4086848Y-20347984D01*
X4086848Y-20347984D02*
X4067801Y-20338460D01*
X4067801Y-20338460D02*
X4058277Y-20328936D01*
X4058277Y-20328936D02*
X4048753Y-20309889D01*
X4048753Y-20309889D02*
X4039229Y-20271793D01*
X4039229Y-20271793D02*
X4039229Y-20224174D01*
X4039229Y-20224174D02*
X4048753Y-20186079D01*
X4048753Y-20186079D02*
X4058277Y-20167031D01*
X4058277Y-20167031D02*
X4067801Y-20157508D01*
X4067801Y-20157508D02*
X4086848Y-20147984D01*
X4229706Y-20167031D02*
X4239229Y-20157508D01*
X4239229Y-20157508D02*
X4258277Y-20147984D01*
X4258277Y-20147984D02*
X4305896Y-20147984D01*
X4305896Y-20147984D02*
X4324944Y-20157508D01*
X4324944Y-20157508D02*
X4334468Y-20167031D01*
X4334468Y-20167031D02*
X4343991Y-20186079D01*
X4343991Y-20186079D02*
X4343991Y-20205127D01*
X4343991Y-20205127D02*
X4334468Y-20233698D01*
X4334468Y-20233698D02*
X4220182Y-20347984D01*
X4220182Y-20347984D02*
X4343991Y-20347984D01*
X4439229Y-20347984D02*
X4477325Y-20347984D01*
X4477325Y-20347984D02*
X4496372Y-20338460D01*
X4496372Y-20338460D02*
X4505896Y-20328936D01*
X4505896Y-20328936D02*
X4524944Y-20300365D01*
X4524944Y-20300365D02*
X4534468Y-20262270D01*
X4534468Y-20262270D02*
X4534468Y-20186079D01*
X4534468Y-20186079D02*
X4524944Y-20167031D01*
X4524944Y-20167031D02*
X4515420Y-20157508D01*
X4515420Y-20157508D02*
X4496372Y-20147984D01*
X4496372Y-20147984D02*
X4458277Y-20147984D01*
X4458277Y-20147984D02*
X4439229Y-20157508D01*
X4439229Y-20157508D02*
X4429706Y-20167031D01*
X4429706Y-20167031D02*
X4420182Y-20186079D01*
X4420182Y-20186079D02*
X4420182Y-20233698D01*
X4420182Y-20233698D02*
X4429706Y-20252746D01*
X4429706Y-20252746D02*
X4439229Y-20262270D01*
X4439229Y-20262270D02*
X4458277Y-20271793D01*
X4458277Y-20271793D02*
X4496372Y-20271793D01*
X4496372Y-20271793D02*
X4515420Y-20262270D01*
X4515420Y-20262270D02*
X4524944Y-20252746D01*
X4524944Y-20252746D02*
X4534468Y-20233698D01*
X4715420Y-20147984D02*
X4620182Y-20147984D01*
X4620182Y-20147984D02*
X4610658Y-20243222D01*
X4610658Y-20243222D02*
X4620182Y-20233698D01*
X4620182Y-20233698D02*
X4639229Y-20224174D01*
X4639229Y-20224174D02*
X4686849Y-20224174D01*
X4686849Y-20224174D02*
X4705896Y-20233698D01*
X4705896Y-20233698D02*
X4715420Y-20243222D01*
X4715420Y-20243222D02*
X4724944Y-20262270D01*
X4724944Y-20262270D02*
X4724944Y-20309889D01*
X4724944Y-20309889D02*
X4715420Y-20328936D01*
X4715420Y-20328936D02*
X4705896Y-20338460D01*
X4705896Y-20338460D02*
X4686849Y-20347984D01*
X4686849Y-20347984D02*
X4639229Y-20347984D01*
X4639229Y-20347984D02*
X4620182Y-20338460D01*
X4620182Y-20338460D02*
X4610658Y-20328936D01*
X4801134Y-20147984D02*
X4801134Y-20186079D01*
X4877325Y-20147984D02*
X4877325Y-20186079D01*
X5172563Y-20424174D02*
X5163039Y-20414650D01*
X5163039Y-20414650D02*
X5143991Y-20386079D01*
X5143991Y-20386079D02*
X5134468Y-20367031D01*
X5134468Y-20367031D02*
X5124944Y-20338460D01*
X5124944Y-20338460D02*
X5115420Y-20290841D01*
X5115420Y-20290841D02*
X5115420Y-20252746D01*
X5115420Y-20252746D02*
X5124944Y-20205127D01*
X5124944Y-20205127D02*
X5134468Y-20176555D01*
X5134468Y-20176555D02*
X5143991Y-20157508D01*
X5143991Y-20157508D02*
X5163039Y-20128936D01*
X5163039Y-20128936D02*
X5172563Y-20119412D01*
X5353515Y-20347984D02*
X5239230Y-20347984D01*
X5296372Y-20347984D02*
X5296372Y-20147984D01*
X5296372Y-20147984D02*
X5277325Y-20176555D01*
X5277325Y-20176555D02*
X5258277Y-20195603D01*
X5258277Y-20195603D02*
X5239230Y-20205127D01*
X5477325Y-20147984D02*
X5496372Y-20147984D01*
X5496372Y-20147984D02*
X5515420Y-20157508D01*
X5515420Y-20157508D02*
X5524944Y-20167031D01*
X5524944Y-20167031D02*
X5534468Y-20186079D01*
X5534468Y-20186079D02*
X5543991Y-20224174D01*
X5543991Y-20224174D02*
X5543991Y-20271793D01*
X5543991Y-20271793D02*
X5534468Y-20309889D01*
X5534468Y-20309889D02*
X5524944Y-20328936D01*
X5524944Y-20328936D02*
X5515420Y-20338460D01*
X5515420Y-20338460D02*
X5496372Y-20347984D01*
X5496372Y-20347984D02*
X5477325Y-20347984D01*
X5477325Y-20347984D02*
X5458277Y-20338460D01*
X5458277Y-20338460D02*
X5448753Y-20328936D01*
X5448753Y-20328936D02*
X5439230Y-20309889D01*
X5439230Y-20309889D02*
X5429706Y-20271793D01*
X5429706Y-20271793D02*
X5429706Y-20224174D01*
X5429706Y-20224174D02*
X5439230Y-20186079D01*
X5439230Y-20186079D02*
X5448753Y-20167031D01*
X5448753Y-20167031D02*
X5458277Y-20157508D01*
X5458277Y-20157508D02*
X5477325Y-20147984D01*
X5782087Y-20347984D02*
X5782087Y-20147984D01*
X5867801Y-20347984D02*
X5867801Y-20243222D01*
X5867801Y-20243222D02*
X5858277Y-20224174D01*
X5858277Y-20224174D02*
X5839230Y-20214650D01*
X5839230Y-20214650D02*
X5810658Y-20214650D01*
X5810658Y-20214650D02*
X5791610Y-20224174D01*
X5791610Y-20224174D02*
X5782087Y-20233698D01*
X5991610Y-20347984D02*
X5972563Y-20338460D01*
X5972563Y-20338460D02*
X5963039Y-20328936D01*
X5963039Y-20328936D02*
X5953515Y-20309889D01*
X5953515Y-20309889D02*
X5953515Y-20252746D01*
X5953515Y-20252746D02*
X5963039Y-20233698D01*
X5963039Y-20233698D02*
X5972563Y-20224174D01*
X5972563Y-20224174D02*
X5991610Y-20214650D01*
X5991610Y-20214650D02*
X6020182Y-20214650D01*
X6020182Y-20214650D02*
X6039230Y-20224174D01*
X6039230Y-20224174D02*
X6048753Y-20233698D01*
X6048753Y-20233698D02*
X6058277Y-20252746D01*
X6058277Y-20252746D02*
X6058277Y-20309889D01*
X6058277Y-20309889D02*
X6048753Y-20328936D01*
X6048753Y-20328936D02*
X6039230Y-20338460D01*
X6039230Y-20338460D02*
X6020182Y-20347984D01*
X6020182Y-20347984D02*
X5991610Y-20347984D01*
X6172563Y-20347984D02*
X6153515Y-20338460D01*
X6153515Y-20338460D02*
X6143991Y-20319412D01*
X6143991Y-20319412D02*
X6143991Y-20147984D01*
X6324944Y-20338460D02*
X6305896Y-20347984D01*
X6305896Y-20347984D02*
X6267801Y-20347984D01*
X6267801Y-20347984D02*
X6248753Y-20338460D01*
X6248753Y-20338460D02*
X6239230Y-20319412D01*
X6239230Y-20319412D02*
X6239230Y-20243222D01*
X6239230Y-20243222D02*
X6248753Y-20224174D01*
X6248753Y-20224174D02*
X6267801Y-20214650D01*
X6267801Y-20214650D02*
X6305896Y-20214650D01*
X6305896Y-20214650D02*
X6324944Y-20224174D01*
X6324944Y-20224174D02*
X6334468Y-20243222D01*
X6334468Y-20243222D02*
X6334468Y-20262270D01*
X6334468Y-20262270D02*
X6239230Y-20281317D01*
X6410658Y-20338460D02*
X6429706Y-20347984D01*
X6429706Y-20347984D02*
X6467801Y-20347984D01*
X6467801Y-20347984D02*
X6486849Y-20338460D01*
X6486849Y-20338460D02*
X6496372Y-20319412D01*
X6496372Y-20319412D02*
X6496372Y-20309889D01*
X6496372Y-20309889D02*
X6486849Y-20290841D01*
X6486849Y-20290841D02*
X6467801Y-20281317D01*
X6467801Y-20281317D02*
X6439230Y-20281317D01*
X6439230Y-20281317D02*
X6420182Y-20271793D01*
X6420182Y-20271793D02*
X6410658Y-20252746D01*
X6410658Y-20252746D02*
X6410658Y-20243222D01*
X6410658Y-20243222D02*
X6420182Y-20224174D01*
X6420182Y-20224174D02*
X6439230Y-20214650D01*
X6439230Y-20214650D02*
X6467801Y-20214650D01*
X6467801Y-20214650D02*
X6486849Y-20224174D01*
X6563039Y-20424174D02*
X6572563Y-20414650D01*
X6572563Y-20414650D02*
X6591611Y-20386079D01*
X6591611Y-20386079D02*
X6601134Y-20367031D01*
X6601134Y-20367031D02*
X6610658Y-20338460D01*
X6610658Y-20338460D02*
X6620182Y-20290841D01*
X6620182Y-20290841D02*
X6620182Y-20252746D01*
X6620182Y-20252746D02*
X6610658Y-20205127D01*
X6610658Y-20205127D02*
X6601134Y-20176555D01*
X6601134Y-20176555D02*
X6591611Y-20157508D01*
X6591611Y-20157508D02*
X6572563Y-20128936D01*
X6572563Y-20128936D02*
X6563039Y-20119412D01*
D13*
X1522500Y-20445500D02*
X1522500Y-20595500D01*
X1447500Y-20520500D02*
X1597500Y-20520500D01*
D11*
X1963039Y-20611984D02*
X1848753Y-20611984D01*
X1905896Y-20611984D02*
X1905896Y-20411984D01*
X1905896Y-20411984D02*
X1886848Y-20440555D01*
X1886848Y-20440555D02*
X1867801Y-20459603D01*
X1867801Y-20459603D02*
X1848753Y-20469127D01*
X2048753Y-20592936D02*
X2058277Y-20602460D01*
X2058277Y-20602460D02*
X2048753Y-20611984D01*
X2048753Y-20611984D02*
X2039229Y-20602460D01*
X2039229Y-20602460D02*
X2048753Y-20592936D01*
X2048753Y-20592936D02*
X2048753Y-20611984D01*
X2239229Y-20411984D02*
X2143991Y-20411984D01*
X2143991Y-20411984D02*
X2134467Y-20507222D01*
X2134467Y-20507222D02*
X2143991Y-20497698D01*
X2143991Y-20497698D02*
X2163039Y-20488174D01*
X2163039Y-20488174D02*
X2210658Y-20488174D01*
X2210658Y-20488174D02*
X2229705Y-20497698D01*
X2229705Y-20497698D02*
X2239229Y-20507222D01*
X2239229Y-20507222D02*
X2248753Y-20526270D01*
X2248753Y-20526270D02*
X2248753Y-20573889D01*
X2248753Y-20573889D02*
X2239229Y-20592936D01*
X2239229Y-20592936D02*
X2229705Y-20602460D01*
X2229705Y-20602460D02*
X2210658Y-20611984D01*
X2210658Y-20611984D02*
X2163039Y-20611984D01*
X2163039Y-20611984D02*
X2143991Y-20602460D01*
X2143991Y-20602460D02*
X2134467Y-20592936D01*
X2372563Y-20411984D02*
X2391610Y-20411984D01*
X2391610Y-20411984D02*
X2410658Y-20421508D01*
X2410658Y-20421508D02*
X2420182Y-20431031D01*
X2420182Y-20431031D02*
X2429705Y-20450079D01*
X2429705Y-20450079D02*
X2439229Y-20488174D01*
X2439229Y-20488174D02*
X2439229Y-20535793D01*
X2439229Y-20535793D02*
X2429705Y-20573889D01*
X2429705Y-20573889D02*
X2420182Y-20592936D01*
X2420182Y-20592936D02*
X2410658Y-20602460D01*
X2410658Y-20602460D02*
X2391610Y-20611984D01*
X2391610Y-20611984D02*
X2372563Y-20611984D01*
X2372563Y-20611984D02*
X2353515Y-20602460D01*
X2353515Y-20602460D02*
X2343991Y-20592936D01*
X2343991Y-20592936D02*
X2334467Y-20573889D01*
X2334467Y-20573889D02*
X2324944Y-20535793D01*
X2324944Y-20535793D02*
X2324944Y-20488174D01*
X2324944Y-20488174D02*
X2334467Y-20450079D01*
X2334467Y-20450079D02*
X2343991Y-20431031D01*
X2343991Y-20431031D02*
X2353515Y-20421508D01*
X2353515Y-20421508D02*
X2372563Y-20411984D01*
X2563039Y-20411984D02*
X2582086Y-20411984D01*
X2582086Y-20411984D02*
X2601134Y-20421508D01*
X2601134Y-20421508D02*
X2610658Y-20431031D01*
X2610658Y-20431031D02*
X2620182Y-20450079D01*
X2620182Y-20450079D02*
X2629705Y-20488174D01*
X2629705Y-20488174D02*
X2629705Y-20535793D01*
X2629705Y-20535793D02*
X2620182Y-20573889D01*
X2620182Y-20573889D02*
X2610658Y-20592936D01*
X2610658Y-20592936D02*
X2601134Y-20602460D01*
X2601134Y-20602460D02*
X2582086Y-20611984D01*
X2582086Y-20611984D02*
X2563039Y-20611984D01*
X2563039Y-20611984D02*
X2543991Y-20602460D01*
X2543991Y-20602460D02*
X2534467Y-20592936D01*
X2534467Y-20592936D02*
X2524944Y-20573889D01*
X2524944Y-20573889D02*
X2515420Y-20535793D01*
X2515420Y-20535793D02*
X2515420Y-20488174D01*
X2515420Y-20488174D02*
X2524944Y-20450079D01*
X2524944Y-20450079D02*
X2534467Y-20431031D01*
X2534467Y-20431031D02*
X2543991Y-20421508D01*
X2543991Y-20421508D02*
X2563039Y-20411984D01*
X2715420Y-20611984D02*
X2715420Y-20478650D01*
X2715420Y-20497698D02*
X2724944Y-20488174D01*
X2724944Y-20488174D02*
X2743991Y-20478650D01*
X2743991Y-20478650D02*
X2772563Y-20478650D01*
X2772563Y-20478650D02*
X2791610Y-20488174D01*
X2791610Y-20488174D02*
X2801134Y-20507222D01*
X2801134Y-20507222D02*
X2801134Y-20611984D01*
X2801134Y-20507222D02*
X2810658Y-20488174D01*
X2810658Y-20488174D02*
X2829705Y-20478650D01*
X2829705Y-20478650D02*
X2858277Y-20478650D01*
X2858277Y-20478650D02*
X2877324Y-20488174D01*
X2877324Y-20488174D02*
X2886848Y-20507222D01*
X2886848Y-20507222D02*
X2886848Y-20611984D01*
X2982086Y-20611984D02*
X2982086Y-20478650D01*
X2982086Y-20497698D02*
X2991610Y-20488174D01*
X2991610Y-20488174D02*
X3010658Y-20478650D01*
X3010658Y-20478650D02*
X3039229Y-20478650D01*
X3039229Y-20478650D02*
X3058277Y-20488174D01*
X3058277Y-20488174D02*
X3067801Y-20507222D01*
X3067801Y-20507222D02*
X3067801Y-20611984D01*
X3067801Y-20507222D02*
X3077324Y-20488174D01*
X3077324Y-20488174D02*
X3096372Y-20478650D01*
X3096372Y-20478650D02*
X3124943Y-20478650D01*
X3124943Y-20478650D02*
X3143991Y-20488174D01*
X3143991Y-20488174D02*
X3153515Y-20507222D01*
X3153515Y-20507222D02*
X3153515Y-20611984D01*
X3543991Y-20402460D02*
X3372563Y-20659603D01*
X3801134Y-20411984D02*
X3820182Y-20411984D01*
X3820182Y-20411984D02*
X3839229Y-20421508D01*
X3839229Y-20421508D02*
X3848753Y-20431031D01*
X3848753Y-20431031D02*
X3858277Y-20450079D01*
X3858277Y-20450079D02*
X3867801Y-20488174D01*
X3867801Y-20488174D02*
X3867801Y-20535793D01*
X3867801Y-20535793D02*
X3858277Y-20573889D01*
X3858277Y-20573889D02*
X3848753Y-20592936D01*
X3848753Y-20592936D02*
X3839229Y-20602460D01*
X3839229Y-20602460D02*
X3820182Y-20611984D01*
X3820182Y-20611984D02*
X3801134Y-20611984D01*
X3801134Y-20611984D02*
X3782086Y-20602460D01*
X3782086Y-20602460D02*
X3772563Y-20592936D01*
X3772563Y-20592936D02*
X3763039Y-20573889D01*
X3763039Y-20573889D02*
X3753515Y-20535793D01*
X3753515Y-20535793D02*
X3753515Y-20488174D01*
X3753515Y-20488174D02*
X3763039Y-20450079D01*
X3763039Y-20450079D02*
X3772563Y-20431031D01*
X3772563Y-20431031D02*
X3782086Y-20421508D01*
X3782086Y-20421508D02*
X3801134Y-20411984D01*
X3953515Y-20592936D02*
X3963039Y-20602460D01*
X3963039Y-20602460D02*
X3953515Y-20611984D01*
X3953515Y-20611984D02*
X3943991Y-20602460D01*
X3943991Y-20602460D02*
X3953515Y-20592936D01*
X3953515Y-20592936D02*
X3953515Y-20611984D01*
X4086848Y-20411984D02*
X4105896Y-20411984D01*
X4105896Y-20411984D02*
X4124944Y-20421508D01*
X4124944Y-20421508D02*
X4134467Y-20431031D01*
X4134467Y-20431031D02*
X4143991Y-20450079D01*
X4143991Y-20450079D02*
X4153515Y-20488174D01*
X4153515Y-20488174D02*
X4153515Y-20535793D01*
X4153515Y-20535793D02*
X4143991Y-20573889D01*
X4143991Y-20573889D02*
X4134467Y-20592936D01*
X4134467Y-20592936D02*
X4124944Y-20602460D01*
X4124944Y-20602460D02*
X4105896Y-20611984D01*
X4105896Y-20611984D02*
X4086848Y-20611984D01*
X4086848Y-20611984D02*
X4067801Y-20602460D01*
X4067801Y-20602460D02*
X4058277Y-20592936D01*
X4058277Y-20592936D02*
X4048753Y-20573889D01*
X4048753Y-20573889D02*
X4039229Y-20535793D01*
X4039229Y-20535793D02*
X4039229Y-20488174D01*
X4039229Y-20488174D02*
X4048753Y-20450079D01*
X4048753Y-20450079D02*
X4058277Y-20431031D01*
X4058277Y-20431031D02*
X4067801Y-20421508D01*
X4067801Y-20421508D02*
X4086848Y-20411984D01*
X4334468Y-20411984D02*
X4239229Y-20411984D01*
X4239229Y-20411984D02*
X4229706Y-20507222D01*
X4229706Y-20507222D02*
X4239229Y-20497698D01*
X4239229Y-20497698D02*
X4258277Y-20488174D01*
X4258277Y-20488174D02*
X4305896Y-20488174D01*
X4305896Y-20488174D02*
X4324944Y-20497698D01*
X4324944Y-20497698D02*
X4334468Y-20507222D01*
X4334468Y-20507222D02*
X4343991Y-20526270D01*
X4343991Y-20526270D02*
X4343991Y-20573889D01*
X4343991Y-20573889D02*
X4334468Y-20592936D01*
X4334468Y-20592936D02*
X4324944Y-20602460D01*
X4324944Y-20602460D02*
X4305896Y-20611984D01*
X4305896Y-20611984D02*
X4258277Y-20611984D01*
X4258277Y-20611984D02*
X4239229Y-20602460D01*
X4239229Y-20602460D02*
X4229706Y-20592936D01*
X4439229Y-20611984D02*
X4477325Y-20611984D01*
X4477325Y-20611984D02*
X4496372Y-20602460D01*
X4496372Y-20602460D02*
X4505896Y-20592936D01*
X4505896Y-20592936D02*
X4524944Y-20564365D01*
X4524944Y-20564365D02*
X4534468Y-20526270D01*
X4534468Y-20526270D02*
X4534468Y-20450079D01*
X4534468Y-20450079D02*
X4524944Y-20431031D01*
X4524944Y-20431031D02*
X4515420Y-20421508D01*
X4515420Y-20421508D02*
X4496372Y-20411984D01*
X4496372Y-20411984D02*
X4458277Y-20411984D01*
X4458277Y-20411984D02*
X4439229Y-20421508D01*
X4439229Y-20421508D02*
X4429706Y-20431031D01*
X4429706Y-20431031D02*
X4420182Y-20450079D01*
X4420182Y-20450079D02*
X4420182Y-20497698D01*
X4420182Y-20497698D02*
X4429706Y-20516746D01*
X4429706Y-20516746D02*
X4439229Y-20526270D01*
X4439229Y-20526270D02*
X4458277Y-20535793D01*
X4458277Y-20535793D02*
X4496372Y-20535793D01*
X4496372Y-20535793D02*
X4515420Y-20526270D01*
X4515420Y-20526270D02*
X4524944Y-20516746D01*
X4524944Y-20516746D02*
X4534468Y-20497698D01*
X4724944Y-20611984D02*
X4610658Y-20611984D01*
X4667801Y-20611984D02*
X4667801Y-20411984D01*
X4667801Y-20411984D02*
X4648753Y-20440555D01*
X4648753Y-20440555D02*
X4629706Y-20459603D01*
X4629706Y-20459603D02*
X4610658Y-20469127D01*
X4801134Y-20411984D02*
X4801134Y-20450079D01*
X4877325Y-20411984D02*
X4877325Y-20450079D01*
X5172563Y-20688174D02*
X5163039Y-20678650D01*
X5163039Y-20678650D02*
X5143991Y-20650079D01*
X5143991Y-20650079D02*
X5134468Y-20631031D01*
X5134468Y-20631031D02*
X5124944Y-20602460D01*
X5124944Y-20602460D02*
X5115420Y-20554841D01*
X5115420Y-20554841D02*
X5115420Y-20516746D01*
X5115420Y-20516746D02*
X5124944Y-20469127D01*
X5124944Y-20469127D02*
X5134468Y-20440555D01*
X5134468Y-20440555D02*
X5143991Y-20421508D01*
X5143991Y-20421508D02*
X5163039Y-20392936D01*
X5163039Y-20392936D02*
X5172563Y-20383412D01*
X5353515Y-20611984D02*
X5239230Y-20611984D01*
X5296372Y-20611984D02*
X5296372Y-20411984D01*
X5296372Y-20411984D02*
X5277325Y-20440555D01*
X5277325Y-20440555D02*
X5258277Y-20459603D01*
X5258277Y-20459603D02*
X5239230Y-20469127D01*
X5477325Y-20411984D02*
X5496372Y-20411984D01*
X5496372Y-20411984D02*
X5515420Y-20421508D01*
X5515420Y-20421508D02*
X5524944Y-20431031D01*
X5524944Y-20431031D02*
X5534468Y-20450079D01*
X5534468Y-20450079D02*
X5543991Y-20488174D01*
X5543991Y-20488174D02*
X5543991Y-20535793D01*
X5543991Y-20535793D02*
X5534468Y-20573889D01*
X5534468Y-20573889D02*
X5524944Y-20592936D01*
X5524944Y-20592936D02*
X5515420Y-20602460D01*
X5515420Y-20602460D02*
X5496372Y-20611984D01*
X5496372Y-20611984D02*
X5477325Y-20611984D01*
X5477325Y-20611984D02*
X5458277Y-20602460D01*
X5458277Y-20602460D02*
X5448753Y-20592936D01*
X5448753Y-20592936D02*
X5439230Y-20573889D01*
X5439230Y-20573889D02*
X5429706Y-20535793D01*
X5429706Y-20535793D02*
X5429706Y-20488174D01*
X5429706Y-20488174D02*
X5439230Y-20450079D01*
X5439230Y-20450079D02*
X5448753Y-20431031D01*
X5448753Y-20431031D02*
X5458277Y-20421508D01*
X5458277Y-20421508D02*
X5477325Y-20411984D01*
X5782087Y-20611984D02*
X5782087Y-20411984D01*
X5867801Y-20611984D02*
X5867801Y-20507222D01*
X5867801Y-20507222D02*
X5858277Y-20488174D01*
X5858277Y-20488174D02*
X5839230Y-20478650D01*
X5839230Y-20478650D02*
X5810658Y-20478650D01*
X5810658Y-20478650D02*
X5791610Y-20488174D01*
X5791610Y-20488174D02*
X5782087Y-20497698D01*
X5991610Y-20611984D02*
X5972563Y-20602460D01*
X5972563Y-20602460D02*
X5963039Y-20592936D01*
X5963039Y-20592936D02*
X5953515Y-20573889D01*
X5953515Y-20573889D02*
X5953515Y-20516746D01*
X5953515Y-20516746D02*
X5963039Y-20497698D01*
X5963039Y-20497698D02*
X5972563Y-20488174D01*
X5972563Y-20488174D02*
X5991610Y-20478650D01*
X5991610Y-20478650D02*
X6020182Y-20478650D01*
X6020182Y-20478650D02*
X6039230Y-20488174D01*
X6039230Y-20488174D02*
X6048753Y-20497698D01*
X6048753Y-20497698D02*
X6058277Y-20516746D01*
X6058277Y-20516746D02*
X6058277Y-20573889D01*
X6058277Y-20573889D02*
X6048753Y-20592936D01*
X6048753Y-20592936D02*
X6039230Y-20602460D01*
X6039230Y-20602460D02*
X6020182Y-20611984D01*
X6020182Y-20611984D02*
X5991610Y-20611984D01*
X6172563Y-20611984D02*
X6153515Y-20602460D01*
X6153515Y-20602460D02*
X6143991Y-20583412D01*
X6143991Y-20583412D02*
X6143991Y-20411984D01*
X6324944Y-20602460D02*
X6305896Y-20611984D01*
X6305896Y-20611984D02*
X6267801Y-20611984D01*
X6267801Y-20611984D02*
X6248753Y-20602460D01*
X6248753Y-20602460D02*
X6239230Y-20583412D01*
X6239230Y-20583412D02*
X6239230Y-20507222D01*
X6239230Y-20507222D02*
X6248753Y-20488174D01*
X6248753Y-20488174D02*
X6267801Y-20478650D01*
X6267801Y-20478650D02*
X6305896Y-20478650D01*
X6305896Y-20478650D02*
X6324944Y-20488174D01*
X6324944Y-20488174D02*
X6334468Y-20507222D01*
X6334468Y-20507222D02*
X6334468Y-20526270D01*
X6334468Y-20526270D02*
X6239230Y-20545317D01*
X6410658Y-20602460D02*
X6429706Y-20611984D01*
X6429706Y-20611984D02*
X6467801Y-20611984D01*
X6467801Y-20611984D02*
X6486849Y-20602460D01*
X6486849Y-20602460D02*
X6496372Y-20583412D01*
X6496372Y-20583412D02*
X6496372Y-20573889D01*
X6496372Y-20573889D02*
X6486849Y-20554841D01*
X6486849Y-20554841D02*
X6467801Y-20545317D01*
X6467801Y-20545317D02*
X6439230Y-20545317D01*
X6439230Y-20545317D02*
X6420182Y-20535793D01*
X6420182Y-20535793D02*
X6410658Y-20516746D01*
X6410658Y-20516746D02*
X6410658Y-20507222D01*
X6410658Y-20507222D02*
X6420182Y-20488174D01*
X6420182Y-20488174D02*
X6439230Y-20478650D01*
X6439230Y-20478650D02*
X6467801Y-20478650D01*
X6467801Y-20478650D02*
X6486849Y-20488174D01*
X6563039Y-20688174D02*
X6572563Y-20678650D01*
X6572563Y-20678650D02*
X6591611Y-20650079D01*
X6591611Y-20650079D02*
X6601134Y-20631031D01*
X6601134Y-20631031D02*
X6610658Y-20602460D01*
X6610658Y-20602460D02*
X6620182Y-20554841D01*
X6620182Y-20554841D02*
X6620182Y-20516746D01*
X6620182Y-20516746D02*
X6610658Y-20469127D01*
X6610658Y-20469127D02*
X6601134Y-20440555D01*
X6601134Y-20440555D02*
X6591611Y-20421508D01*
X6591611Y-20421508D02*
X6572563Y-20392936D01*
X6572563Y-20392936D02*
X6563039Y-20383412D01*
M02*
