%TF.GenerationSoftware,KiCad,Pcbnew,10.0.6*%
%TF.CreationDate,2026-10-01T20:59:41+08:00*%
%TF.ProjectId,PondPad,506f6e64-5061-4642-9e6b-696361645f70,rev?*%
%TF.SameCoordinates,Original*%
%TF.FileFunction,Copper,L2,Bot*%
%TF.FilePolarity,Positive*%
%FSLAX46Y46*%
G04 Gerber Fmt 4.6, Leading zero omitted, Abs format (unit mm)*
G04 Created by KiCad (PCBNEW 10.0.6) date 2026-10-01 20:59:41*
%MOMM*%
%LPD*%
G01*
G04 APERTURE LIST*
G04 Aperture macros list*
%AMRoundRect*
0 Rectangle with rounded corners*
0 $1 Rounding radius*
0 $2 $3 $4 $5 $6 $7 $8 $9 X,Y pos of 4 corners*
0 Add a 4 corners polygon primitive as box body*
4,1,4,$2,$3,$4,$5,$6,$7,$8,$9,$2,$3,0*
0 Add four circle primitives for the rounded corners*
1,1,$1+$1,$2,$3*
1,1,$1+$1,$4,$5*
1,1,$1+$1,$6,$7*
1,1,$1+$1,$8,$9*
0 Add four rect primitives between the rounded corners*
20,1,$1+$1,$2,$3,$4,$5,0*
20,1,$1+$1,$4,$5,$6,$7,0*
20,1,$1+$1,$6,$7,$8,$9,0*
20,1,$1+$1,$8,$9,$2,$3,0*%
G04 Aperture macros list end*
%TA.AperFunction,SMDPad,CuDef*%
%ADD10RoundRect,0.500000X0.875000X0.500000X-0.875000X0.500000X-0.875000X-0.500000X0.875000X-0.500000X0*%
%TD*%
%TA.AperFunction,SMDPad,CuDef*%
%ADD11C,1.700000*%
%TD*%
%TA.AperFunction,SMDPad,CuDef*%
%ADD12RoundRect,0.275000X-0.975000X-0.275000X0.975000X-0.275000X0.975000X0.275000X-0.975000X0.275000X0*%
%TD*%
%TA.AperFunction,ComponentPad*%
%ADD13C,2.200000*%
%TD*%
%TA.AperFunction,ComponentPad*%
%ADD14RoundRect,0.250000X0.625000X-0.350000X0.625000X0.350000X-0.625000X0.350000X-0.625000X-0.350000X0*%
%TD*%
%TA.AperFunction,ComponentPad*%
%ADD15O,1.750000X1.200000*%
%TD*%
%TA.AperFunction,ComponentPad*%
%ADD16O,1.200000X1.750000*%
%TD*%
%TA.AperFunction,ComponentPad*%
%ADD17RoundRect,0.250000X0.350000X0.625000X-0.350000X0.625000X-0.350000X-0.625000X0.350000X-0.625000X0*%
%TD*%
%TA.AperFunction,ViaPad*%
%ADD18C,1.100000*%
%TD*%
%TA.AperFunction,Conductor*%
%ADD19C,0.600000*%
%TD*%
G04 APERTURE END LIST*
D10*
%TO.P,U1,1,D0_1*%
%TO.N,/BLK*%
X39665000Y-142760000D03*
%TO.P,U1,2,D1_2*%
%TO.N,/RST*%
X39665000Y-145300000D03*
%TO.P,U1,3,D2_3*%
%TO.N,/DC*%
X39665000Y-147840000D03*
%TO.P,U1,4,D3_4*%
%TO.N,/CS*%
X39665000Y-150380000D03*
%TO.P,U1,5,D4_5*%
%TO.N,/SW1*%
X39665000Y-152920000D03*
%TO.P,U1,6,D5_6*%
%TO.N,/SW2*%
X39665000Y-155460000D03*
%TO.P,U1,7,D6_7*%
%TO.N,/SW3*%
X39665000Y-158000000D03*
%TO.P,U1,8,D7_8*%
%TO.N,/SW5*%
X23500000Y-158000000D03*
%TO.P,U1,9,D8_9*%
%TO.N,/CLK*%
X23500000Y-155460000D03*
%TO.P,U1,10,D9/BOOT_10*%
%TO.N,/SW4*%
X23500000Y-152920000D03*
%TO.P,U1,11,D10_11*%
%TO.N,/DIN*%
X23500000Y-150380000D03*
%TO.P,U1,12,3V3_OUT_12*%
%TO.N,+3V3*%
X23500000Y-147840000D03*
%TO.P,U1,13,GND_13*%
%TO.N,GND*%
X23500000Y-145300000D03*
%TO.P,U1,14,VBUS_14*%
%TO.N,unconnected-(U1-VBUS-Pad14)*%
X23500000Y-142760000D03*
D11*
%TO.P,U1,15,D3/MTDI_15*%
%TO.N,unconnected-(U1-D3{slash}MTDI-Pad15)*%
X32880000Y-141748000D03*
%TO.P,U1,16,D5/MTDO_16*%
%TO.N,unconnected-(U1-D5{slash}MTDO-Pad16)*%
X30340000Y-141748000D03*
%TO.P,U1,17,EN_17*%
%TO.N,unconnected-(U1-EN-Pad17)*%
X32880000Y-144288000D03*
%TO.P,U1,18,GND_18*%
%TO.N,unconnected-(U1-GND-Pad18)*%
X30340000Y-144288000D03*
%TO.P,U1,19,D2/MTMS_19*%
%TO.N,unconnected-(U1-D2{slash}MTMS-Pad19)*%
X32880000Y-146828000D03*
%TO.P,U1,20,D4/MTCK_20*%
%TO.N,unconnected-(U1-D4{slash}MTCK-Pad20)*%
X30340000Y-146828000D03*
D12*
%TO.P,U1,21,VBAT_21*%
%TO.N,Net-(BT1-+)*%
X36055000Y-149998000D03*
%TO.P,U1,22,GND_22*%
%TO.N,Net-(BT1--)*%
X36055000Y-148093000D03*
%TD*%
D13*
%TO.P,SW5,1,1_1*%
%TO.N,/SW5*%
X31620000Y-175420000D03*
%TO.P,SW5,2,2_2*%
%TO.N,GND*%
X25270000Y-177960000D03*
%TD*%
%TO.P,SW4,1,1_1*%
%TO.N,/SW4*%
X51620000Y-175420000D03*
%TO.P,SW4,2,2_2*%
%TO.N,GND*%
X45270000Y-177960000D03*
%TD*%
%TO.P,SW3,1,1_1*%
%TO.N,/SW3*%
X72120000Y-175420000D03*
%TO.P,SW3,2,2_2*%
%TO.N,GND*%
X65770000Y-177960000D03*
%TD*%
%TO.P,SW2,1,1_1*%
%TO.N,/SW2*%
X92460000Y-175420000D03*
%TO.P,SW2,2,2_2*%
%TO.N,GND*%
X86110000Y-177960000D03*
%TD*%
%TO.P,SW1,1,1_1*%
%TO.N,/SW1*%
X112960000Y-175420000D03*
%TO.P,SW1,2,2_2*%
%TO.N,GND*%
X106610000Y-177960000D03*
%TD*%
D14*
%TO.P,J1,1,Pin_1_1*%
%TO.N,GND*%
X49000000Y-159500000D03*
D15*
%TO.P,J1,2,Pin_2_2*%
%TO.N,+3V3*%
X49000000Y-157500000D03*
%TO.P,J1,3,Pin_3_3*%
%TO.N,/DIN*%
X49000000Y-155500000D03*
%TO.P,J1,4,Pin_4_4*%
%TO.N,/CLK*%
X49000000Y-153500000D03*
%TO.P,J1,5,Pin_5_5*%
%TO.N,/CS*%
X49000000Y-151500000D03*
%TO.P,J1,6,Pin_6_6*%
%TO.N,/DC*%
X49000000Y-149500000D03*
%TO.P,J1,7,Pin_7_7*%
%TO.N,/RST*%
X49000000Y-147500000D03*
%TO.P,J1,8,Pin_8_8*%
%TO.N,/BLK*%
X49000000Y-145500000D03*
%TD*%
D16*
%TO.P,BT1,2,-_2*%
%TO.N,Net-(BT1--)*%
X60000000Y-146050000D03*
D17*
%TO.P,BT1,1,+_1*%
%TO.N,Net-(BT1-+)*%
X62000000Y-146050000D03*
%TD*%
D18*
%TO.N,Net-(BT1-+)*%
X33500000Y-149000000D03*
%TO.N,/SW3*%
X42000000Y-158950000D03*
%TO.N,/SW2*%
X42000000Y-155500000D03*
%TO.N,/SW1*%
X42000000Y-153000000D03*
%TO.N,/CLK*%
X26000000Y-155460000D03*
%TO.N,/DIN*%
X27500000Y-151500000D03*
%TD*%
%TO.N,GND*%
D19*
X21000000Y-145500000D02*
X21000000Y-173690000D01*
X21000000Y-173690000D02*
X25270000Y-177960000D01*
X21200000Y-145300000D02*
X21000000Y-145500000D01*
X23500000Y-145300000D02*
X21200000Y-145300000D01*
%TO.N,Net-(BT1-+)*%
X34498000Y-149998000D02*
X33500000Y-149000000D01*
X36055000Y-149998000D02*
X34498000Y-149998000D01*
%TO.N,Net-(BT1--)*%
X55210000Y-141260000D02*
X60000000Y-146050000D01*
X38368516Y-141260000D02*
X55210000Y-141260000D01*
X36055000Y-143573516D02*
X38368516Y-141260000D01*
X36055000Y-148093000D02*
X36055000Y-143573516D01*
%TO.N,/DIN*%
X25880000Y-150380000D02*
X23500000Y-150380000D01*
X27000000Y-151500000D02*
X25880000Y-150380000D01*
X27500000Y-151500000D02*
X27000000Y-151500000D01*
%TO.N,GND*%
X53000000Y-163500000D02*
X49000000Y-159500000D01*
X106610000Y-177960000D02*
X92150000Y-163500000D01*
X92150000Y-163500000D02*
X53000000Y-163500000D01*
%TO.N,+3V3*%
X30000000Y-159500000D02*
X30500000Y-160000000D01*
X30000000Y-152000000D02*
X30000000Y-159500000D01*
X42500000Y-160000000D02*
X45000000Y-157500000D01*
X25840000Y-147840000D02*
X30000000Y-152000000D01*
X23500000Y-147840000D02*
X25840000Y-147840000D01*
X30500000Y-160000000D02*
X42500000Y-160000000D01*
X45000000Y-157500000D02*
X49000000Y-157500000D01*
%TO.N,/CS*%
X43297500Y-151500000D02*
X49000000Y-151500000D01*
X39702500Y-150500000D02*
X42297500Y-150500000D01*
X42297500Y-150500000D02*
X43297500Y-151500000D01*
%TO.N,/DC*%
X44297500Y-149500000D02*
X49000000Y-149500000D01*
X42797500Y-148000000D02*
X44297500Y-149500000D01*
X40202500Y-148000000D02*
X42797500Y-148000000D01*
%TO.N,/RST*%
X46500000Y-147500000D02*
X49000000Y-147500000D01*
%TO.N,/BLK*%
X45000000Y-145500000D02*
X49000000Y-145500000D01*
X42260000Y-142760000D02*
X45000000Y-145500000D01*
X39665000Y-142760000D02*
X42260000Y-142760000D01*
%TO.N,/SW3*%
X41050000Y-158000000D02*
X39665000Y-158000000D01*
X42000000Y-158950000D02*
X41050000Y-158000000D01*
%TO.N,/SW2*%
X39202500Y-155500000D02*
X41797500Y-155500000D01*
%TO.N,/SW1*%
X39202500Y-153000000D02*
X41797500Y-153000000D01*
%TO.N,/RST*%
X45500000Y-146500000D02*
X46500000Y-147500000D01*
X43000000Y-145500000D02*
X44000000Y-146500000D01*
X44000000Y-146500000D02*
X45500000Y-146500000D01*
X39702500Y-145500000D02*
X43000000Y-145500000D01*
%TO.N,GND*%
X25280000Y-177950000D02*
X25270000Y-177960000D01*
X33103755Y-177950000D02*
X25280000Y-177950000D01*
X33113755Y-177960000D02*
X33103755Y-177950000D01*
X33113755Y-177960000D02*
X45270000Y-177960000D01*
%TO.N,/SW5*%
X26000000Y-169800000D02*
X31620000Y-175420000D01*
X26000000Y-158000000D02*
X26000000Y-169800000D01*
X23580000Y-158000000D02*
X26000000Y-158000000D01*
%TO.N,/CLK*%
X26000000Y-155460000D02*
X23500000Y-155460000D01*
%TO.N,/SW4*%
X28500000Y-161500000D02*
X42420000Y-175420000D01*
X28500000Y-155500000D02*
X28500000Y-161500000D01*
X42420000Y-175420000D02*
X51620000Y-175420000D01*
X25920000Y-152920000D02*
X28500000Y-155500000D01*
X23500000Y-152920000D02*
X25920000Y-152920000D01*
%TO.N,GND*%
X90360001Y-176860001D02*
X91460000Y-177960000D01*
X91460000Y-177960000D02*
X106610000Y-177960000D01*
X87209999Y-176860001D02*
X90360001Y-176860001D01*
X86110000Y-177960000D02*
X87209999Y-176860001D01*
X72460000Y-177960000D02*
X86110000Y-177960000D01*
X66869999Y-176860001D02*
X71360001Y-176860001D01*
X65770000Y-177960000D02*
X66869999Y-176860001D01*
X71360001Y-176860001D02*
X72460000Y-177960000D01*
X65760000Y-177950000D02*
X65770000Y-177960000D01*
X45280000Y-177950000D02*
X65760000Y-177950000D01*
X45270000Y-177960000D02*
X45280000Y-177950000D01*
%TD*%
M02*
