%TF.GenerationSoftware,KiCad,Pcbnew,10.0.6*%
%TF.CreationDate,2026-10-01T20:59:41+08:00*%
%TF.ProjectId,PondPad,506f6e64-5061-4642-9e6b-696361645f70,rev?*%
%TF.SameCoordinates,Original*%
%TF.FileFunction,Copper,L1,Top*%
%TF.FilePolarity,Positive*%
%FSLAX46Y46*%
G04 Gerber Fmt 4.6, Leading zero omitted, Abs format (unit mm)*
G04 Created by KiCad (PCBNEW 10.0.6) date 2026-10-01 20:59:41*
%MOMM*%
%LPD*%
G01*
G04 APERTURE LIST*
G04 Aperture macros list*
%AMRoundRect*
0 Rectangle with rounded corners*
0 $1 Rounding radius*
0 $2 $3 $4 $5 $6 $7 $8 $9 X,Y pos of 4 corners*
0 Add a 4 corners polygon primitive as box body*
4,1,4,$2,$3,$4,$5,$6,$7,$8,$9,$2,$3,0*
0 Add four circle primitives for the rounded corners*
1,1,$1+$1,$2,$3*
1,1,$1+$1,$4,$5*
1,1,$1+$1,$6,$7*
1,1,$1+$1,$8,$9*
0 Add four rect primitives between the rounded corners*
20,1,$1+$1,$2,$3,$4,$5,0*
20,1,$1+$1,$4,$5,$6,$7,0*
20,1,$1+$1,$6,$7,$8,$9,0*
20,1,$1+$1,$8,$9,$2,$3,0*%
G04 Aperture macros list end*
%TA.AperFunction,ComponentPad*%
%ADD10C,2.200000*%
%TD*%
%TA.AperFunction,ComponentPad*%
%ADD11RoundRect,0.250000X0.625000X-0.350000X0.625000X0.350000X-0.625000X0.350000X-0.625000X-0.350000X0*%
%TD*%
%TA.AperFunction,ComponentPad*%
%ADD12O,1.750000X1.200000*%
%TD*%
%TA.AperFunction,ComponentPad*%
%ADD13O,1.200000X1.750000*%
%TD*%
%TA.AperFunction,ComponentPad*%
%ADD14RoundRect,0.250000X0.350000X0.625000X-0.350000X0.625000X-0.350000X-0.625000X0.350000X-0.625000X0*%
%TD*%
%TA.AperFunction,ViaPad*%
%ADD15C,1.100000*%
%TD*%
%TA.AperFunction,Conductor*%
%ADD16C,0.600000*%
%TD*%
G04 APERTURE END LIST*
D10*
%TO.P,SW5,1,1_1*%
%TO.N,/SW5*%
X31620000Y-175420000D03*
%TO.P,SW5,2,2_2*%
%TO.N,GND*%
X25270000Y-177960000D03*
%TD*%
%TO.P,SW4,1,1_1*%
%TO.N,/SW4*%
X51620000Y-175420000D03*
%TO.P,SW4,2,2_2*%
%TO.N,GND*%
X45270000Y-177960000D03*
%TD*%
%TO.P,SW3,1,1_1*%
%TO.N,/SW3*%
X72120000Y-175420000D03*
%TO.P,SW3,2,2_2*%
%TO.N,GND*%
X65770000Y-177960000D03*
%TD*%
%TO.P,SW2,1,1_1*%
%TO.N,/SW2*%
X92460000Y-175420000D03*
%TO.P,SW2,2,2_2*%
%TO.N,GND*%
X86110000Y-177960000D03*
%TD*%
%TO.P,SW1,1,1_1*%
%TO.N,/SW1*%
X112960000Y-175420000D03*
%TO.P,SW1,2,2_2*%
%TO.N,GND*%
X106610000Y-177960000D03*
%TD*%
D11*
%TO.P,J1,1,Pin_1_1*%
%TO.N,GND*%
X49000000Y-159500000D03*
D12*
%TO.P,J1,2,Pin_2_2*%
%TO.N,+3V3*%
X49000000Y-157500000D03*
%TO.P,J1,3,Pin_3_3*%
%TO.N,/DIN*%
X49000000Y-155500000D03*
%TO.P,J1,4,Pin_4_4*%
%TO.N,/CLK*%
X49000000Y-153500000D03*
%TO.P,J1,5,Pin_5_5*%
%TO.N,/CS*%
X49000000Y-151500000D03*
%TO.P,J1,6,Pin_6_6*%
%TO.N,/DC*%
X49000000Y-149500000D03*
%TO.P,J1,7,Pin_7_7*%
%TO.N,/RST*%
X49000000Y-147500000D03*
%TO.P,J1,8,Pin_8_8*%
%TO.N,/BLK*%
X49000000Y-145500000D03*
%TD*%
D13*
%TO.P,BT1,2,-_2*%
%TO.N,Net-(BT1--)*%
X60000000Y-146050000D03*
D14*
%TO.P,BT1,1,+_1*%
%TO.N,Net-(BT1-+)*%
X62000000Y-146050000D03*
%TD*%
D15*
%TO.N,Net-(BT1-+)*%
X33500000Y-149000000D03*
%TO.N,/SW3*%
X42000000Y-158950000D03*
%TO.N,/SW2*%
X42000000Y-155500000D03*
%TO.N,/SW1*%
X42000000Y-153000000D03*
%TO.N,/CLK*%
X26000000Y-155460000D03*
%TO.N,/DIN*%
X27500000Y-151500000D03*
%TD*%
%TO.N,Net-(BT1-+)*%
D16*
X55950000Y-140000000D02*
X62000000Y-146050000D01*
X37500000Y-140000000D02*
X55950000Y-140000000D01*
X33500000Y-144000000D02*
X37500000Y-140000000D01*
X33500000Y-149000000D02*
X33500000Y-144000000D01*
%TO.N,/DIN*%
X46500000Y-155500000D02*
X49000000Y-155500000D01*
X42500000Y-151500000D02*
X46500000Y-155500000D01*
X27500000Y-151500000D02*
X42500000Y-151500000D01*
%TO.N,/CLK*%
X46500000Y-153500000D02*
X49000000Y-153500000D01*
X43000000Y-150000000D02*
X46500000Y-153500000D01*
X25950000Y-154950000D02*
X25950000Y-150550000D01*
X25950000Y-150550000D02*
X26500000Y-150000000D01*
X26000000Y-155000000D02*
X25950000Y-154950000D01*
X26500000Y-150000000D02*
X43000000Y-150000000D01*
X26000000Y-155460000D02*
X26000000Y-155000000D01*
%TO.N,/SW1*%
X109040000Y-171500000D02*
X112960000Y-175420000D01*
X54500000Y-171500000D02*
X109040000Y-171500000D01*
X45000000Y-162000000D02*
X54500000Y-171500000D01*
X42000000Y-153000000D02*
X45000000Y-156000000D01*
X45000000Y-156000000D02*
X45000000Y-162000000D01*
%TO.N,/SW2*%
X43500000Y-162500000D02*
X54820000Y-173820000D01*
X43500000Y-157000000D02*
X43500000Y-162500000D01*
X54820000Y-173820000D02*
X90860000Y-173820000D01*
X90860000Y-173820000D02*
X92460000Y-175420000D01*
X42000000Y-155500000D02*
X43500000Y-157000000D01*
%TO.N,/SW3*%
X54420000Y-175420000D02*
X72120000Y-175420000D01*
X42000000Y-163000000D02*
X54420000Y-175420000D01*
X42000000Y-158950000D02*
X42000000Y-163000000D01*
%TD*%
M02*
